<mxfile host="app.diagrams.net" modified="2024-01-01T00:00:00.000Z" agent="AWS Architecture Diagram Generator" version="22.1.11" etag="generated" type="device">
  <diagram name="serverless_analytics_pipeline_88" id="generated-diagram">
    <mxGraphModel dx="1422" dy="794" grid="1" gridSize="10" guides="1" tooltips="1" connect="1" arrows="1" fold="1" page="1" pageScale="1" pageWidth="827" pageHeight="1169" math="0" shadow="0">
      <root>
        <mxCell id="0" />
        <mxCell id="1" parent="0" />
        <mxCell id="2" value="" style="image;html=1;image=data:image/png;base64,iVBORw0KGgoAAAANSUhEUgAABVUAAASGCAIAAACmJdndAAAABmJLR0QA/wD/AP+gvaeTAAAgAElEQVR4nOzdd3wb5f3A8ee0bMnb8XYcO3tPkkAgiwQoMxBWW7o3/Bhd/KAtbaGF/ii00LJbWkoLFMoOFAgJgUxCyN478Yz3tmVt3e8P2bJ0OsmKt8+f9+uVWOOe5x5Jp+9z369OJ0mWZQEAAAAAADRNN9ADAAAAAAAAfY78HwAAAAAA7SP/BwAAAABA+8j/AQAAAADQPvJ/AAAAAAC0j/wfAAAAAADtI/8HAAAAAED7yP8BAAAAANA+8n8AAAAAALSP/B8AAAAAAO0j/wcAAAAAQPvI/wEAAAAA0D7yfwAAAAAAtI/8HwAAAAAA7SP/BwAAAABA+8j/AQAAAADQPvJ/AAAAAAC0j/wfAAAAAADtI/8HAAAAAED7yP8BAAAAANA+8n8AAAAAALSP/B8AAAAAAO0j/wcAAAAAQPvI/wEAAAAA0D7yfwAAAAAAtI/8HwAAAAAA7SP/BwAAAABA+8j/AQAAAADQPvJ/AAAAAAC0j/wfAAAAAADtI/8HAAAAAED7yP8BAAAAANA+8n8AAAAAALSP/B8AAAAAAO0j/wcAAAAAQPvI/wEAAAAA0D7yfwAAAAAAtI/8HwAAAAAA7SP/BwAAAABA+8j/AQAAAADQPvJ/AAAAAAC0j/wfAAAAAADtI/8HAAAAAED7yP8BAAAAANA+8n8AAAAAALSP/B8AAAAAAO0j/wcAAAAAQPvI/wEAAAAA0D7yfwAAAAAAtI/8HwAAAAAA7SP/BwAAAABA+8j/AQAAAADQPvJ/AAAAAAC0j/wfAAAAAADtI/8HAAAAAED7yP8BAAAAANA+8n8AAAAAALSP/B8AAAAAAO0j/wcAAAAAQPvI/wEAAAAA0D7yfwAAAAAAtI/8HwAAAAAA7SP/BwAAAABA+8j/AQAAAADQPvJ/AAAAAAC0j/wfAAAAAADtI/8HAAAAAED7yP8BAAAAANA+8n8AAAAAALSP/B8AAAAAAO0j/wcAAAAAQPvI/wEAAAAA0D7yfwAAAAAAtI/8HwAAAAAA7SP/BwAAAABA+8j/AQAAAADQPvJ/AAAAAAC0j/wfAAAAAADtI/8HAAAAAED7yP8BAAAAANA+8n8AAAAAALSP/B8AAAAAAO0j/wcAAAAAQPvI/wEAAAAA0D7yfwAAAAAAtI/8HwAAAAAA7SP/BwAAAABA+8j/AQAAAADQPvJ/AAAAAAC0j/wfAAAAAADtI/8HAAAAAED7yP8BAAAAANA+8n8AAAAAALSP/B8AAAAAAO0j/wcAAAAAQPvI/wEAAAAA0D7yfwAAAAAAtI/8HwAAAAAA7SP/BwAAAABA+8j/AQAAAADQPvJ/AAAAAAC0j/wfAAAAAADtI/8HAAAAAED7yP8BAAAAANA+8n8AAAAAALSP/B8AAAAAAO0j/wcAAAAAQPvI/wEAAAAA0D7yfwAAAAAAtI/8HwAAAAAA7SP/BwAAAABA+8j/AQAAAADQPvJ/AAAAAAC0j/wfAAAAAADtI/8HAAAAAED7yP8BAAAAANA+8n8AAAAAALSP/B8AAAAAAO0j/wcAAAAAQPvI/wEAAAAA0D7yfwAAAAAAtI/8HwAAAAAA7SP/BwAAAABA+8j/AQAAAADQPvJ/AAAAAAC0j/wfAAAAAADtI/8HAAAAAED7yP8BAAAAANA+8n8AAAAAALSP/B8AAAAAAO0j/wcAAAAAQPvI/wEAAAAA0D7yfwAAAAAAtI/8HwAAAAAA7SP/BwAAAABA+8j/AQAAAADQPvJ/AAAAAAC0j/wfAAAAAADtI/8HAAAAAED7yP8BAAAAANA+8n8AAAAAALSP/B8AAAAAAO0j/wcAAAAAQPvI/wEAAAAA0D7yfwAAAAAAtI/8HwAAAAAA7SP/BwAAAABA+8j/AQAAAADQPvJ/AAAAAAC0j/wfAAAAAADtI/8HAAAAAED7yP8BAAAAANA+8n8AAAAAALSP/B8AAAAAAO0j/wcAAAAAQPvI/wEAAAAA0D7yfwAAAAAAtI/8HwAAAAAA7SP/BwAAAABA+8j/AQAAAADQPvJ/AAAAAAC0j/wfAAAAAADtI/8HAAAAAED7yP8BAAAAANA+8n8AAAAAALSP/B8AAAAAAO0j/wcAAAAAQPvI/wEAAAAA0D7yfwAAAAAAtI/8HwAAAAAA7SP/BwAAAABA+8j/AQAAAADQPvJ/AAAAAAC0j/wfAAAAAADtI/8HAAAAAED7yP8BAAAAANA+8n8AAAAAALSP/B8AAAAAAO0j/wcAAAAAQPvI/wEAAAAA0D7yfwAAAAAAtI/8HwAAAAAA7SP/BwAAAABA+8j/AQAAAADQPvJ/AAAAAAC0j/wfAAAAAADtI/8HAAAAAED7yP8BAAAAANA+8n8AAAAAALSP/B8AAAAAAO0j/wcAAAAAQPvI/wEAAAAA0D7yfwAAAAAAtI/8HwAAAAAA7SP/BwAAAABA+8j/AQAAAADQPvJ/AAAAAAC0j/wfAAAAAADtI/8HAAAAAED7yP8BAAAAANA+8n8AAAAAALTPMNADAICueb3e6tqGqpq6+qYWa5vN7XbLsjzQgwLQJ/R6vdFoSEqIT0tJyspMS4yPG+gRAUNbXUNjZXVdfVNLc6vV7XJ7vd6BHtGwYzDoTSZTcmJ8+oiU7Iw0c2zMQI8Iw5fEPjSAwczj8Rw/XXK6pNzpdMYnJMQnJsZaLAaDUZIGemQA+obX63W5nG0trc2NjU6nMzU5adK4gsz01IEeFzDEyLJcXFZxvLDEarWZLeaEpGRzXJzBaNQxg/Y7j8fjdDisrS3NjY1ejzcrY8Tk8aOTEuIHelwYjsj/AQxeZRVVB46ecns8mTm5GdnZphjq5cDw0tzYWHmmrKG2LitjxIzJ4+Ms5oEeETA01DU07Tt8vKXFmpadnZWTY47jOJpBQfZ6G+rqKkrLrK0to/NyJk8YbTIaB3pQGF7I/wEMRh6PZ8e+w5XVdelZWSNHjzYyOwLDWHNjY/HJkw6bbfb0SXk5mQM9HGCwO3T89PFTxckpKaPGjzObLQM9HKioraoqPX1aksR5c6alJicN9HAwjJD/Axh0bHbHtl37rTbH+KlTE5KYFAEIWZZLCwsrSksnji2YMmH0QA+nF7hc7sqauura+sbmVpvd7nK5B3pEw44kSQajIc5iTk1MyEwfkZGWotMN+RNjezyenfuPVFbXjZ4wIS2TYtmg5vG4Tx452tLQMGfGpJHZvFjoJ+T/AAYXu8OxYesuoTdMnDYtJjZ2oIcDYBCpqawsOnEif2T2rKkTBnos3Wd3OI+cKCwtr5JlOSEpMS4+wWQ2Gw2ckrm/ybJwu132trbW5ubWlhaTyTRmVM6EMaP0ev1AD62bvF7vlu37mlqtE6ZOSUhKHujhoGuyLJcUnq4sLZs9bWJBXs5ADwfDApMNgEHE4/F8tuuA0OunzpqlZ28YQLD0rCyDwXji8KH4OPO4gryBHs5Z83q9J4vKjp0q0huMeaPHpGVl6PUEukHB6XBUV1ScLC4rKquYPmnsEP0wdveBo00trVNmzzJb+Lb/0CBJUv6YsXqdft+h43EWc/qIlIEeEbSPz/8BDCLb9xysqmucNnt2jJmzfAFQV1FWWnq6cME50zPTRwz0WM6Cze7Yumt/q9WWk5eXPTJPpx/yh5prj8vlKissrKmszMoYMW/mlKF1IMDxU8WHTxROnD49KYUccug5eeRIc0P9hefP5Syn6GvMPQAGi/KqmjOVNROmTiH5BxBB9si8Eenpew8d93g8Az2WaDU0NW/YutPtkWfMnZubn0/yPzgZjcbREyZMnjmztr5p47bdNrtjoEcUrVar7cjJolGjx5D8D1FjJk40xcTuO3R8oAcC7dPfd999Az0GABAer/ezXQdSRozIGjlSfQG3+2c/vu2jD9//6MP3P1774eFDB6oqK/NGjTKaTH0yHrf7Zz++LW9UflpGRl/036XGhoZ33no9f/ToGH71EAiRkJxUXlYmy/KQOFy2vrFpy/a9cQmJE2fM6KOQhV4UExubmp5eXVVdXHJmZE6GYSh8GW3X/iMeWRozaaIkSaoL3PXD/+m3CbRzVDu2//nh3zU01E+dPrMn/VRVVvz2nrsXLFx8Vj8DPLSmUUmSLHFxhacLk5MSEuL4yQb0IcrPAAaFU0VlTpcrb0zY03p7vd79e/eMKhizdPkl512wSMjyG//59/e+ftOeXTv6Yjy+1TU3N/dF59HYv3f3888+c/TQoYEaADCYGY2m3Lz8E4Ulg/8T2jabfduug4nJKROmTRtax5MPZzGxsVNnzRJ6/We7Dgz+w0yqa+sra+oKJowLl/wLIfpzAvVb/d6qosLCVW++1sOvG9vttv1797jcrrNqNeSm0fikpLSMjP1HTvLtbPQp8n8AA0+W5VPFZRlZOUZTF0X6+eedf/mKa665/sY77vzZM/98adLkKb+7957mpsbIrb7xxWs/eHdV7423TygGuXDJhc++8Mrcc88bwCEBg1lmbo5OZygqLR/ogUTi8Xi27tpvMJnGTp4cITfDIKQ3GCZOndbaZt+1/8hAj6ULp4rLklKSuzzhfz9PoLY22/bPtt7+4/+tr609cuhAN3o4WxqYRkcWFLS12apq6gZ6INAy8n8AA6+2vtFud2RkZ59VqzhL3I/u/oXXK7/8wvN9NLABpNPpRuUXkDAA4Ug6XVpmZmlF9UAPJJJjp4ptdgef/A9RMWbzhKlTzlTWlFfVDPRYwnK6XFU19elZZ/fTcf0wgW79dGNKSsqiC5eNGTt+88b1fbSWCIbiNBpjNielJJeWD+qwhqFuCHyjCYDmVdfWWyyW2LM/521CQuKSC5cfOXxICNFmbV2/7qMjB/c3NTVl5+Zefe0NuXmjhBC/ueeuqsqKxx95aMPHa5d/4fIvXH5luCXDqaqseP5vz3z569/6+MPVxUWnc/NGXf+lr6Smtp943Ov1rv7vO/v27IqPjz/3/EV7d+9YetElEydNEUJ4PJ7333n7wP49Br1hwcLFiy9c7mty6MC+j9esrqmuzsrJmTZj1pJlF4UOsqqy4pEH7//1Aw/FJyT4Wn2ybs3uHdvttrbJU6evWHm973ubkccGaFvyiNSKslJrm21wnjHb2mY7WVg6csyYcF9aPnb08HPPPOm7HBMTm1dQMGHC5MXLlut0ffXxTF1tzfvvriopLnQ5nRmZWefMO2/eeQuoTUSQkJSclpl54MjJzLTUwflE1dQ1SEIkn/2JMPp6At2wbu3CJcuEEOcvWrx29fs/uPWHvtsjTFtddl5ZUf7o7x/4nx/9tGD0WN8tn27e+NmmDXfec2800+jm9Z/s+HxrU1NjweixV197Q2paWuh0fLZPY69LTh1RXlI80KOAlvH5P4CBV9/UEpeY2L22OSNHlpWUCCF2bv98y8b1qWnps86ZW1JUdPsPvlNbUy2EuPSKFUKI2efMW3HtjZOmTImwZDh2u23Duo/u/uGteoNh9jnzd+/YfuftNzudTt+9v7nnrtdefnHM+AmpI9L++tRjb7/+amtzixDC6/X+/Ce3b9m4fvaceaPHjvvL43966fm/CyF2fP7Zz3/6Q6PJdMHipXHxCXU1NaqDVHzd8eH773vh78+Oyi8oGDPujVf+feftt/i+khp5bIC2xSckSpLU2Nw60ANRd+jYaZPZnJkT9oPZ1uaW/Xv3nL9o6dLll0yfNbuxrv7Pf3zwp7fdXFnRJ19qOHRg37duuqHw1ImJk6ZMmzHL7XK/8sLzQ+vT0QExasxoh8t1qvjMQA9EXUNTi9kSp9d35yO9vptAW1qad+/csXjpMiHEgoWLqqsqjx9r/xpFhGmry86zsnNqa2s3fvKx/5bV765KS89QHapiGn38kYf+8uSfs7Jzps+cXVZS3Gazqk7HAy4+MdHlcrfZ7AM9EGgWn/8DGHhtNntqYhdfXAwnLj7Bd6acxRcu93/AvvKGL33thmu2f7b18hXXnHv+wsys7EVLly1cstR3b7glI6/oT089m507UggxdfqM27//rUMH9s0+Z962T7fs27P7H/9+LXVEmhBixbXX37jiMt/yn6xbW1lR8Y9/v2YwGoUQo8eOe+DXv7jpG9/+bMummbPn3HLHTwI7Dx1koF3bP9/66Sb/Wi6+9PLvfe1Laz547/Krro4wtrN9JoEhR6fXmWJi2my2gR6ICpvdUV5VM3ZS11/7v/SKq2I7fvS0vKz03p/f9ccH7//j489EaFJVWfmNL678+0v/GZmXH/2Qnnn8T5dcduVtP76ztzocJoymmIysnFPFZeNH5w3CckmbzR5jie1e276bQDdvWJ+Skjph8hQhxNjxEzMys7ZsWD9h4mT/AqrTVjSdX3TJpevXffSN73xfCNHS0rxn987v3XaH6GoaPbR/37o1q5976dX0jEz/jW+99p/Q6XjA+Y6FtLbZLOZuvqxAZOT/AAae2+3u9g8sVVdWjCoo8F1us7bu3rXz9MkTbdbWutqaCKc1in5Jv1hL++/xjJ84KSEh0fdBwYF9e2bOnuNLy4UQiQGnXzp8YF91VeX9v/6576rdbnfY7S3NTTNmznnogXsf/O2vLli09NwFF8TEdj3B7929M3AtmVnZ885dcPjgfn/+rzo2YDgw6A0ul3ugR6GirKLKoDekpp3dl3FyRubd9uM77/7xbVs3bzp/0eJeHI8sy0WFpy9fsbIX+xw+MrKzKspK6xqa0lK7WaruO26XW2/o5s/49d0E+szjj7qczrt/dGv7iqoqX3v5xW//4H/8C4SbtrrsfNkll774/N+Li07nF4z5dNPGMWPH5eeH/eUgvx3bt02dNiMw+RdCdGM67ge+Qzlc7sEY1qAN5P8ABp4sy6K7H6ocPrh/zJixQohjRw//+u47580/d8acucnJKZsCjg9UiH7JcIxGo+9CU1NjbKz6F48lnW5EWvp1X7zJf8tXvvHthMSkpRddnJuXt/q9d5557NHHH3noxpu+duNNX4u8uvr6upiYoP2S5BEjmhrqI48NGBZ00uD8rayqmvqk1BTp7L/JP3POOTkj844ePnj+osVVlZUfr/mgsPCUy+kcN2HSyutvjItPqKqsuOuHtwoh7rrj1pGjRn3/1h+OmzBRdcnAbiVJys3N++DdtxcuXpIYfKJ41Q6FEE6H4523Xj925FCs2TL/vPP9H8xu3bzp9MnjCxYtXvvBe3U1NT/++S9bm1vCrd3a2vL266+eOnl8ZF7+oiVL//Xcs7/9/SN6g0EI0dzctOqN106dOJ6aOuLyFdeMnzipO090v4i1WCwWS1VN3SDM/72y3O2jEvpoAq2vq3U5ncsvvnTqjJm+W5JSUjav/6Tw1MnRY8eFLu+ftqLpPCs7Z9qMWVs2bsgvGLN5/brll1wWzSOtraq0dFQc/LoxHfcD36spewdjWIM2kP8DGML27t559PChH999jxBi1euvzp137p333Ou7q76+rvD0Kf+SgRlC5CXPSk5O7kcffuD1ekPP1zVqVMGGtjVjx41X7IULIcZPnDR+4qTbf3LX6vfeffyPv1+0dFl2Tq5ikIFyc0cq1lJ06tSsOed0b8wA+kFjc0tuFB9LqsrNHXmmtEQI8d+336g4U+ZLjD9as3rHZ1v/9Mzf4hMTV1x7/d+efmLFtdePHFXg+/Kz6pKKuHTrj+/87S/v/uoN11ywaMkXrrhq1py5vttVO2yztf3oB99JSk65YPHSivKyhx6478ihAz+47UdCiLramldffnHdmtUzZs3OKxgdZ4l75V/Pq669ubnp9u99My0jc+HiC6sqy++4+btCCK/Xqxeivrb2tu9/a+78c89ftKSkqPCnt9/829//0T+kQciSkNAwWM800T19N4Fu/OTj1LS0O+/5tb8w8YUrrtqzc8fmjetV8/+z6lwIsfySS1e9+dpVK687sG/v/95zX+Bd4abRtIzMTRs+kUNqJeGmY0DDyP8BDEktLc1bNq7/25OPf+O7P/DN1jpJd/jwwYaG+pSU1GNHDwsh8vILfAsnJiXt37f78hXX+Cb+CEuerWWXXPrKS//62zNPfPcHt0o63fqP1/rvuvjSy1558fk/PfR/d/7i17Fms9frramuzszKKjp9KiExcURauiRJiUlJQgiTyRQ6SMVa/tOxFp1e/8G7q06fOv6L++7v3pgB9DWXy+1yuWO6+6sEcQnxDrtdCPHdW27z37hw6YXf/eqXys+UjszLX7hk2d+efmLh0gv9X9cPt2RgtzNmzX7xtXfe/+/b7775+vp1a8dNmPiN7/5g3rkL4ixxoR2++uK/zGbLQ39+0ldEmDJ1xkMP3HvZVdeMyi8QQriczt//6Yms7JzIa3/lxX8mJaX84bGnfZ2kZWT+/eknfIv967m/Tp816yc/+6Xvqk6ne/3lFwdz/h9rsdRXVQ70KHpHX0+g6z/+aNGSCwPnMr1ef+55F3y6Yf3Xv/29CAML17nFEieEaGpoSElJFUIsvnDZ04898upLL8w6Z25ySucPH0SYRhctvfC1l1989eUXv/SVrwshqiorUlJSy8+UqU7HgLaR/wMYSv74f781xcS43a6mxsZRowp+/X8P+fcXb/zq137+0x9+5dqrEhKTUlJSs3NyDR2/1fTFr37j4fvv/fqNKydMnPSrB34fYcmzlZWdc/evfvPo73/33qq3TKaY6TNn+u+yxMX/9qFHHvnd/TeuuDRnZF5dTc2ChYt+8rNfbli39o3XXkmIT5D0utbm5u/cfOuItPTQQSrW8ov7fvfoQ797f9VbBqMpISH+Nw8+4msFYBDyfXfX2N3AUl1ZNX3mLN/lmuqqXTu2V5afqampFkI0NTaGO0VfNEuaLebrv3jTtTd8ac+unf967tn7fnHXU3/7Z8GYsaG97dm9a0nALxEuWX7Rk3/6w7Ejh3z5/8i8fH/yH2HtB/ftXbr8Yn8nEwKO8D904EBZabG949yNNVXVnsH9hWeDweAe3CPsUv9MoBXlZ44fOfS9W25VrH3BoiUff/RhSXFRhBGG6zw9I/OcefPv+tFtl1x2xXdvuc0SF79g4eI3X3355/cG1cEjTKNjx0+846d3/+XJP7/92n+MRmNba+uDf37is00bVadjQNvI/wEMDQaj8eHHnvJdjo2JycsfYw7+bC2/YMw/X3mzpKjQYrFk5eTW1db4jwNcuHjpjDffrawoHzkqP/KSitX5jlTMysp5+LGnEhM6f6HwVw88mNVxiODCxUvPW3BBSUlRRkaWXm9Yedmy5NT2jyMmTJz81xderq2prqupSc/ITE1LE0J88/u33Pi1b1SVl7vcrpEj8yxx8aqDVKz0vAsWvvL2e2WlxUaDKTs31//hRuSxARgQvpAid+tb2dY2a/HpUytWXi+EWP3eO8/95alLr1gxfsKkceMnfrxmdbhW0S8phNDpdOfMmz952rQvrbhs5/Ztqvl/Y31dbPBpR1JSU21t7em64vPVcGtvDn+GFJ1Omr/g/MAzpJjNyq9nDy7SID3TRJT6bQI1my0PP/bU1OkzRbD5C85/+LGnEhITLWZLuGkrQue/++NjxUWn0zry83nnLtjx2dYFFywKXEXkafTSK1csu+TS0pIivU6fMzLPZDJNnDRFdToGtI38H8DQIEnSjFlzIi9jMpl8p60SQihO85uYmJSYmBTNkqGri4mNVax68tTpgVcNRuOYseOFEMePHNLr9b7fNPJLS8/wfZ/Wz2K2qH4HMnCQoSvV6/X5BWMUTbocG4Ch5Y1X/p2WnrHowmVCiBef//t3b7n90iuuEkL4PioPPCtYYN4VeUlVFrPFbIkLPLdoYIfZubmHDx+84pprfVfbbG2VlRX5o5UhKPLas3Jyjxw+eMXV/h8d6KwajMovaGxq7DKqo7f02wSanJISeEx+YCv/GCJMWxE6D5wBd+/YvmDxElNMjGItkadRk8k0dtyEwFvCTceAhp31aWkBAIFOHDva2tIihLC12Z7/21+/cMVVlkH+KRaAQam2pvqvTz32zuuv3vbT/9Xr9UIInaTbveNzh90uy/K6NR8IISSdJIRISEqUJGn/nj3+tuGW9JNl+flnn9m3Z3ebrU0IYW1t+etTj7kcjnnnLVDt8PIrr1n/0ZqNn6wTQriczqf+9Mf8gtH+byUohFv7ZVdc7e/EYbc/8/ij/ibXfvHLB/ftffXfL/iKDrY2W2NDQ688jdA8a5t1y+YNS5dfPNADAYYkPv8HgB5Z/d9VH77/3xFp6Q0N9QsWLvpOwHmwAKBL3/7qjTpJ19bW5nDYZ86a/dQ/XvCfgfy7N9/26MO/u2HFpUa9Ycr0Gb6fzRNCWMyW675405N/+sObr71y6RVX3XjT18It6ddmba2trr7vF3fa2mxmi9nWZssvGHPf7//o+xp/aIdLll9UVlby8AP3Pf7Iw06nY9Lkqb/87YOhP3QSeZxLll9UVHT6ofvvffyRh2VZHjd+vL/JlGkz7vrVfc/8+dHXX3kpLT2jprLy+7f/6AuXX9m7zy00afMnH8fGxM45Z95ADwQYkob2d5kAaMN76zbnjh6TmZ090APppvr6utqqyqzckYFHSALoBwd3785NT5k6UeUb7API2mZbu3Hb1Dlz4hOUP/8ZqLWl5fSpE77LiYlJeaPyQ/P21paW8rKStPTM1LS0otOn0rOy4ixxvruqKius1tZRowoMRmPkJf08bnd1VWVTY2NaRobvtOeB9yo6FEI47PbSkuLUtLTU1BH+xepra2tqqydOmhLlOK1t1sozZaPyR+/euePh++99c/U6fyuv11t+ptTWZsvJzQ39qdRBpaqi4kzh6SsvWtT1ov1ry/a9kil29IQJXS+KIeLzjRvnz5qam53R9aLA2ePzfwDoqdTUEYE7xwAQjfiEhC6/lR2fkDBh8lTfZcWJ+jKzsqNc0k9vMGTnjlScoyRch0KImNhY/5ex/VLT0nxnM41y7XGWuLHjJwohSooLRxYUBN6l0+nC/ZwBACnsc1kAACAASURBVKAv8P1/AAAA9In9e3f7ftivvKzsnTdfv/b6Lw30iABgWOPzfwAAAPQ+r9f75KN/qKgoT0pKbmxs+MrXv7V42fKBHhQADGvk/wAAAOh9Op3u2RdeKS8rs1pbR+UXxMTGdt0GANCXyP8BAADQV3JGqp9uAADQ//j+PwAAAAAA2kf+DwAAAACA9pH/AwAAAACgfeT/AAAAAABoH/k/AAAAAADaR/4PAAAAAID2kf8DAAAAAKB95P8AAAAAAGgf+T8AAAAAANpH/g8AAAAAgPaR/wMAAAAAoH3k/wAAAAAAaB/5PwAAAAAA2kf+DwAAAACA9pH/AwAAAACgfeT/AAAAAABoH/k/AAAAAADaR/4PAAAAAID2kf8DAAAAAKB95P8AAAAAAGgf+T8AAAAAANpH/g8AAAAAgPaR/wMAAAAAoH3k/wAAAAAAaB/5PwAAAAAA2kf+DwAAAACA9pH/AwAAAACgfeT/AAAAAABoH/k/AAAAAADaR/4PAAAAAID2kf8DAAAAAKB95P8AAAAAAGgf+T8AAAAAANpH/g8AAAAAgPYZBnoA0Dhbq8fjlj99uz74Zinoj9olKXBxIUlCyJLixs67gjuWIlxTv+K7JoXeHqG3MF1HeGT+i8q/Efru/JM3zZCWb4iJk3RU7dRIbrvsbBWn1ovqg+oLqFxSWyzsvXJg2wgbU+iKw98vq20fyuaR1qCyHctdDqyLp8KS7ph4k6yPFcaEcKsd5mzNHluj+9im5uCbuwhrobEl/MYmRWgaLqypxC7VzVXRSnlfVMMPE8NU/kYOa6POM8Yk6WLiI7+FAPQtr0d2WL21RY6y/dbge7reOVEsL0ntk5DKXWF67XqPMHD1Zx3WIuy3RRXWQsNc5Cdk/CUxOr0wWghrGLzI/9FXmmpcO9c2ffZufVuzRwqIsx1/Aq+2/6fccQxqFRSGpaBLwaE4aIqJupXizqDBBU4qZ9tKCnisHVcV/1S6VraShNj1X4eQRMEs49wVMdkTeOcGcNnkk+vEZ4+Lsh2+GyRJJQcOt0MRtHD7LSGrkITkz6u77lAEJeFCsQ0p/gaXAFR3GKSAxD7i2jveLcqHH7qzEtBcDr5HCEnEbr3bmzzOMeMO59jr5NgRamMaphrLnXvfazi4plEoA5TvT7iwptgxDQhrQS9f1GEtilZ9GTNVApT/ZhH8bIQJa+13HfvQKSQxZqlp/HJTfCalTWAAVBxt2/VWfdEuqwgNa0ExreNvcJhQLKK+XySUkefs96ZC19yzsKbsXCVACcXVjiW6CGtrnKY4aewyU8EFRksqYQ2DEVkEel9TjWv76oZda5ua61y+gCjLviyrPTHy39Rxtf2/jk/4ZbVWstSxYOfV9ktBRwbIsuyP+2fRKuAGxUDkgCMPAjuPrpUshNTxWNvvU/5T6VrZyv9kFe11Fe11jTnHNOcKE1UAIYQ4/I786WNSxe7A22RZ6szqO199IQXforJw+y0hebgsZP+nGl136NvzkIObKxfu+CsJubMEoLLqzuaSEHLktXe8WyQR/PCDBqi4JWDhwLeorvGkedMdpv1POabd7Jz0FWFMDBnW8FJX6tj/fsOJLc1Om/fsw1rgGz04rAXEobMIa1G06suYGTZABYW1wIeqbBW4mDi9wVm6zZ033zBmmTEpR9/t1wjAWak40rb73frC7a1hAlTwO1YIoRbWFIuo7xeJkAB11ntTAXf1SlhTdq4WoAKfiejDmiycVvnIfx1Fm935FxjGLDKaqQJgkCF/QC87tqNl9d+rq4odIjB+UwLovRKAkMTpXa7i/a65V8XMujzGFBuaLw4PDcXy1sekXc8LWZaFMm2mBNDzEoAQQt94zLLlx8bSNY6597gz5oUMa7g4/HHT5uernG3eHoQ1SgCKVkF71y679/QmV+kO98wbY/MvYM8E6FtOu3fPO3W73q73OGURKUBRAuhmCUBIwtboOfq+t2KPe/p1sZnTqWxiEGGWRa+RZfH5+/XvPl0he0UUyTwlgJ6UAGSPS/r8LUfZIc+Kuy0G0/ArAdQXihdXisYif4YdmjZTAuiVEoAQwlj8ofHMhtYr33NnLwwZlsZ5PfKGv1Ue+qhRyKLHYY0SgKKVcu/aZRO7XrDVFRpnfTlWx96yEHaX1eVxfHbsvWZbbcdtKtFeGS6kwIthZocId6j2qVix1PlHbUDh+ghaIOwawo4ttFMpzF9lx1lJ4yZknhtjsBj0pvB9Dxduh/fd+8vKj1g7Zp/IAYoSQPdLAELITeXerU+1zfpy7OjFxkhbNtCPyP/Ra7Z/UL/qyQrf5eiS+cj7yuFaUQLobH3mmPvdh9uu+IklZlidaabutPzStaKhSIjQlDtoQUoAvVUCEG57/AcrWy99zZ17YciwNMvj8m5+vvrg2kbf1d4Ia5QAFK2Ue9eyLBVucul0YsYNMTrjcAprwVrtjTtOfbhm/wtVjcUiNOkNyZ+V36aWwi4dmJtLAQspF1Ek4VLQDcq1Ba3O/yfwn3pPinsD71B0GbSK4HErO1GtEEhCCGnUiGmLJ3xlYtYCoz5GDFdOm/e//1dafqRNnEWAogTQoxKA1yvt/rddlsWYpcaevXpA7+AbKegdx7a3vPNkhZA78wf/fwH5hxDCt4gcetPZtJID7glatvNye6vOq2fRSnFn0OACOpTPtpUc8Fg7rir+qXStbCUHtz5z1P3xszYxfMhe74sr5YZi2b9bEHinHLK4HJiRK/6GNlfmG6EdClnIgTN+Fx0K5c6vrLJwx18psLnKqjubBz121bV3bCfKh6/YaoObS8H3BC/tbIlbc5O+6bjasLRpzzv1+1fX93ZYU7yZA8Ja0MsXdViLolVfxswuApTKE6RspXjuZCHEqQ2uEx+5xLBkc7auO/Dv37311X9tut+X/AtlNAjZkkLno9CtIsIm23Ep7GwnQraosFuN8qVUvPCKnkI2i9CtrWMp9diosoqQqblzwZK6g//+7OfPbvyfg2XrxXC17okzZw5azz5AKWKaeivFIur7RYo7VF6y6PbBejGsKTtXC1Aq8SqKsBZwde8r9sr9bgEMAuT/6AWNNa4Pnqv0en0RNNykIlRjptqkEU2rvtudVd4w+EsAxfvdRzcNl31l+aPfiIaS9suUACKuvWM76bUSgORoiN36M8ndpjYsrak6Ydv1Tl37FUoAkVp1EaDOYl854OLxtc6GQo8YZk5XH3hm7Z0vbf5dReNpxQRDCaBXSgCyEGX1h1/+/J5Vex6ut5aLYebIJ02Fuzt+4Y8SQMjVPi0ByLI4+JbDVu8VwEAj/0ePyeKNR8sqi+zqu3/KmKoSM9UmjWha9d3urPKGQV4CcDvlT/7R1lCu/UlFPrhK3vqkEIGvICWASGvv2E56rQRgLPogdteDamPSFFkW7zxQYm9191lYU3Sssq+sWMNwKwE42+RPn7Cpb/8adbxi14Nvf2NfyabOmygBBHfZWyUAWZY/P/X2PzbfUd9aJoaN+jOOdc+ccTu8UYS1cAFK0US9FSWAcK2ayr27/mVXvBeA/kf+j546saf1xK5WIUTY3T9lTFWJmWqTRjSt+m53VnnDIC8BeNzi87fsGt9XdtvFxj8IuaPM0fnUUgKItPaO7aTXSgAxu/8gORvVxqQdu1bV2pp8B2r2XVhTdKyyr6xYw3ArATha5eNrnWJ4OFy27ZH/3ux02yO9EspoQAkg+C5FJxFLAEKIutYzz235Yd3wKAHIXnnbK9Velxy6m9H+N+C/iAFK0US9FSWAcK2qjniqjw67I5sw2JD/o6e2r65XRsHgi2oxVSVmqk0a0bTqvbiv2irK6WcQlABObHO57EHD0Bi5dIe36nDwTf6/lAAirb1jO+m1EoDpyPNqA9KOgx81CNEPYU3Rscq+smINw60EULRlWHyzqaKx8PEPf2hztbZfpwSg3MaCuuzFEkB9a/lzm+9QPD5Ncjrk41uahVDfzWj/G/BfxAClaKLeihJAuFaFW4ZLWRODFvk/esTa5D6xp1WERsHgi2oxVSVmqk0a0bTqvbiv2irK6ac3SgD+mwOuq+xQhdvDPrZV05PK/jeEcl8z8GmjBBBp7R3bSe+UAEwnXlMbjUaUH7a21DrVo1LAxV4Ka4qOVfaVFWuIvgQgwtwxhEoAbfXe2hMa/6zM6ba/suXhNkezUD6rASgBBHfZiyWABmvFh/ufElp3fGNj2PejiCpAiYCryndsmFaUAFRbVR/2OFpUIzXQT8j/0SMlR9vamt3qO3fBF9ViqkrMVJs0omnVe3FftVWU00+PSwAR5ubwez+drYr3avfUsvZGb8l230VKAGrN+7UEoGs8pWvU7A8BlB6wepxy6L5rn4U1Rccq+8qKNURZAoi0h92HMTO6sBZdCcDrlKuPajesCSGEWLXj6T1FG8I8qwEoAQR32YslgM0nXtlfuk5oWuGuFiFE2Pej4h61ABWSzIfcFFUrSgDCafUOw5ObYlAh/0ePnNzbcbyi6s5d8EW1mKoSM9UmjWha9V7cV20V5fTTGyUA9d2kKEoAZYe1e6ystUbUHPVfowSg1rz/SgCSq9lQs1dtKFpQsr8zrKlHJeU9PQ9rio5V9pUVa4i+BBCu1VApAdRo+ruybc7m/+76mwgO95QAwm/2QV32VglAlr2fHP6H26PlA+hKD3Sc9r9nJQBlWKMEIBQXowhrsqg+pvGyJgY58n/0yNHtLeEnXUoAUbZS7Mcod5HCdK1sJQvhdoqyw9qcVLxHlR/OUAJQa95/JQBD8Wq1cQx5TVXOhjJnuODVl2FN0bHKvrJiDVGWACK0GhIlgJYKj7VWsz9usuHQGyo1D+WzGoASQHCXvVUCqGopLK4/IDSq7IDV7fR2/X5U3BNVgAqJkWqtKAEoWlUd0HJZE4Mf+T96pLrErgyhoVEw+KJaTFWJmWqTRjStei/uq7aKcvoZoBKA1ysaKzU6qdQd7zoJ73xqKQFEWnvHu6VHJQC9Ro//t7W4rY0uRYRQj0rKe3oe1hQdq+wrK9YwHEoA9hbZ0arZ/H/r8feFCH1ufJdDL/mu9nYJoPNq5xKK0BF2thMhW1T4sapsAIqoqHj/hN2Ag7rsrRLAvpK1QqPqyx1eT3TvR8U9UQWokBip1ooSQGCrpgqN7qphiCD/R6+gBBB8tTuTlnJuVvmn0rVKKw2jBBBp1Z3N++soAI2jBNDzmKkMUGF2m7vYV9aqisbCqoZilU1C/VkN0LslAJXIoJh0AjsMme1CehmiJYDi2gM2V4vQsujej4p7ogpQoe9YlVaUAIZDWMOQQP6PHgkzq6rt3AVfVIupKjFTbdKIplXvxX3VVlFOPwNTAtA4SgCRVt3ZvM9LAMMDJYCex0xlWAuz2zwc95WLqg/7fvNPZZNQf1YD9HoJIMIm23Ep7GzX2Yv6eIZECaCq5XSro15oXHTvR8U9UQWo0HesSitKAJoPaxgSyP/RU2FmVbWdu+CLajFVJWaqTRrRtOq9uK/aKsrphxJAbwnazigBhF91Z3NKAN2kfH3CBK++DGuKjlX2lRVr0HoJQJv2Fm70X5aDH3Dgc9FPJYCgNXYuoQgdYWc7EbJFhR+rygageNcp3j9hN+CgLnteAjhWvlVoVPjnihKAsv/+KgEAA4b8Hz0TEtooAQRd7c6kpZybVf6pdD0MJpWg7YwSQPhVdzanBNAtijctJQBKAH2jvLFQLXQonhvf5dBL7QvLQdeC7gt9L1MCUB9Nxz01LcVCm+SIOwyUAJT9UwKAtpH/o8coAYQsFnS1O5OWcm4O+Kucm4fXpBK0nVECCL/qzuaUALpF6yUAEeaOwVkC0Da1rFjx3Pguh15qX1gOuhZ0X+h7mRKA+miGx6YW/rmiBKDsv69LAMAAIv9Hb6AEELJY0NXuTFoqc7P6bpLaDpWWBW1nlADCr7qzOSWAbtF0CUAWcrhWlAD6UegGJOTgpynwuaAEEH6zD+qSEkBYlABClqQEgGHIMNADwNAm+/MVWRaS1HlVyLIsSVLnUh3/OhYNaNXRT/t/suTPVyRFx4oOom4lSx0Ldl5tv9RxWWXQUbcKuEExkM6rwZ1H10oWQgp8sgKexoCnU9m1ZieVgMcbuJ1JkqTclw14mkXAKyhJvilbCr9wcIeSwaxLyPAtEbSUFHgx+AmXgpfsWLgzBZeEEMLbWiVcNsVj6RiPpNzJlZQPXPb3KgeUF0IeS0BzSQQ8dvVnsv3dIgn/89n5BhNhb9GiMO8sxfWgMKQIa/GpRlOMTgghe+XmOrfXcxZhzZKkjzHrfLe1NrjdTvUoq4hDZxHWomjVlzFTGdYCnkblLKH5La0jO1BsQO33SMrnxnd76LThaxC0rQb3pnhlQhcPWj7kdVR7RYJCQchsJ0K2qODxKGYs5QagiIpBc2XQvWGeDcU2JsJMo+pPhSbJYcNadO9HxT1Br3i4ABW8AQsh1Fopw2jHay1JwmASRpPOYNQZjEIxC3s8wusWbqfscni93qj3wXoxrCk7V3u/KrZsxRMEDCjyf/SQcuKgBDAISgCa1Z8lAElvSrruKfOMa4Wk7+2H4XUcfKPlnVuFq03xWDrG43vpO8c/CEsAmhYUoLpRAvjinbnjz4kXQjRUuZ758emWek/0Ye2y72bMWpYohPC45efuLi09Zg+/h00JYOhTnxf991ICUPZECaDbBnkJwBijS0o3po005oyNTRtpTEo3WBL15gR9bJxO8eI4bV57m9fW7G1t8NRXuKqLXZWnnU3V7rYWr4i8D0YJABBCkP+jNwyKEkDm6Njs0TFnTtprS51hWvX+7qwpVjdmVqzbKZcedjjtg6IE0O1XcajotxKAPiHTPOM6IfXBl6QkXcyUlY6DbziOvh/6WDrG43vpO8dPCaCftD+wHpUAzIntNSOXw+t0yCGBIGxY0+lEjEXn79rjlrvawx4WJQCNC1MCUJnpKAH410QJ4Kyp7DCEea76tQRgjtflTTaPP8cyarI5OcNgTui64G4y60xmXeIIkTlajBVmIYTbJbfUeqpLnKf32gv32eor3IO/BAAMIPJ/9EyYZL4/SwA542IXXpsyYV58rEXXVOP+5y/L6s70UwngsptTpi6Kk71yfbl7+3utB9ZbvW6VxfqzBNDtV3KwC8qF+6MEIMUm90ny76M3xs7/gfPkOtntGKolAA1TC1BnVQJQ6y+6sCYJY0zIizfsSwChL5E2yJ3bASWAQVECEFolqz3iAS0BSJLIm2SevSxxwvy4+GS9Tt+jt7nBKKVkG1KyDRPPtdit3qpC54GN1qNb2xxt8qAtAfTk8QI9RP6PHomQzPd1CUCnl7JGxyz9ctqkc+N1HWlaUrohJdNYe8YZfg+7N3dn8ybHSJKQ9FJanvHyW1IWXJOw9c3mY9vsDltXB6H1XQlAw0JzVMWNvV0C8HOcXO84vs6/cNinWgq5FrKoef739CkFQgjT6CXGgkXOk+tUH0vHeKSgVJsSQL8IF6CiLwE4bV7fHTq9pNN39BldCUD2BgwlICIO6xKApnVZAhAqKYXvrv4oARj1JqPeqNcZTIYYSUhGvVGSJCEkSZKSzalOj6PN2epb2Ct7PF63x+t1e91ur9PtcXp9W/PQKQFoOa6JwVICMMfrJ86Lu+Da1OzRMaqzqdcru+yyyyk317qb69zWRo/bGfS6xKcY4pP1SemGmDid0SQZTEG9xMbp8qfF5k+LveibKfvXW3d90NJQ5ZZlETx/DoISADBwyP/RU/1fAjCaRP5Uy7zLUiafF28wqs0eXexh9+rubICUbMMVt6bOX+Hat856+FObtdFDCaCXDVAJwFWy3br5cSE6F+5cSpHzhxzWp/xmgduZcPlDQtIJnSF23vechRuFxzVUSwDa1cMSQHO9y3drbJzOHKdra/aIwOcvfIDyuGXfwkIInU7EJemj3sPWdAlA6yKXAETw09R3JQCLKT7ZkpoQmzwiPiMzMSczMTclLi0xNiUuJiHWaE40p+iEZIlJ0IU5MMrlcdpcbU633e5qszpaWh0tTbb6utbK6pby6pbyhrbaZltDi73JK3sGdwlAm1Se2PY7+q8EYEk0TF+ScN5VKekjTcrhyaK13l1T6iw+Yq84aa8rdzdUuTyujvlKCCFE4AYuJKGTpPgUfUqWMT3PmD/dnD3GlJRuCKwFxMbp5l+ZMHNZ3MGN1l0fttaWugZXCQAYOOT/6KEukvneLQHo9LrR0y2LrksdMzNOPfNv77yfSgAqK5dE+ijjRd9OnnNZ/O4PWw9tamtr9vZnCUD7BqgEENI2XMbexdrte1+2XHC7PnmUECJm/CXG7Dmuss8jdkgJoP9FClDRlADqy52+myyJ+qQ0Y125M/qDm5rr3b62Or2UkmlUazXsSgDDQZclACFCnxtfw+6XACym+NyU/NFpE0enTShInzAiLiMxNjkuNtGg687OoVFvMuqVeZ1fm7O1xd7YZKsvbywuqjteWn+6vKmopqXCK3soAfSLSMl8X5cAdHpp6gUJS784IrMgRrFVt9S7T++3Hd3Weua4vanGHbBqZVhTvKReIbfUe1rqPSWH7bvWtMTG6dPzjGNnmyfMt2QUmPyHhcZYdOdcljBlYdzeda2fv9tibfIMkhIAMIDI/9Fz/VECkPTSmBmWxdePGD09TnGsV2ujp/K0fdycOH+/Ial2X5UA/Boq3bZWb864zl2f1GzD8m8mn3NZ/J611v2fWO0tauPqgxJANC/YUCQrrgzZEoBsb7LtfD7+onuFEEJvMp93i+v1z7vqcDCWALSuRyWA8lN22SskndDppIJpltP7rdF/v6m6xOHvumCa5fP3G9VaDa8SQLQv2lAT+uPzEUoAipu6XQIw6IzjMqfMyT9/Wu7cgrTxFlN8rNHct49TCCGExRRvMcVnJo6ckDlDCOHxuu0uW5Ot/kT1gSOVew+d2XmmsWjgSwAaNzAlgPSRxku/nTFhXrzeELhtijPH7TvXNJ7Y2dbS4O6YtZTbuIhYAgiMPHarp+yYt+yYY9s7zZljTLMvip98fpz/dCrmBN2ClYkTz7VsfKXx6Gc2/9esBrAE0J0XEOgl5P/oFX1YAjAaxfg5CRfelJY7LjbwDDGyLFrq3Z++Xb9rbVP+VLM//xdR7GH3egmg7ozr9Qdrx8yOXXBNYu5Ek2+SkySRkmVY9rWkBSsTdrzXum+dta3JK/d5CUCrpKC8uu9LAMFt1dfevRKAfcc/LOfdoovPEELETF1p2PRHd9VBSgCDT/dLAGdO2hw2T2ycXggxfk78pjdq3U45yhJA6dE2p81rMuuEEPlTzAkp+pYG1a8P+F4BtbCmwRKAZoXE/z4pAegkXUJs4tTcOQvHXTxvzOJEc0rQodRqPF63y+N0eVxur6vV3mxzWWtbqzwed6OtXhZeIYTdaWt1NAkhUixpBr3R1yoxNtlkiImLSYwzxSdbRhj1JoPeaNAZjXqT4uz6ep0hLiYhLiYhJzl/yYQrZSFXN5fvLtm8vWj9yepDNqdVFnL/lwCGQVzr1xKA3iidc3HyJd9MtwSc1d/jkcuP2z95pe7U3jbZExDHAsJE90oAvkfgsHlLDtlLD9vX/7vx3KsSZy2Pj41vPxggNcdw9Y9GTDjX9vE/G1rrvZ19DEwJABgw5P/okfAH0fVCCSDGoh87O27xtWn5Uy3B+9qivsK5c03jjg8bbS0e1TJqP5UAAng98smdttN7bWNmmudflZA3Jab9GwqSMCfoFn85cc6lcXvWWg9uaGuq9vRhCUDTBrAEEG7t3SgBeNvqbdufjVv2SyGE0BnM59/e8vbN/ox9yJQANEuOMqxFKAHUVTgrC+0F0+KEEKMmWzILYs8ct4mADiIEqIZKV/lpe8FUixAiYYRhyvkJn7/XEL6Vf/WaLgFoWp+WAGKN5vGZ05ZPueq8sRemxqWHG4NX9jbbGppsDdXNZ4rrTlU2lVa3VNRba5ra6pvs9R6v27+k1BFgOq76/kgiMFx1LBIfk5gQm5JsSU2JS89IyBmVOjY3pSDFkpZkTo01WgIHIAkpMzH3smlfumzaF6uaz3xe+Mmnp9YU1R7zeN39XQLQqCiT+V4sASSk6K/4ftbMpYn+MXi94swJ+6bXao99bvV2PNch+ze9UALwNW+udX/0fP3OD1oW3pA05QKLr6iq00tTF1pyJ5jee7K+5JDDF14GqAQADBjyf/TQWXyeH30JICZWN31R0nlXpuaOj1X8Kkx1iWPru/WHt7a0NrSfJUt5xrWOvK0/SgAhvG5xcretaL991NTYcy6LHzMr1v9thfgU/aIvJs6+JO7wZtuetdaGSndflAA0rz9LAFGu/exLALJ932vm+d9vPwRg0hVtGZM91Yej6JASQP+INqxFKAHs29jky//1Bum8K1LfPHGm/RnrqgTgcsoHN7fkT7FIkpAkce6VyQe3tFgb3dF/1VZorwSgdX1RAoiNiVsy8dJLp103IWua6tfyvV5PZXPZ6ZpjxysPHq86WN1S3mCtsbtsvnsVH9dLiq1CES4UU3zHZtrqaG51NFc0lQjRXjmQJF1ibHJqXHr+iPETs2aMSZ9SkDo+JugLCFJm4sgVM79+yZTrD57Zsebw6wfOfO72uPqrBKBVsuLt2NclgLyJ5qtvy84dF+sfQWujZ+NrtbvWNjnavMLXMDC/74MSgE9Dlev9p+sObLAu/Upy3uQY343JGYYbfp624aWmvR9ZPW5ZqGzYfV8CAAYO+T96rjdLAIYYafqi5IXXjMgZZ9YFn2O4tszx6ar6A5uarS2ejk7a16GctqP+qm0PSwBB6wxo5XbLhfvsJYccuRNM81ckjDvHrOs49i0+RT9/RfzUxeZDm2y7Vrc21XjCTVqUAMLRQAnA01Bk3/cfywV3CCEkc4p57rdbP7gzug4HUwlAy3paAtizvuEL38z0fQVg1oVJG9+orSl1hNtXVrzDD2xqvmBlqu/kfxl5Medekbz+H0xb8wAAIABJREFU5Vo5bCvtlwCiftWGsF4sAZgMMcsnX3Xd3G+OGjE29Fz9VkfLgbKdu4o/PXxmd01LRauj2St727PzgGAT+UcBoy8BKOYtIXubbPVNtvrC2mMbjr8XazAnW9Km5c6dM2rhjJHnxsd0flYca7TMLVgyM2/BwfIdr2x/8nTtUbW8s2M8vVYC0Lh+OApASGLy/Pirb8tOSjf613tyr/X9v1R1nNxEUvTb1yUAr1cuPmh/9YHqc69OXHBNou9TmRiz7qJvJiel6ze90ux2DUAJABhA5P/oFb1QAjDG6OYsSzn/mhGZ+TE6XdBuR3WJY8vbdQc2Nzms3s4cpGNdvmU6lw9Yl/DPJ31TAlA+C8GtPG5RcthRdsyZNdZ43tWJ4+fG6jt+syAuWT9/RfyMZZaDG9t2rbY2VXl8D6E3SgDDwpAvAQivfc+/Y+d8TWdOEULETF3Ztu1pb/3p6DqkBNA/elQCaGv27FzbsHBlmhDCGKO7/DuZL/ympPOliBigWhrcn71bf9l3MyVJCEksvnFE0SHb6b0RTiLYhyWAgEc2YCWAaF6tIUkOzqvPsgQgQlIKSZIm5866ddk9EzKnSgGZv1f2ttibtp1av+XERwfLdtpdbV7ZK4RQzDZBW1LoeHqpBBC4TrvbVtVcVtVc9snRdy2muDmjFl40eeXErJkxhvbPjY160+y8C6Zmn7P28Buv7nza5mqjBNADZ5HMd68EIOmkmUuTVt6eE2Np3/xcTnnTa7Wb36x32tu/b6/4UcD+KQHIQrZbvZv+01hyyH7ZzSNSsw1CCL1ROvfqREuSfs1fG1zO/i4BdOP1A3oL+T96JDC0dbsEEJekn7EoeckNaSNyYgI793rkikL7p2/X7dvQ5Gk/2D9sMh88qtBJY2BKAJKQvB65/LjzrT/UZhaYzrsmYdzcWP+8GBuvm3tF/MyL4g5tsu1aba0rc8leSgBhhDysPi8BRHwie14CcFcdchxaZZ77LSGELiHLPPc7rR/9SvKdlXhIlAA0Su5WWFMtAWx6o2bG4qTEEUYhxKT5CXMvSd6xplGRqYswAWrbew3TFyXmTTILIQxG6Yb/zX7u7pLaMmf/lwB8BzoN+FEA0b+CQ063SwAi+Gky6I2Xz7jxB0v/N/BweqfbcaLq0JqDb205vrbV0SyECDyyP7i3gSkB+F50WfZaHS2bT6zecvLD/BHjlk9aecG4L6RY0nxLmQyxV8746uTsOU9tuLek/kTflQC0Sg6+2EdfBJB0Yu4Xkq+9I0fq+Ainpd696omKw9ta2meizsYDUwIQXqlwv/2lX1Wu+GFawfRYIYQkiRkXxsXG6f77eL3viwn9WAIABozywDDgbMmdUSzwx4zkgH8iaGINPl4/b6L55j+OvfaO3MDk3+uViw5ZX3/0zF/vLNy9rtHjlv0dyAH/BaRfoaMKWm2EVoHDkQMWVCwrB69F8btNgeliuFZVRc53H6t/+d7aAxvabK1e/+3GGGnWxZavPjBiwXUJqp3Lii6DHpLsv6LhfRef0AcoB2ahstpFOczCqh12PrUqyW2Ua1dddbi127b9VXa0+q7GzrhRF58lB+6adtGhUFa+ZJWFO/5KwU+F8rEENO/YAQu/dq1vaEJ0K6wpXx9ZNNa6Nr1Z6yvp6PTSxV/PzBkTExoMO/oLeku7nd5Vj1fYWtoLnwkphq/8amRGQUzEVupRVhG9ogxrUbbqXsyMrtWwCGs+QYewKeO//0/oZue/R9brDF89/9Zbl9/jT/5l2bunZNt9q26767VvrT7wRnvyH7KC0Nmmc02q4wndKiLMqR2XVOetgF6C3knFdSf+8enD97z9zVV7nm+y1fvvGps+5a4vPDoufWrIO1GlJ8W9apNox1JBj1ZolRz2VQ0MKIrXTnlsZYRWQhLTFyWtuCXbn/zXljn/dW/J4c9augpQipjW8Te4lWIR9f0ixR0q7yZZyKK5zvP672sObrT67xw/z3zxt5P9PxbYm2FNuckPo7CGwYzP/9EzsrK6ebZHAcy9OCWroPMMMbJXFB2ybn6z9viuVpfTlySrVZxDVhxmaJFbBS4id9aVoy79Bq4roL+wrWRZrjjleP8JZ1qecc6l8VMXm/3HAsRYdOdfF7/19Rb/kt07CkDbQj+77rujALq9dtVVq67dVXXIcfzD2OnXCyF0iTnm2V+1bvpD+wEIUXU4kEcBaPnwxe6GNeVRAF7p8w/qJ5+bOHZmnBAiKc14ze25L/ymuLXRrf5BWvCKK4sc7z9bdfVtWcYYnRAiPc/0pZ/lvPaHispT9v4/CiBCq344CkCrgU2Rh3f7KAAhxEVTrrpx/nf0HWeaqbfW/GvL458cec9/Pr8Ix7ANnqMAAvuvbC59Yduf1x19e+Wsby+ZcIXvJwazEvN+sPjX979/c7O9oY+OAtAslfdjb34RYOK8hGtuz/EFKyHEmZP21/5QVl3c8YX/LgJU0MfiOp1IyTSm55myRseMyDUlpBoCfz7Q65GtjZ76SldNqbOuzF1d4rS1es7qKABJlhxt3g/+Uud2yTOXx0uSkCQxbWmcrdW74aWmfjsdIDCAyP/RYz0rAegNnWG05Gjbxy9Xn9zT6nLIwtdCrVXnOjtWHDweOWh/KXyrnpcAgp+GaFt5ZbmmxLX2uYYd77XMuyphxoUW39lo9AYpKH3rVglAs3vKHTRVApBl68Y/+PJ/IYT5vJvbPn1CdttlaaiUALSrl0oAdqvn3afPfP/hMXFJBiFE/hTLdT/KffnBUpfD23VYk+W965uS0o3Lv5Lm+xmUjFExX7t35KrHK0/sbB1WJQDtbm1hY9FZlQBS4zO+ccHtJr1JCCELeW/x539a86vyplJf/2pJr3IFg7MEIIQobyx+ZuNvtxV+fMuSX/t+v3B02sTLp930n51Pq2Wryp4oAQRRK671SgkgqyB25R25/iy9qtjx4m9LGqtdvqvRBSghCTl3vHnaooTxc+KSM4ymWEnx80+h3C7ZYfWWn3Ic+9x6dJvV2thxZGUUJQCnXV77XL2kEzMujJckodOJeVfEN1a5d33Y2jH99m0JIPJDA/oUx/+jN3TESv/1bnwRwOuRn7j95JFtzS6Ht8tWnesM7KLjduWhZWFaBSRtyuFEf/RX8KqjbSULWfaI+gr3mv9n77zjLKnKvP+cCjfnzjlMp5npmZ6cZxiGnBFJCoiKIoK6uivi7r776qr77rq6YlhMIAqiZBQQEBjCwGQmx57UOdxON6eK5/2jbqhbN/TtvndCN/X7iFN9q06oU6eeep5vnXPqt+6D7wTTZBKtkjJV2sxlf85aN1muczYRIJ/S0xadWjo/cpzpfF3aJkxl+uX3SElmxESAWa7pmjXF9Rnqirz4s0FpfWkAmLfacse/1Gr1xKRmDQOIAn7/mfHNT40LseTWYuqu71Zv/FQxrSUym7X0VlZhh6YwqDWHVFOwftOaCDBbldI48m2F/Y//o+x2S+vXlFmrpO1dZ7b821/uH/T0ybpHavumKeDCmwgQ3RCxsLf3g++99uUwF31Wbmi5mkJU0l2odAOSn5AZO3BS5T4Wr2SVd1YBJgLozeTtD9XYYqv9jw0wT3631zPC5m6gjDZy1XX2rz7ScN/Ddes/6Shv0OqMxKTBPwBQNDLayOalhmvvL/n6Y3U3P1Rav0BH0bHIO9MZxHayEfz6r12H3ovOwiNIdMndtrp2bdJhsvrmZdZSHiiTnp0qVWdPavyvKi9liEIhd19Zkd+UUuHk/0vOSJYyc6os7so5QABpsklxiqaOAD4WOtcIQOFc5lZ62qJTDhaDH/4UC6z0l37Vl5D0BSwVAZw/5W/WFNfn8Ifed58eFYXoz3NXmm/5ZrXRSk1q1iT3fMuz468/NsIx0VdbBAGX3Fl853eqq1p0KKmPZPOwE6eWMRbK6s7mkOpsIoBZKpy2ceTbCvsf/yep27WWL5D+FLHw+Ac/CbPB5KPSPjbSFHDBIgAA6Js49e7xl6XtUnOVxeCI5aG4E9PkpNibDQHAbBXOej+mbKY2agYEQJDo2nsrKhqjszhDPuHp/+ofH2LT5JfOQBmt5LqbHPf/tP66L5eV1WtTh2CwEdE3zo8PsGMD7PgAOz7Auoa5oEeQRunLRWnQ/LWmz3y/8tZ/Lmvs0BMkSulOafqawOG3HnN3H4rEM7nqPofJQSQdJmuIgiIAVarOm9Tx/6ryFU4/Fh0gxxGzKfnlPn0gUWY6e5oytCw11XmeCBD9ISW9YmjklCYCpG/U2aizPhFAWV7qwPvJS09btOJgfnAf171V07QJAEhbnXb+DZF9f5SSXNATAWa18jVrKRMB3n1mVKMlNtxcTJAIELSvtepN5IsPD7qcbC4TAXa86va7+KvvLZNesiEEcxYZPvuDmr1verf+xRVwC6mpZt1HAWev0jTO1CYCaChdcoaKodyxQmbyRAAAIIhEVKYhtYqmkJ9sak6KvRlaI70vMWuU4c7C+UwEWLjBuvgSm/QTz+GXHxkaPBVWpEpr1kgS2tdZNt5WnBr2R4LC4Clm4ES4/0TEO8aF/aK0Mr/0QCJIQmckjFaytFZT1aKrbtWV1mrigwUQAc3LDPUL9J07g1uedk8Mc5N6U0xYfO2XE3d8p8xeQQGAo4K65G7bq79wiXxyuxXErKXr8qpUnXup8b+qAui8I4CUJ3baYL7wCCC5ztNxZ9NH7HkhgNkpDMqIF3IOwpM2c0cAsj10zWLjmnsVVUrtvpgLRY78FTN+eUGTIgDMR0I7f003rEckDQRpWPkl5tgrOOKVkqgI4HypsAhA4MQ3n3QCgg03FxMEQgiaFpnu+X/1L/xksPtIcPLlADE+ss0/1s9e/0B5Q7tBqojeRK67ydG+3vzhi679m31sRDxnCEAyXOdsLYDpXL+ZICzbygcB+MJuaReByM+u//oPXvkGw4VnGQKocczZ2Hpd/BBe5FKbohAIYJYq8VTMhABgGh8FtJdqrvp8eXwVp21/HT+4xZs2lcKs6Y3k9Q+Ut6+zRMfqx47qOx7ev9l7am8w6OH5WPiN5P8iQCCGfMg1zPV3Rva97dMaCEeFpuNic/sGs9keXYCA1qIFF5nqF+g3/2Hi0PuBSdcC8Izwb/zWdfNDJRodAoC21YYz+yKHtwTPilmLdflcr50qVWdBavyvKj+ls4ZT8pXTZTZ5KsVDJUvNzioCUBaZ9xutzM2YMwKYvQ8VDAgpu8w5GgWga71M13pZLnWMtF7ufvpukL75ljMCYE+/ww/soetWAwBVvkDTdClz5MV4vS9cBDBblbdZS3vT8qz4xuNOLOINN5dIHnNxlfYL/9Xw98edO1518RyOp8qEAEZ6I7//P31rb3RsvK04+ukQBLZS+tr7ytbf5Nj2svvQ+76QTwB8LhBAllQFRwCzWPJ7edoIYNgzEN+1pmnTf93y2C82f7977CSOPRJmNAIgCaqjeuVXNn1PTxulnSzPeEKutE2hIoCMmvx+xFNCACSFrvhsub1MI/3cdSi4+U+joogzpYp2EQTVzbpbH6wqqUlMs+c5fGpv8MMXJ/o7w2L0m6eAAGSWEJL7SaJbMSFx+Exk+Azz/tOu9g3mNTfYHJW0VJTZQd7wDyU1c3Wbn3QxITG7N9V1ILzjL94Nt9sQApJCG2639h6J+CaEs4cAVKk6j1Ln/6vKS1gGMeVbSX8qZkUlRalKz04euExrBQF5JvKjcepPiZqm1l6ZCsv2yE8tpei857VmbsakzBXZfExYMoY0IxzO0loAmAtHw/gpCGlbL9PUrkotMm3R8dIxz4R2/hpEDgCAIA1rHkAakzyTC3ctgNmo/M1apptWFMTXf+d85VdDkVDUyaVodM29FXf939qyOq3cD08qU1Ywz4pbnpv4zTd7ju/0x9cURAhsZfQ195Y+8Iv6y+4uKWvQkpS89gp7KTNrSXdHRgN1/tcCmNXK2LjJt2SWtQBGfIPyXQtrlv/kU3+8Z8M3yiwVsqNkhSi30hRwIawFQBBEU2n7Vy7+7revethuKI7vGfUPifEwMbkpFCebqI+8pIwdeNZK4XBlvh+nsBxg40Jjx0VW6YeQX3jtsWEmJGRPhQiYv8byuR/UxYN/jGHwdOSpf+9/6nv9PUdCAo+Tr2dKxRO1V1hbHAmKe97w/vaf+j94zh3yR7sHQaJlV1lufajMWkJN6k3tftU/0Cl9sBBsZdTK6y0o+UV9Ic3aLO5tqmaC1PhfVb4qJAJQ+AfTQwA4pR5KrzcpVaqHnSFVro6pigDOihKneY4QgOAZCB99baoIAGmM+uV3A5INrVL0quSi46Uzx1/jR45Lv9DVyzSNG5IPggsNAcxunT0EAIB3vDrxpx/0jQ9Gl8hCCNpWmL/4w4b1nyymdQQkZ5DWQDm7maf/3+Az/znYdzwsz91SRG24xfHFH9Xe8X+rFl9qsRZTqc6migAuJKU8BaeFAEZ9w2KypTLrrJ9a9aWf3/HMlzZ+q6l0LoEI+cP1wkcAZp1tffNVD1358PdueHRj63U0mXhXDAATAaeIxeTi4v8o7kRZfeQlZezAs1ZTuR9TNlMalaLRJXeUURpCOmjHKxN9x0PZUyEESy6x3fLNKoMlOkqfDYtbnhv/3T/3ntwbiBeq9NamggAAIBIU3/vTxB//bbjncMI2Ni7S3/JQmbV4EgTAhMR3n3TzbPT3jkuMxdU0JPcL1aypmh1Sx/+rKoBwtunok42YVeaVPEowx3G2MmP6ia9XsGEREHjH+N//a2+0HgAYw60PVlQ16+NHHt3m3/zH8XhNEUJf/VW9vC5vPzHRuTMQr05Vq/bGfyiN70WAzA4yfYNMeyJAusOmNBEgbX1miRKNcy4mAogc43r6S6StMspJY0cmwmVZcYTB7rjjCdJSAQD6+dcGt/2KGzo4peUAgY+Edv3GcuMjAACI0K9+gDn5FsQXIALpSl9AEwFmdVcDyNOsZZ0IgDHu/Mg/8X+6r7+vsnWFOTpU1U5dfU/5gvWWd54aO7nHj3Eig1h7J81U4jk4tsN/5kCwdYVpw81FlU2JFeC0eqJ5qbFpidHv4nuPhk/sDp45EAx6hJk7EWBKF26GKekqS79MeSJAkPF7Q267sUiRd7G5/NYV91zTcVvn8KEPTr65/dRmd3D8Qp4IoCG1C2tWLm/YuLRufZGxhEDpn7BOX7+IBYja7aSmSLoLFVYxt4kAs1i53Y8YclgOsGWJqXFBdJCay8lueWEUALKnWrzJduNXKmhtFHF6x7m//mL45EcBUQTINlMpUZukrpR8MknlYRg6E3nmP5wbP+1YeZ1VqlJVs/bWfy575j+cfpeQxZvq72QObwkuvswEAFoDseaT1pcfHlf6YKpZUzXzpcb/qgqjafvK6fKaHgKIKv4RWopGSU8LAFsZXVKjiR9pdlAKD1u+FwB0RkJeHVqLFAcoWyBnu59paavcmjEbApjlOscIgAni0VNJOSoogKy48P5nTRd9HQCQzmJcdY/nL1/HWJwSAgjvf9q44ZukowEANA3r6ZoVXO92xelfQAjgY6CzhwAA8NgA88fv96661nH53eVaPQEAiIDaNsNd36k9tS+w+cnRoa4wFidZrIQJi4e2+Dp3Bho7jGs/Ya+bb4ivp4UQWIqoBRvM7evMHCP2n4ic3hs8cyA0McjxPMbiTPoiwGxV9DbKGwGE2ZAnNCHF//6Id+eZ99e3XK6jo7DbqDUtrV+zpH71A5v+pWvsxL6e7Qf6d50ZPR7hwizPxIo7PwiAImgtrauw1S6oWtZetWxexVK9xkigpKGpGOPxgPO4c/+G5qulX2TzHVKWpIe8EcCsVqEQAEEil5N1lGsQgnf+NBIOSOPtM6aa02G68SuV8eB/bIB96vt9o73SYPs0i5XEq6GoTY4IAADCQeGt3417RrnLPlskrbdS2aS94Wulz//3SLa1ADD+8FnvvLUGaYGVeWv1W5+jJwa5s4EAVKk6j1Ljf1UFU/4IID3+zZAq0yKCKXVSRkkpxyQeGmnSJ1Unq6aIfmWv7FUEMBWdWwSgzFBeOmB52sCORw0rPkforQCg7/hkYMvP+IkzU/soIM+Fdv7afPUPAQAQYVj/j57enQiSJyCoCODc6qwiAJYRP3xp/NT+wLX3VszpMElOKkWjuSvNLUtNhz7wbv/rxFBXROBlZaYgAABgGfHER/4THwXK6rVLL7POW222llDyD2Jp9MScRYY5iwwA4Hfx/ccjfcfDg6cYt5OLBESOxfkjAKlDnL1RALNV6WMXmBoCCLMhb+wTAIIo/G7Lw3/Z+9SNS+5YNWejRR/9NhsCpKG0bRUL2yoWfnr1fWE22O/q7h4/2TdxpnvspNM7GGT9QcYXIwJnBQEgQDpab9KaLXp7fXHrnNK5dY7mhuIWi96etnFELAx7+t469tI7nX+9qOWaePw/7O2XN2EBEUDaaswyFQQBHN7mPbXPv3iTvWmRaf977kTe6VKV1mhv+WZ1dMlSgKHTkSe/1+cZ5aQ/036yRBo7n88oAAAQRLzrFS8Txld9sVha2H/OIv1ldzveeHRC4DN6U74Jbt9bgdU3WkBaPuAa05u/dafxwVSzpmomS43/VeWlKX2aPoOvnJxf8oMjZwSQ0HB3JOwXAMA/wSvqMXQ6Il9admyAUTw0ug+FEhkhCLgFuXsWCQo9h8Py6la36eRfr5kmAkht1XwQwCwVThflXlAIQHD3h/b+2bTuywCAtGbj2i97X/lmptIzRezh/c8aVt0XHQIw52K6ZjnXt0sZh18oCGC2ChfCrOWKADBGzu7IE9/p7dho3XhraWltdJ4zSaHFm2wL1llP7vHvet3dfTjEMqmf94P4pZPs5UgP8/qjo+89M9G4wDBvjblhgcFSTCkuotlBzVtrmrfWhDEEvYJ7mBsbYEd62LE+1u8SQl4h5Bcwng4CULRPIRHAbJX8Js4DAfAiP+odkra1lM5mcBwfOnh86GB9SdPa5ktXz9nYXDZfQyVNoddrjC3l7S3l7dKfDB9xByc8oQlXcGzY0z/mHx7xDfkjngDjD7PBEBuIcGFOYBL1zooAECKMGpNeYzBojUatxaq3l5orK6w1ZdbqYlOZzVBkNxRlGtsvyROeODF8cMup1w8N7ApEvABQbqmO7x31DymQRKEQwCzW1KclYgD5DAslAoiExZ2vTex8bQIAILn55SZPYyCv+3KlvTQ6MHN8kH3mh/2eEVZKBXFTmhLMAwBJI42O0BmiXQUBiBjYMGbCIhYwpEuluI1EjA9s9mn16LK7i0gaAYJFl5qHTjH7NvszeVMYw763/B2bjNI6BW2rDNtf8PldQuERgCpV509q/K8qX+XtK6fkNx0EkNAbjzlP7g1K27GQJlrw337tjB+NECScBClvQL/75/5EKpC9zAIEAEOnmd//y0AiB0DfeLzOWpJ8E51vBDC7HyoXOAII7njUuPKziNYDgH7Jbf53/1sMjGYqPW3RYsgV3vOk6fLvAACitIaV93r7d2OML0AEMLuVp1lrWWI6dSCAxVwRAMeKe95yd+72r76+eO31RfH1sSgNmrfG0rLc7OyO7HnLc2yHzzfBT/rV0rBfOLrdf2yH31JEV7XoWpYZGxcYiqqUc5cQApONNNnImrk6KXkkKEaCQsgrekY5zyjvGeUDLiHkE0I+IRIUQ77EGnNZEUD68DUvX3kWKxH95IUAnLEh8Vpa5zCVSNs9Y6d7x0+/tOeJClvNisYNS+vWtFUuNGktqbXQUrpya1W5tUr+Iy9wDB/hBJblWV5keYH3ht2cwALAeMCJcfwRCQBg0lr0tAEQOIwlJEHRpIYmNRpKqyG1CvSQRaP+oSODe/b3bT0+fMAVHBNEIV5EmTUa/4fYgC/sBqV1KhQCmM1P0OmtTDTpWgDKrGUIACFYda2jeXF0pYCQX3jxp4MjfUya/AADIJONqmjQljfoyuq09nKN0UJSWqTREvLKcIzIMdjv4t1OztnDjPayzm6GCYsZEYCIP3rNZyulpbUASAptvMPRcyTiGuaSDJTsDNxO7sSu0OLLzABgtJFNy/X73wxAoqKqWVM146XG/6oKoIIhgHS+ck4IQPHIzrpulsJXTi0251SJUvE00G/s2IytOi0EMOt1ISMAfqIrfPBFw7I7AYDQWU1r7/O9+b0spacrGocPPqtfcQ9pqwYAbetVdMUibmh/mjj8fCOAWa98zNoVd1dYisb3vO2W+ciTIACEIODhN//Rufct95rri1ZcZdcZYxSARtUt+qpm/WV3lXTuDuzb7Ok+HMJiSj0UBgqDb5zzjXOdOwMaPeEoo5uWGhvaDTVzdTojmXpNEQK9idCbCHsZVLXEvs4lgiBgkceCACKPmbDIBMWQX+RYzLM47BPkGWARIwKBvOshCHrFXS/7pSW1p+0rT+W6zUAVAgEMunqlXwhElFkq5V0iwoW7x052j5188aM/6DXGptK2eVWL51UtbiqdazU4KIJSzLePiyJpiqTP0kkDgCDygigMefvOjB49MXL42OC+Uf8gI0Rw4ossiburzBxlE+7QeIQLx05fHQUwNU1rFMDkywEqs46lKq7SbrqtVOpfooj//ntn1+GAIhUgpDMSHRutC9dbKxp1WgMhzYTKrvKGqI3iWRwJir3HQkc+DJz8KMgxGFJuI54X33lyoqpZK7FOs4O87LOOZ/9zRMkoY2eARTj0XnDBRSZKgxCC+esMB98JRFfjLRwCmPQcVak6e1Ljf1WF0bR95eSQJL2vPCkCSFuhc4AAlGXmPQFMQYVVBJAQzhblXigIAMTAh4/oF34CaYwAoF92V3D7bwW/M0vpqUULnv7wvqdMmx4CQEhn0a+4h3v5a4BFFQGce03brFEa4vYH6wgS7XnbLQo4dwSAMbiczN9+O/zBC+Nrb3AsvdxuttOS94wQGK3U0stsSy+zeUa5g+97j273jw+w4aCQ3axhETMhcbibGe5mtr7gIimcFhoYAAAgAElEQVSitFZT3aavadWVN2otRZRGR9Da9AYEEUARCGKznIy2bGO202piiN/zup9nZW04dV95tiph1fJGACO+IREL0qD6antd2qcpL/L+iPdA364DfbsAIYRQqbmioaSlrmhObfGcGntDkalUR+t1tF5L6VAGKDA9CaLA8OEIFw6xgVHf0IC7u3fidJ/r9ICrK8D4EuPxJClWDMSg0xiteoe00x0cj/CJmXoFRgAfAxV8IkBGBIDQVfeU681Ro3F0u2/X31wASal0BmLNjcUbbinWGabZ3ygNMmnI+WvN89eavWPce392HXzPL/BYcRuxjPjyz0e/8ONqaV3ntlXGxkX6rgPhTAhg6DQz1sdWNGkBoHyOpqiKHu1lM/pgqllTNdOkxv+q8lL2sei5+MopGU4HAShyAFmqRJkzAgGkplIRgFwXPALgR09Gjv9d3/FJACBNpYZld/rf+3H20lOLDu//s2HF5wlTKQBo599AbX+EHz2e9nTOMwKYpSqIWSNIdMs3aktrde8+PRLyC7kjAGnb5+L+/vuRbS9PLNxgXXKpvaJRJ38nZiulL7q1eP3NxRND7Km9gVP7As5uxjfOS0uhZDdrAi8OdzHDXcxHbwACMDsoWxldVKkprqJL67TWYkpvJnRGUmsgCnPFMQBWfeVsKggC8IRcQSZg1lkBoNJeG8s3tdtF73+EMQYY8Q2N+IZ2nXlfylhL6+0Gh01fZNHbHabiIlOpRWezGRwWvU1D6YxaEwKCIqn4lwUUkuYLYIxDbIAVWF/Y5Q65vKEJV3DMHRr3hl2ekMsbdonSMjyx+qR5psqbAjAAchhK4pMI3KExjmcBgewmLRgCmL1SPMimMREATxUBVDfp5q2KTjYJ+vjXH3MqLofZQd36YHXzElNqdTlGDHqFSFBgQqLfI2AxWn+SQiYbpdUTejNptJKKkQLWEvrGfyirbtW9/tsxnlUigPFBdusL7ks+U4QQAIKL73D0HR3iOZwWAfAsPr49JMX/Wj1RO1872stm88FUs6ZqRkmN/1Xlq7x95eTMMq+blQUBKEZSyR9FZxkByIqcot1PPC3SNKiKADLrwkYAWOAC236ja7sCaU2AkGH5XaG9Twk+Z/bSFUULru7wweeMa78CAITerl/2Of8bDwHGaU9HRQAFVrQhC2DWSApdfEtZ/TzjK78e7O8MKe1LatYpHrbfxW/768Set9x184zLLrc3LzHFlwYAAIKAkmpNSbVj9fUO3zjn7GFO7w/2d4ZHe5lISMzRrPldvN8l9B+PSHnSWqQ3UToToTMQ1hLaUkSZHKTZQemMhM5AaA0ERSOdiUAIaG3GUQNpWzX/tQBmsfJHAN6wJxSL/4tMZTSl5XgmEwJQpI8fxXBhp3dwJLaUICQ/pHUaA4EIEpFSKJ6cGwIEgshzPIsBM1w4apbkR6DkoxXWJisCKDKVasho/O+UFv9XxmwqAsgqrLRO52AtgItuLY3H51tfGncNMxB9UAJgQATecEtxfGkAABBFGOmN9B0LdR0OjfezQa8QDgpcRIxnHCsaafSE0UyaHVRZnbZ+gaGqRVdSnVjfZMlllv7OyP7NPmUtMex9y7dgo7msTgMA5Y2a+oX603tDqWcqnUH34QjHYMnKNXbo9/3dL4pZfTDVrKmaOVLjf1X5abIo9FwhAGUm6R9ShUYAydW+IBDAx2JS2YWNANi+j5jubbq2KwCAdNRr510b2vnYpKUrig7v/p1hxT3SUoK6RbcFtz4s+oYznY6KAAqsvM1ayCdNFQVEQOMC030/atr+yvi7z4yE/cJUEQACYELiyb3+0wcCFgc9d6V54QZr/QIDQSQSIQTWEtpaQrcuN3GMGPQJo71M77Fwf2d46AwT9guTmbVEF+EYzLOc34UAoL8zEn/JigigKIKkECKAohEgIEmCiI/Ylb2MjdYo9pcoABMSla02RV95FsdlybH/9BGAN+QKMP4yAAAw6ywmrdnFM0nBffL9m6aI9NciUViEDUUvbOw7AKkIAGTGJsePAioqkxYBFJlK4ysRjPqHZLkUHgHMWk1lTGLmiQC5rgVQWq9vXWqW/nKPsB+96Y65TNFUGh3RtMgUr0734eDffz/i7GEkc5HoSijphgAAhDAbFtmw6B7l+jvDe9/26oxk/QL9FZ8rKa7SAABBoualhv2bval9POQTdr/mvfbLJQgBRaPFl5lP7wtFrUsKAhg+wwTcgr2cAoCyBlprIMIBUdE4+SCAaV1FVaoKIzX+V5W38vOVM+U4fQSQ/IyRb2YP5rV6NG+N5dS+QNgnYhHnkiq52Omg35SRC5lTTZmkzGpdyAhAFAIf/ELbdBGidADItPa+8MGXcNg1aenyovnx05EDz+iXfw4ACEORYfX9gTf/LcvpqAigwMrPrD35g+5bvl67cINNitJ1BnLT7WXLr3B88OLY7jcmgj4e46khAMAgCtgzxu74m2vX6y6Lg56/1rJgvaWiUac1JC3mR2sJWwlhK6FblpmwlGqEGzrDDHdFxvqYkT425BMEDvM8BlF+knLXXc5Do6eJReBYkWNlcT4SFGZHfhIKIJDWrOVuM2etcPyffBGAIAoj3qE5pW0AYNHbzHqrKziuiHsh+f6VCkdTQQCKvqoIuZU9qXAIoMJaG89wyNsnb8ACI4DZHZQVBgEApSFl0/Xjb+Vl/wEsvcQWn/m//12Pd5yTHYoxIFEEjo19UASgts1w6Z2lJ/cEeo6GxodYgcUCj0UhTbeS+ghJESSFaC0qqdbWLzDMX2MqqkwMAZDehKS9jY5tC6y50VZUSQNAfbuuqIqaGODTto8o4N6jYXu5GQCsJZS1lAr72Ul9MNWsqZoRUuN/VYWQFHRk+JIKZPWV5UGI3COeEgJIU590qQBkj4SUerQsN93yzYqQT+g6GNry/MTw6ci5QQDpM0mb6mONAFDmkPv8IACg9HRRnRj2RIf3y0pnzmxlu7ZrWzYBAFXSom+/Lrj7iVxKlxcd3P5L3eJPI0oLAPrFd4Q+fFgMuWTJVQRwlpUHAgj6uD/+oHvtDSWX3VFudkTfW5rt9DVfqFx3Q8met11733GNDTCikCHrDAhAMmuiiLzj3PaXJ7a/PGEv1zQuNLYsNVW36K3FNKVRBORAUqioSlNUpVmwIfouLuDmPWO8Z5TzjHKeEd47zntGOY4RuQjmGMxzODZvVokAEmedg1nLMZXqK6eL/aeJAPpd3dKfBo3JqrenZJ8GAcT2XOgIoMRcKf0VYgO+kCfJmBUUAcAslczNyh8BwIorHDd/vTbHosMBYf977uSOBgCY53BI9gERkkbNS0zSWgDhoOAZ4bzjXNAr+F28IOCgR8AYEwSyOGiCBJONMhdRliLaXk7TyUZPkmeEU5xMvI+HfMLRrYENt9oBwGAhm5caxwc8yaYqcaa9RyKLLolazqoWzfAZJqeRmKpZU3XBS43/VeUlpWMwDV85Ob/0n/ebDAEk54OzpILMwfziTVYAMFjI+evMu153p/O9UlNlaBAVAZwVIYzxBYIAEK233/Q/hsU3C94h15+/yPZ9lFQ6xoGtj0jxPwAY190f2vs0FtgpIQB+7BRz9BVdxy0AQJhK9Cu+GHz/h9lP51wigNnqKePsjl3OCEAQxQ//Mnpqn++yuyoWrrdTsSX0rSX0JZ8uW3N98ekD/gPveU4dCIS8fJqssyKA+JV3O9m9I9zetz16E1laq62ba6hvN5TWaB0VNEGmtwYmO2WyU9UtOllJwIRE6X8sI7JhMegVeBYH3ALGEA4IbCQBWUUBgh4hOnY12jOU0CG+CQBcBPd3MqKAVQSQVvKnVZ4IwOkdlLYRQuXW6kP9exJFKErKYS0AOJcIQN4asSPkJ1turZY2A4zPH/Gk8zwKgwBmsaZA7gp6Pw6eDo/0MtG8ZQhAFERpUECq9EZS30hWNOrS7s1FLicXq3Oa2+j4jsDq6620jgCAOYv0u1/zCryCVkb/dHax8TxLajXJO1UEoGoGS43/VeWrfH3llPymiQCUtUqTSqdH5Y36nqOh1GDeUkzVzo2uaewaZoe7GAAwF1FGK+XsiuSGAGSvy6aNAHJJlfXxk65JZ5MuFASga95gWHILIjVUUYNl0z+OP3knSItaxw6OnHyP7d2tqVsBAHTZXN2C68MHXsix9Oi/ohDc/kvtvOsQrQNA+qWfCe16NGUewXlDALO7rxUEAWDAzt7I0z/s2fHq+FWfq2xcmFjpSm8iF6yzzV9t9U1wJ/b6j27zdh0ORoLCNBCAtBkOCL3HQn3HQlv/gvQm0lxEVTfrq5p0lXN0pbXa+EDctEIIdEZC+ixWwTUxyP3+IWckiCGzWfuY+8qFQgBO76AgCiRBAkClrUZZhKKk/NYCIAC1VXY0lrSyPHOgb+eY35kXAsBRA6OojLRt0JgsuuhwhhAbCDDe1PqoCCAXnRcEcHSHVxSxvPnjV2d8kIkfFvILehOpfJzlLFHEXARrDQQAiAL2jXPJtjupjzu7GPcIX1qnAYDKZq3BQvhdQlKHip3p+ADHs1gaV1VcTSMksW8VAaia8VLjf1UFkCIcnvJEgJT8poUAkmuUkspeSt/6YHVlk/7J7/Z1HQoqgvmmxca4i3xybzDs53VG8tZvVZbVaV/+X+ex7QGciKcSqXDS4zN5xGzOCCBd3SdLlfnx8zHQBYAAKNq46vOIjM421LZcrK1fzXRtlSfDouDf8rOiu56SCjOt/2rk8MtY4KaEAPihQ+zpd7RzrwEA0lajX/Sp4PZfTrISAZxDBDCrVSgEwHNw+qD/lw+eal5kvujm0jkdJloTjbQJEtlKNSuvKlp+uSMSErsOBo7v9p05GPSOcwInYqwoahIEIO0BEYd8QsgnjPQw+94GkkIESdhKqPIGXWmtprROW1ShcVRoSAoRJBDkOVmFOm3nmgoCmLWsSX7f540Axv0jvMBJ8X+VvS6ll06CAEAWmWVHABa97dvX/HhJ3RoCEQCY4SJPbPv5S/ueBBATpU1jFIDC2sSeqRa93aSNfkZuPODkBOmVbMqYNxUB5KCCIICRvvDO18dj6VJMCIKWpWZ7qQYAOFbsORJMbX7p6kwMJ96uv/vn0c7d/vp2Y1WTvqJBZy+jdSaSIAARCAEgAgABYBCltURFLAoQ8PKuIW60nxk8Gek9Gr7kzuIll1kBgGexd4KPl5WKAEQRdx0MSfG/wUIWV2n8rnDSacbOVBTBM8oXV9MAYC+nEAFYUDbetBHAdK6fKlUFkhr/q8pPqXYNlH9m95VxUmbxVFNDAIoapaaqatLd/lBNaa0WAG77VtXj/9o70svEPSsE0L7WImUqcPjwFh9BoWu/VNawwAAAtzxY+dbjY7tedwt8/Ixj/wdJhU8TAcgymVKqHOZTzFadZwSgqV2ua7s0URtab1z9eaZnJ4i8PFnk1PvswD5NzVIAoCvadfOuDh9+OffSMQAIbHD7rzRNmxCtB0Tol38ufOAZMeRSEcDZVbobMB8EgAAJnNj5kbfzI191i2HlVUXtq63WYg2KvXEnSGQwk+3rrO3rrFiEkb5I3/FQz9HgwMmQz8WH/WIMFOaEAOSMUuCxwAtjA+LYAAtRVx0RJLKVUtZi2lpMWYpoawltdpAmG2WwkjSNCApRNCJIRFIIEFB0vowAS0ZOEewpWi2r9ZutkrdM/ghgxDvECqyW1gFAsbmMJjWcwOaOAGJ7JkEAiCD+4bJ/X1a/LpYIaWn9XWu/enLkyOGBPWdjLQCj1mLURudgj/gGkw5REUDuysWvyA0BnDrgP30gEEuEIIkBIK2e+MrDLfZSAAAmJA53hZVZxzqaZ5QVeCx9I9BWSo/1M2MDzEdShgBaPaEzkSY7TZDIbCdpmmAjot/NYwwhrxD0CjwXNQ0IAUES5qJoRMNx2O/i0/WTRLfqOx5ZdX20NuWNmu5D4TSuLAaMsTcW/1uKkiKm/BGAKlXnUWr8ryov5WoBM/vKaTLMEwHIo2lAGKB1qem2B2tM9mhvN9moOYuM0oQ0qab2Mk1VbDbs2CDr7I6Y7VRjh0H6haLRlV8osZfTbz85xkZw4vzSncD0EECaFpg2Apgh2nvoeP+Qc+G8loaaypzCC+XD8jwiAGS56CuISDKe+rlX0JULuIH98vpgJhDY9hvHbb8CRCKSNq69L9L5JuYiuZeOAdieHVz/R5rGDQBAlbRo264O73tq8u8RwNlHADNEHMe9/urrza0tc5oatNqcJpTmb9Yyp8IDJ0ODp0JvP+VsWWLuuMheP89osiX1JURAeb2uvF634iqHwGP3CDs2wDh7mMGToQkn65vgA24e8BQQQEo8hUUBXMOca5iLJoxlgAC0BpLWEloDQWuQRkcAAp2BRETiEIIEk5VCsrkCCcuTch8jQJGQyDFYYb2mjABmr5K7TV4IwBNyhdigWWcBgCJTqZbScgI7pVEAsYOyIYAaR+PiutWKs9DThsvbbzoyuA9jseAIoMhYSscGWw15+mTnfhYQwOxW4RBAlo8C0lrCVhpd9NTZE+E4jFKzBgyAwgExEhSMVgoAiio08cyk/5iwyIRF7xhXMUe/eFORtZge7opsfmos4OZjRidxlWktxA1pJCAEvQKk7yfR35zdiakHRVWaTN4UxuB3Jz7marAQAXfimwX5IgBVqs6f1PhfVb4qJAJI8ZVzRQDJucT3ESQsv8Jx9RfK9abo2H6ew68/6tz5N5fcxalvN8SfHKf3BSIhIRISn/zuwC0PVpbXawGAINGq6+zWEuqVR0YCnvhzRVmu3MNWEUB2hSPM3oPH9hw8ZtDrFrW3BoPh7MfHuYtM5wcBaCrn6eZeFtshAiIAAGlN5nVfnnj2ywgLsuwg0vkWN3KSLp8LAJqapZqGtczJd6ZUOhbY4Lb/1dStBpIGRBjX3B85+lfMBM4/ApgpwjA4ODQ0OLTl/Q9qa6pb2lobGuopepJn31lFABgjv4vbu9m1/123rVTTMN80f42lod1kLaYV1SApVFylLa7Szl0JAMBGxJBP8Lu5iSF2rJ8ZH2Q945x3jPO7eEF6FZYzAkgOLxOpmJDAhMSAOx7WJ85OGjsQ3YYkYyNHAAorVLAvAsxeFRABDLn7yiwVAFBsLtVQOmD8kKaXZkMAaYpIvhal5go9bZQO3t+7o76kxW4oAoCVDRctrl21v29HslkuAAIos0QX/xexOOYfSmqKQiOAmQM2p6wp+BXT+ihgPJFWTxgsUQM7MRR/0ZKSNeCQnw/5o/G/tUSDSIQFrPD1dEby5n+sqmrSAUBtm95sp57+zwGew4puRWsJiyPq5rlHuJR7RIkA3E4u9vQGWxmFCMBieuvNhBIBP0Wjadn8j6NZU3WBS43/VRVAefnKKXkVCAEgWoMuvbNsw80l8ZW3Qz7hhYcHju3wR2McjAEhgkTzVpuljHgOH98ljWrDw12RJ/6t/xNfr2hZagQARMDc1WZrCf3cD4cmhjlIipOSa39eEUDa3C5MESQhCGIoHNm597Aoiqd6+ufNn9s6t9Vut6c9Xu6JxnQeEIDlkn9CZDRO83/4a+PKzxBaEwDoOz5Bv/M/3OgJeYZi0B3c8Zjtxh8BIhClM629n+3ainlmSqVHTrzFjR6nKxYCAFXRrp1zceTYq8qDM2SoIgBJGABEsa+vv6+3nyCI6prqtrmtDY31BJlxYbyzjQAQAlHELifjcrL733Nr9URFg65thWVOh7mqSU9rCJSyHp9GR2h0hK2Urmk1AADGIPCY57DAiX4X7x7hPGOcd5zzu3jvOB/08kEPH/KJMesYNQ8YT4IAksGB3HVPNms5BPOK9pk2Ash4XS8wvbVlB8bQMa+5vLR4SgkLhQAG3b2L61YCgEFjshuLXMGx6M7CrQXgj/g4gSUJPQAsrFlOoOgdZDU4vv+JX+/r3f78nsePDe0XRC5RWn4IoMIa/dQcyzMTgdH4CZwNBDDJdZrhOpsIQEoFCIHJRsWb1zXCKhtXlnUkIIQDUWKuNxEGMxHwCAoiU1SpqZoTG7eFoG2V+Ys/qt/xsuvwhz5BwPFqafSEwRqNaFzDHFZ0YIDkfoJFAQIe3uygAEBvIqXHXlrrHfIl4n+jnXSP8IVCAFO7eKpUFVRq/K+qMMpoAUHxGFbazTQ2cHoIIFkEAZ/4atXyKx3xX0b7mGd+2D94WnrPnAAHtmK6YUH0bYZnhOs7ForbZ+849+cfDFz9xbJlV1ilhbKqmnVf/FHtY9/qGx9SfrdGERzljgCSMpneQ3fGIgBJoigCQCQSObD/4L69+602a0tLc0tbq9VqURx53hGAprxNNy/68l/wj/ne+wUWOMvF/wAAiNKYLnrA/fzXFBmG9j1r2vAAVdQIALqWi+nqpWzP9qmVLgrB935k+/STAAgAGS9+KHL8dWkZovOIAGaipFn0gij09/f39fZSNN3Q2NDU3FRbX0ukMyTnAAFI26II4aDQfSTYfTQIMKzRkdXN+ob5ptq5hvIGndFCafVE6vf8EAKKRhSNAAijlSpvSDO7AYsQ9PKRkBgOCEGPwHM46OEFAQfcvCgCx+CwXwAAkccBb/SrfrFikChgabgTxH6W1QCl/CSbRQAQbxxBgIBbgESPng4CmCny+gKHjp38cNe+Irt1fuschmUnTxNTQRDAkKc/nmG5tfr0SGci0C3QRIAzY8d7xk+1VSwEADJ5GhRF0isaL1rWsO7o4L6/7vvjgb6dQdYfP7npIQACEWWxj/9xAhsnGmcNAcxQ25ar8kEAjjJtwjqk2QIp09KahCGKBASl1ybLWhSxa5itbTMAgM5IGq1UwMMr+lwoILCsqNHG1kwloLZNX9tWdemdJdtfdR3Z6gu4eIxRUYUmfkFtpbTRQgZ9QhYEAICDXkGK/012EhHRxStTrTfPJrqEtFQBpLmbpoMAVKk6j1Ljf1UFU3oLCKmPYcVH73BSDjn4yqkIAFKy0xqIZVckgn/vGPfEd3vGBtiYw5pwBlqWmwyW6BuM47v80ooy8XqwEfHVXzkRAcuvtEnHmOzUvDXmD56fSInbso+zzfjQVTZj3ghg5koCAV6Pd++efR99tLesrKS5ubm5tVmv18ePOZ8IABHmDV8mYitRBXf/UfA7/VsfNa28izA4AMC46JP+93/Oj52WZyhG/MGdv7de830AAIIyrX/A1bsLZNMEcik90vkGP3KcKpsHAHRlh3bOBub0e2kOzpChigAUknoax3FnTp85eeKkXq9rbmme0zSnorJCceQ5QwBys8ZGhK7Dwe7DQQAgKeSo0BZVairq9eUNuuJKrclOme2URpfT5/oQASY7ZUo/pOZcaGKQ+92DQ5GgmOcogJkjBIAn3N4Pdx3AWOwbHp03f15bW6vBaEg9FCv/zBcBDLp64rlV2Wsh2RoUZCIAyzOPvPsf373hF0Wm0nhODBfR0lErTSByQfXy9qplp0eP/f3IC9tOve0JTUwbAWhpnd0QHUwR4cLu0LjCcBUYAcxapThaU0cA33lm4VRLDQfjn8VNjwCkCQIAoNUTxqgnltTnPKPs1pcmLrq5mKSRPOeiKs1195VvvLX42A7/vs2ekmpNfFfLMuPND1a++JPhgJvPhAAAAcdE24QgpCGkMm8t6YWKvOlkDaoiAFUzWWr8ryovZXnaptmVEQGky3BqCECRCXCs6B5hHeXRR4LJTq24yvHWkyMcg+WuDkmi+Wss8WRHtvpSCsYNC43SFIBY5WG0n4E0xV4QCOC9ztde3DeuzPGCFElmDGCk8GzEOTriHN2+bUd9Q91KgdLIH+DnAwHQJXMM7ddIPwj+kcCupwBjwTsY2PWU5eKvAQDSmswbvuJ+8euKDIM7/2Ba/wBpKQcA3dwr6coF3MCBlJA7W+mYZ4LbHrHe9Ij0g3HDPzFdH4AopDk4Q4YFRwBHmMa3f/ErmOESBAEAwuHIoYOHDx08bLPZWuo7cjJrZxkBxK+hwOOx/sjYAHNitx8ASBIZLJTRRhVXaBoXmhoWGKua9Rms6YWlLBMBZAdlQAAzUBiLAODz+nbv3L1zx66ystLm5qaWthadTjZMAytv1TwRwIAs/q+w1cRqUmAEcHzowD89c9cl865vKZsfZANbTrwx7O1f1bjxmo7b43P1EULNZfObSufdtPSzW068/taRl5zeweSIPV19UhCAltLZDEXSL2P+IVEUEs9URVMUBAHMUmGlCZ8OApiGEKHsYwoE4BqJjpGRPoYKEIzui/U5UcCb/zR6am/AUaGhNWj5lfbKpoTFMzuoldfYl1xqZcKivNyWpcZPfqPi2R8ORYLpRwFkWOghDQLQGhOOChsS87b5M9usqZo1UuN/VflpsrHoOfrKyiyn7CsnZwDAsfiP3+u541/riqu0AEBSaP0ni20l9Es/HwoHhLirY7RS8cH/E8Ns34lQwp3AAAQsvsR2zb1lBnNi+cC3nxg7sTuoeF2QCKqmhwBSG2G6CGB+5ZKq+TPAjek83XO481Tm/YggQMRQUVHe2tY6p6kRvfp2dNGF84UAAJlW3EmYom+iwodf4ye6AQMADu552rTqbkJvBQDDguv8W37Bj5+RZyhGfKGPnjJf8k0AQCRtWnuf+9n70oXcmUvHEDn6inHtA9EhAHUrNXVr2O4PM1Q1fYaFRQA19MgVV14OF7wEXti8+Z0sBxAEIYqiwWBom9va3NrMTGgBHy6IWSsUApCOKq7WldXpyuu1JdW68gad2U7RWoLWpp24cIEqEwLINl5s5vvKEs0cHRkdGxnbvm1HdU11c0tzY2MDrYkuI1JABDDsGYznU+2oA4jewgVHAAPunie2/ZwkKIwxxiIg6Bk79fqh59Y1X37rii9UWGukIhBCVba6T6287/pFd2w/tfkv+5/sHT8tgpg7AtBS+vj7f5vBUW6tcXr7zx4CmM3KOr7mLCEAs51K7T1yBOAZ5eKfAHRUaNJ+zkTgxK7Dwa7DQQRw4D1v63LTupuKa1oTo/W2FFoAACAASURBVAIlS6gounmpce0n7O/8aRzjNGsBIEBGW9SviwTF2KooILshos2g1SdyjgTFlO6UBwJQper8SY3/VeWtAiKAtO/Gc/GVlVXCgFD/qfBvvnXm9gdrGztMCAFBoI6NNkeF5o/f6/OMcdIjaN4aS3x1wIPve7GYKJOiiYtuLd54e3H8gICHf+UR57Htfozlsb+87tNBABnbdVoIoNRc0d5mypTnhSOPL5A2/icIJIrYZre2zW1ra2sxGKN0JjGP9jwhAMpRb1p5p/SjGPL4Pvh1dAAIBm7kROjAi6bVnwcAwlRsWnW357XvRAcUxjIMbPutceVnCFMpAOgX3uTf8nPeeWxKCEAMeUJ7nrRc/Z+AEKJ0xjX3sz07APNpD86UYQERgBUFdc1z4IIXx3KwOc3vBEFgUaRoTUNjfdvc1qqaaum8hiYCAAUza9NDAIBAqyfNdqq2zVjVpK9pNVTO0esMJKAM651kFhZBFLHAY4xBFDAWQRQwz2Hp+1gBDy/wGADYsBgOJl6gxQuRVsnCOPqbovCkGf+KXbEfwwFBPoE2CwJIpEoJVJ5/7fEspvKCUhakiwEDhr6+vr7evg9oum1uK4GJ2N7CIIAgG3QFxhymEgAot1YjlBimlg8CAEi/HKAg8vJL5gt7Xj/03FtHXlrXcsUNi+9oLpuvobRSm5i0lsvbb7p0/g2H+j/628FnDg7s8ke8uSCAEnMFSUTjtEpb/U9vf+7Vg3964/BzrtCYigCmrPwQwMu/ia4ukdLFUfxfBKA3UpfeUS79YDBT0QwyIADvOMsxIkmRAFBcpYGkq5MmVSQoHHzfe2iLt26+ce2NRc1LjJJhTBVCsPgS6/vPTAg8xpAGAcTf6zAhMfl5nYQA4vNDQYr/U5txugggTaVVqTpXUuN/VYVQHr5ypmymhADSVQkDQu5R7onv9tzwQNWSS+1SkppWw5d+1Pj0D/v7jocQhoUbrNLhooiPbPXGzb9GT1x3X8WyK2zx/MYH2RcfHu49GgJIeveQXP98EYDSaZkWApiJQghhjC1WS2trS3NLs81uSz0mXQx/zhAAmJbfRhijw1DDx97kRk9CPENR9G97zNBxo7QKgGHJbYGdf+DHu+QZCoHRwM4/WC79FgAgWmdad7/7xa8ijKeEAMIHnjesvIcqbgYATdMmTc1ytndHcvJzOwpgBko6dYIg6hvrW9taa+tqCCLDPJRzjgD0JtJRpmlYYGqYb6pu0ZdU63KM9gUes2ExEhLYsBgOiD4X53fzfhcfcPPhgMCExZBP4Dkc8gk8KzIhDCCPU2NBvCzAl/8U+xPJUiWqlZwqqWfIS8hm1hTv/tOZtdVLNplLM36poa+7y2Ex1VSWTdJMZ1879h7qG3Bm2iudNYGI2oba1rbWurraV3p+nPyMSBw8PQSAsTjkGZDi/wpbNUDSzTttBBDbk/6LAIrOzYv8+52vbTv1dnv1shsX39FRu9KgiSJpApGLalctql3V7+p6r/NvH558c8jTK2IxTX1ipZfHZjFIMmrNt6+475K5Nzyx/eFtp9/mRb7gCGCWKw8E8M7Tw/E/FZZAfrNbizUX31omTdcvqtQmMkiHAHwunmOxzggAYC2iSQoEfhIEgAAwhp4jwd5joaJKTcdF1vZ1lorGNKufMmEx3v8VHVhvInWxgf2eMQ5jRbePtQjCJnts+CeLmVBs4Z5CIABVqs6j1PhfVV7KPhY9NwiakuE0Xpcl5RDfwoBQKCg8/5N+7wR30S0lJIkAwF5Gl9dr+46H7OWa6pboELLhrsj4IBtPpdETcxYllmvqOx5+/n8GJwbZ1GBeUez0EED6809zqrMKAWARS0OvTUaDxWycu6C9ta1tkiTnCQEQxmLT2nuiewXO++5PFfXhho+Hj7xuXHEnAJCWcuOKu7xvfC/+6g1jQIBD+54zrfocYSoBAP38q/0f/IIfPYlgCghADIyG9z9rvvRfASGkMeiX3832fwQif14QwAwTQggAIVRbV9vW1lpbX0tRmR5/uABmLWd3EABbizT1802tyy31c40l1TpKM0njMmHRM8r6Jnj3CDMxzE0Msd5xNhIUQ34+EhCjL9sVEbxsM+q2T2KgUn1h+UnKOovCrOUQzCvaJ5dU1RX1xY2J9b0UCvu9VSX2+a3nfzTK8VPdfaCM/5F0/2BcVlbaOretuaVJo4meC1Y0YN4IAAMe9g60Vy8GAJrUlJjLRnxDyS0/fQQgT58dAQAAJ7D7e7cfGtjdWNJ6Rfsn1zVf7jAmvolY42j8zJqv3bD4roP9u949/uqBvh0MH0mLACqsSfG/pBJzxdcv+4+OmlVPbP+pN+xWEUAuynQ/TnUUwKSpOEb0TrCOci0AlNXqsgfzIR8fCQpmu7QOP6XRE2G/IAvV06eKOoIiHh9k3/nz2J63PP/8VIt0tChg6VMpAQ+/+ckxaXyTrGtHMyuti4MJcDs5EStIWvRwQOCoiM7T8YzxcUyQphlVBKBqRkmN/1Xlq/x95TQZThkBJAc8yc4pz+M3/+B0O9lrv1Sp1RPbXp7Y85YbALcuM8XX0D7xUYCJiPFUfhf/zA8HP/eDOp2BOLbd/9LPhoI+IZ2vLC81k6+cmioZAWQ5/zSnOnsQgEarWTi3eeG85rrqytc2f2izWrMdjSHG/c8DAjCt+BRpKpG2w0de44aPy3yA6KX1b33UsOQWRGkBwLjs0/4PfikGxuQZ8uNnQgdeMK37MkhAYdU9nle/LaGB3BFAaM+TxlVfJMxlAKBrvzG47RF++HBK8nOCAGDGiECooqqyta21cU5DPPTKrnOAALQGct4qa8cGe+MCk8lGEUTGmzfkF4a7w87uyNCZ8GhfxDPGRUIiGxZFIX4RkDLQT43gpmygLiwEMBMlDWtyFDnmzm1ramkyGNJ8AgAKigAwFofcvfHk1fb6Ee9Q2o+0x7YLsBYAZEAAACAI/KmRY2dGO5/d9dtL5l1/9cJby2Mf8wMAq96+oeXKNXMucfoGtpx4473Ovw26e5KjcFRuqYr/8fcjz1/cdp2W0gEARdCXzvtEXVHLf73xj2P+4UIhgLQXaNbo3CAAJiyMDzFS/G8roS0OyufiswTzE0NMSbUWAEx2SquT4n95qJ4+lXyPpSgRy+x41b33bY9GizyjvN8lzV1KNmsYA0JVzYnxAsNnGMXJxMvT6klLcTRzj5OT5vAkmyoVAaiakVLjf1UF0HR8Zcjm2E0dASgzUDw4BAHven3C5WTb11pfe2xYIsQdG23SQTyHj+3wKVL1Hgu98JPB6mb9e0+PsREMkMZXzlTs1BBA9vNPOdXsj+q0zXEBanF765plCzMOvU4rLIU25xoBEHqref290R8Fzvf+I8m5RDfZgYPhw68ZFt8EAKSl3LTq877NP0zKUBSDu540LPkUYbABgH7hjYEPH+HdfRhQ7ghA9A2HPnrCtOlbAIA0RsOqe31//RqkmUdwLhDAjBBJU5/5/GcyhV5ZdJYQAEmjqjmG1deWdKy3G8wUSrkDsIg5FnvG2DOHAv2doZ6jQfcIy/NYFKI3QFRJxi/JQigmsaZ60QBAUkCQiCCRwUJaHJTZQZsdlMlKmeykRk9I3xfUm0hEgNFGKb/Ukc1xVe6bGOKe+Jeh1HWzlJXOigCylHehCSNMEIQoiEU2q06nW7V+TVl5+eSpCocABiZ64mkrbNXKLBLFxbfPLgIAjEUQxwMjz+5+9KW9TyytX3ddx+3zq5fq6egtSZF0tb3hjlX3377i3hPOw+8ef3V39xZPaIIXOQREaSz+j3Ch/33n31/a+/vPr39wef16kqAQoJay9u9c98t/++sX3aHxgiCAmWLWpiwc//esIwCBw4Onwy1LLACg0RG1bcYj2z0ZDBQGQBPO6PI+RgulNZIwxsVqnCsCsJfT8eoNnY4Mn4lAtMbyxEkIoGFBdOynwOHhrkjqyUjlldZq4t1jpIfFOLlxUptxKghgsmumStVZlBr/q8pPuTwt0lrA2I7MGU8XAUSzVD44RAwn9/pP7vUDAAAqrdXGJ4w5uyMjvZHUVEe2+o5s9QHEHiQpwXyalpg6AlCedR7cfQY9UIwG/eQHpep8IADTyjsoW9QHDR97k+0/oMgtvund/D/6BdciSgMA5vX3+bc9isMueYbs8LHw0b8Zl8emCaz8rPfN7wPGU0IAoZ2PGtfej7QmANAvujXwwcPiRJeiPvGDU09H0Z55IYCZIAKhKQf/0zZrWRGAzkjOW2lbd33pnA5zKrhkI6JnjD19wH/6QKDnaNAzzsZaGsn+SzJQOGcEQGtJvZk0mMniKk1xtbakWmsvpS3FtNlByVe3PhuiNbJeOF0EMINkNZkWt7ctnNdsNOjf2rLTaDROngYACocAhjwD8YRVjvo0WSSKi28XZjnALAhAKoAT2J1n3t155t05pXMvmXvtmqZLy6zVRIyBkQQ1r3LxvMrFES50ZHDvrq73jgzuLYvF/8Pefgx40NP7n69948r2m+9a8zWT1gIAdUVN92749n///UEMON6T8kAAs1/5IwCtnrCXJcbPJ8fagAB5xhJf9Zu70nJkuyezgcITQ0w8q6IKjbMnIn+u5oIAiisTo7pcEk3IOkzJaCNr2qIeyNgA63fxyf0k0e0rmxOn6exh0jROajNOYfKXKlXnTWr8rypv5YMAFDlNd90spX+Y4cWXPF5rXmzSm6LLupzY42fCYloPe9JgPkuxOSKAlEzyQwCzXucWASCd1bTi09ELyrP+bX8QeT6RYTIC4EY6I51v69uvAQDC6DCt/qzvnYcVQbh/yy8Mi25GtA4ADMvuDGz9tRAYjZaeGwIQ/M7QnieNa+8HAEQbjKu+5HvtoQwRu4oApquCIgCtnuzY4Ljok2U1zQaUPM6fZcTBU6GjO71nDvoHz4S5SHwR/pw+CpgJARAkWIvpogptVZOuYo6+uEpjK6FN9myzDM6msi6pkAsCmCG68uI1ZlM04A+GwlNNXhAE4PQOcgJHkzQAVNlr5PdyoRCAIv2UEICkM6PHu8aOP7/n8YU1Ky5uu7ajZqVBkwAlOtqwrH79svr1QcYfXzvQ6Y1yDV7kXjv0zIhv6KGrfywNIljRuLHaXt/v7lYYLhUByJT0cMkTAbQssXzh+y2pY5fSqnmxxWihgj4eMnhXLicb/72oUpPcVXJCAI7yaPwviuAeZdMG87HEGAA1dhj15mjt+46FmbAYL0uRqr49iglEAQ+dZrK/zZoyAlCl6vxJjf9V5aUpjBnLzQJODwEo8snkK8d9K4pG81ZbpJ+ZkHh0uzd7qkSZymA+tUFUBHBWhBV/nCsEYFx0vaY8uioh07UjcmYbKOJquVMlCv4PfqVru0waAmBacWdgxx/EkFsehHPOzkjn2/oF1wEAaSkzLP2U//2fJUrPDQGEdj9uWP4ZpJGGANwW3PozwTukIoBCqQBmLXbHIwK1LbNc+Zmq+vkmeeyNMQx3hw996D74oXt8gOEYESBaXLrBTTkhAERASbW2ttVQO9dQO9dgcdBGKykthTVVRUIiz4ghnyAKwERENkElAABCXkGU/aAsACX9FnAL0hJc00MAM0vx4D9HpUzcKQACCHOhicBoubUKACpttZB8L5/fiQDyAjAGT2jigxNvbD/1drm1Zk3TpetaLm8unYdkYaVRa45vd9Ss+uerf3JoYPep0aPjfucJ58Edpzdvmns9ANCkprW8o9/VlfRMVRFAsrKMr5neKIAcVVShaVxoOrzVkymYdw0z8a7hKNNIe6aEAIoqovF/wMOzETHF70pCACQJizZZJGssCvjYzkB0jYBYWfFUWj1Z3RodJToxzAXcvKIZ8kUAqlSdP6nxv6p8la+vnJrh9BCAvEaTIQC9iTSYSVHEBIFG+yNDZyLZPezMwbyyTNk/uSOA5HwmbcasCCBtk84G4ZQ/zz4CILQm85rPAkECABZY3we/wVwkengGBBDp2R058Y5+/lUAQBU1GJfe5v/w14og3PfOj/XzrwKCAgDThgeCOx8XI/4pIQB+7HT44AuG5Z8FAMJYZFj1Jf+b38kcsZ8lBDCbVRAEYCmib7i3dvEmB61JhDQ8h4/v9mx5caT3WJBlomF0lsFN2REAIkBnIOYsMrcuNTctNlmLaVpLZL84GAMWMcYQ9gsTw6x3jHOPcH4X7x3nA14+7BcCbgGLgDEWBQAAHP02tlRPAECCgOPbstonSkUyBIAg2UOeIgKYzTZNUsrTJE8EwHARV2Bciv9LLOVaSsfwkbOEAEAWmU0PASAEvMgPuLuf++ixl/b+oaZozvqWy9c3X1FurabJpKU6DRrjuuYr1jVfwYu8iAXAQBJRDxYBokha2XYQv6GmgABmd287LwiAINGa60qO7/byLI66SskTASaG2biFsZdrCAKJIp4SArDF3v/7JzjpAyhZEEB5o7Z+fnRG2Fg/O9AZSpQBIO8n1W1agyU6SnT4NMOEhNgNoSIAVTNeavyvqgC6MBBAco2yBvM+N//T+0/VtOoXbrCND7KxZbSnjACS65y8wEzmVAoEoAxtVQSQQVFIn3AezzoC0M+/XFuzSNrJ9h0Id76XXJ80CADzrG/LL3UtGxGtB0SY1n4htP9FITAmP5gdOhLu3KyfdyUAkOZSw9JPBbb9Nqn0yRAAFsXgjkf1C2+OrgLQcUtox28E39C5RACQ5r6bVcrHrCECtS6x3PHtOfbSRAwTCvAH3ndteXFkuDs6MjweG2chm2kRAK0jbCWalqXm+ausczpM2T8ZyLGYDQt+Fz/ax4z0RcYG2PF+ZmKYZUJivBOkBPMQv77JwTxEe2hWD1uxxEn+XwRQGsnZo+jtVkAEwHCRMb8ToAMANKS2yFQy5OmH5Hu5gBMB5JHZtBGAtMmLXPfYie7xE0/t+GVz2byldWuvaP9kmWz9f0kUQSl8V4YLn3Aektdv2ghg1qsgCGDwTOj5n/XIukFS+8U3N95SXlypBYCmDlPtXGPXwUC8FvJ7PRwUgl7e4qABoGG+ccEGa9fBQMgvCPwkCICikdlOLbrYJn0+EAC84zwXg6ppDRRBolXXOrQGQjriwHu+cFCa+ym7i2KpWleYSCr6Q+euYMxbKxgCyOFyqVJ1tqTG/6oKo2n7ynLHTm5G815GdZJgXhBw77FQ7zEJ/eY0zjbV61UWOX0EMPVmzIwAZreSvM+ziQAISmvdeD9Ig1FFwfv+L0UukjoUPxUBMD27mZ7duuaLAIAunqNvvzqw84mkg0U+8MEvdS2bEKUBQKa194b2PSeGPVNCAJzzeKTz7/qOmwGAtFXrl9wReP/HaZsiTVXTZSglyR0BfBy8l2mbtY03lV/3xRqtPvruiOfwgS2ud58dHjgVhMypJkUABAnFldqWpZbFF9urW/TyYQWKeocCgnuEHe6K9HeGnD0RzyjnGeNkVzDH+U3KeGoys3ZWEcBsVbqgNA8EIGI8HFsCUENpyiwVQ+6+5PCmwAhAnj4/BBA9VAThhPPwSefhImPpNR23SzuGPH1FplLp439yjfudL+57vGusE9J2WZB30wyt/bHpapLyRwDjw5EP/zoizzPpA6TSYQgIEn3igVqEgNIQV36m8jffPilwiVrI7/WxfkaK/w0W6q7/U++b4Ia6ws7uyGgf4xnnmJAQXRgFIa2e0BlJe5mmtEZb0aivbNTpzWQ80/EBBotYOhLSGajqFv2CDdFJJX43f+h9HySjhfjpGizU/2fvuuOkKLL/68l5dzbnvKQlL2nJ2YSIigQDKoYzoJ6eYI7nnfcTPfXMZ86CCgqeguQgSM5xYdmc4+TY9fujJ3Sa2dkJuzBb34+y3dX1XlVXVb967zvV1YXFrtd5DO3OmrMWVpbQKQAMjB4Ejv8xQkJwn6b3YwGDpQDoVaJJ+A3maeFMoK/asicVngYJhgLgaYGgKYDehohRALKCcdKsYVSavem86fhvwOf4cikA5LDqtr0rzSshhBIgCNW4O02HV5EWPT2ztfxP6/ntsr7TAUCUkC8fPMe45zNmfTqjAEiHcfeHsv5XEBIlACEfvtC091PS1Mx7LzxV5Sp0iwRIAUTrWEPhMGujLkvwBP/1FeafP6g8+WeHZ51REO83SeWiopKY4dO1Of2VCg3/xG23kTWl5opTpgtHDY1V1o5mu81CH+0M37XTxU0CApQxQpVWRL0tJVcJFTFCpUYklhIqrUggAKlSKJV3vp1ge5PjpzcbbWYSUwC84JsX3JeCpQBq2iqpbGKRJEGdAsDqZY4KAFYR3b8XAOuZoBolVhlPJektHc/9fK+AECSqUxPVqXHKBIlIYrQaatsrShuOtxgaAZjGClMATPCYtZBXAXTqjexZ1zz5hhTqlf6Coephk+P2bWjhHXKbvq3P6JPn+RaJJl6siRf3G+napIl0IvcOKYREKvC172Bbg33f720s1fTnSyghLrs9SSJzyZv0TpvF6WkfFgWQN0Tu+axg5Ulze5OdrRVTABiXMnD8jxEqwkkBcObloLZRRXTfNsIUAKf2wVAAnCYNZdLtBWBHrZGhAGJnPgpuR6N903+Qw8ZfOh8FYD690VZxQJpXAgCS1IHygVcZ939Hz4wcVsOfn0kLJhFCMRAC5ehbzUd+pDiCwCkAW+Ve24Vd0r4zAECUUCAbdK3pzw/9ROzsqvq4ncApgChGWMwaImHfhubV71Xo2+zg+VkscLNGAAIUnyItmZU4bIpWmyTh3czP2OE4s19/Zr++7IjB0OGw2xAzhvT5UUC6WZMqhImZ0sRMSWKaNC5Nok0WxySKJVKBUEwIRYRQFPyGD1KlTSDga5wuUQDRCu9DFk4KoLq1nMpDAJGuzeKbhjgqvMV5jnueAsiOL6DOWwwNLYZGi91U1VrmyURvDeYTGjwFAFGNbqYALAbnus9rblyWCwAEAVf/JeP8UX1rg81Da3qC7jP7dV+8WDbr7vTUXJ4PAwuEhFQh5KbTbgzOHjT8+lFdY6UVvD3O9rtGXanNHeT9FmxSlnTuo2nfL681G0hGbQAEYmLoVI3AtfgPHd2uRyT/YxQSBYCB0XPA8T9GGBCSr8wNoiFQ6tQvBRBoMB8KBcCsNQRLAbDu3z2pBDXp8vEJUYhI7wUgLxgvyx1JXbQ3nDUeXMUqvRMKgHR2bHw16e4fAAggiJjpS00Hf0SknZ7Zcup3W/leaf44AJBkDJMVzTId+JZTH78UAOnUb3lVWjgFBCIAQjl+ifnQd8iqZ90LpgCCQ0hmDcBhR798XLnpuzpEvY7aRWZTKCay+yknXp88aFys6x1UGpx21NZkO71Hd+yP9gvHjU4HYjwNPj4K6OpqAqQygUwtpFbPZvaVp+TI4lIlEEEg7m1CV8xaNFs1+pQQJgqg1dhssZtlYjkApGkzwfPIRpgCANaPqKFRAGppbKwigTppMTbZHVZ2fRils57QICkArjMRZehmCuDgxtYRM+L7DNMAgCZOfMPD2Z+9UGY1O2kUACBEAMCpvbqzB/V9hmsGT4gtGKpSaERiqUAk5p9pEAKHnbRbUXuj7dxhw9FtHVVnzO4a0nvcOxpzBsgvuy2JroQgoO9I1fzH0lcurzHpGBRAWr6sYJhr8X9rvb30gJE+dsJFAXTaWRgYkQOO/zHCg6B9ZZ8Ku7oKwH+NIkMBMCvs0/HwTwEwK818abbrk27vRfgoAIFAFDP1fmrbf0BIt+NjZDMDT0+xUhgUgOXsNnvTeXFiAQCIEvPFqUW26sO0cUaAw2rY/bE0dzQIREAQyjG3m4/+hOxmj4ZAKABbxR5b5T5JTgkAiOLzZEWzzAe/7TRiDw8F0AsQtFlz2NDqd8q3rqoH6pdJ4Ak3fJk1kZjIKVJNvj6lqCSG9YM/QtDRbCs9qD+0pe38UYPdisDl8QLLQHEpAJlSoE2SpBfK8wap0gvlSVlSX761HzgdyGFHDhsinYgkwc78LiB1lTp2F0+0N9pJJ3jGTnAUQJQj3BSAztSuM3e44/8sRtwbSQrAfSU8FECCKlns3uG/SV/nIB089YkIBRDl6E4KwG4j17xXdc8rfVWxIgDoN0Jz5eK0tR9UOxw8Q87pQKf2dpzaqxMICG2SOC5VqtaKNPESmULgeenJrHeaDU5di72j2d5ab9e3enYUYIw5FgWQkC65/uE0z8r/llpbbJKY4lULi5XzlqWv+L8as95FAQgJGHetVug2jwfWd9jMJACjCcJCAWBg9CBw/I8RNgTrK9M0cNa+BkgB+Ji0u5cCYNU+YAqAU2lMAfgA52fnCL0IIM0dKe8zgUqzN5UZDv2EwPtRQJ+lM+NqgSJOqEp0pdstTn0D6xYQIswnfrXXnxKnDQIAafZIaeEUy8lfufXxRwEgUr/l1fjbvqdeVVBN/Kv58PdAOjAFEC4EZ9Y2fFt7fFcbQwoCMmsFgzVT5qX0HaGRSBkvuTod6MJxw77fW84e0Hc022lXfBooSrUmTpzZV95npCa3SBmXKvG8YesHpBPp2xzGDqex3aFvdejaHMY2h1Hn1LU47VbSYUN2K+l0ACKR1UwSAB6Kw2lHDpu7dQj3H09FQ9sOMMoRVgpAZ243WDqSNCkAoFXEKyRKk83YbRQAXT4UCiBRneL6qh9AXXuVj+wRoAB6AbqTAqgqNa37vPba+zOFIoIQEOOvSTLpnRu+qiNJjxSdNQIARJLQWm9rrbcBAV6GkwLDIhAAHJ+MQwFo4kTzHk1PzJRS+VpqbZ8/V1U0Tj3z1iRKtnC4ct7StJXLaykKIKOfrP8YFZXZYiQPbuhgjhNMAWBEA3D8jxES/Mzjgc8W/Aq7QgHQMaAkJj5VCgAWk/PAxlZ6jQaNi9XEiwFcVWqstJ4/bKBUU4a85GpqtyHXpHLukKGp2uqZTGISxQPGaOhl0ZxpxFP7ACkAbiNgCoADxGb13elhpwCEQs342wmJ6y1B/b4VTn0TVYEuUQCqklsF8hgq0XjwB2dHPa2GrkPSZtFtkk4+wwAAIABJREFUeTP+po8AAAiBZsrD5pO/MTihACgAW9lOe80RccYwABAl9pX1u8xy8n/sG+cUTa+qn9vphAKISqAwmLUjO1qACoE52XyZtbgU6RW3pg+dHMcK0W0W8vC2tl1rG2vOmalPWwMAzQvm5yjlKmHfEeohk7Q5RUpljJB34wAPdC32hgprc7W1scraXG1rqbPbrKTdSjqsiKS2x/I2B+EunnZMSwJ2BMv6HQ5TAAwg1kmYKACzzdRqaM5L6gsAKplao9CabEbGlHMp7AWQpEkVun//b9DV0M0OpgCCQCdmLXIUAEK71jam5clLZiUSBAhFxIybUgVC4rdPamhSbArAVzDP7PvOpWLixQsey8jq75rQbWZyzbt1TVXW7d/bBAJi+s2J1CY/hcWqGx5N+355rcVEzrg10fPK1Z7/tRl1Ts44wRQAxiUPHP9jhIYAXgALiQKATl6g4qqZMMf1ildLnfXAxla60KQbkvIGqTw5965rOXfY4J04BMR1D2bQVa1YXtVUbfVMJgnp0jkPpPlrC4YbETgFwFESAgXgu3pRAAIB4qUAAGjecGgUgDRziGLQFdSxo7VKv/trRhAeGAUgVMerxy52ndot+p0fIkDAF4ebjv0S03JBFJ8LAJKckdLcsdayP3y8mMBPAYDdbNj+pnbhJ0AIQCBUTXrEenYjcljZN84pGkKjAKIZYTJr/O4gJ9yQyATjrk6aeUuakrmxv1Hn+PPX5j/WNLXVWz2j2eMu8y5TEssEWX0Voy6P7z9Go1CLeJ1Mpx3ZrGTNOXPlaXNtqbnqrMnQ5iCdQJK0qnuDeQjWrNF9ZeA3awFTAL676lIHYsUJ4aIAat2fAFTJYmIVcXXt1cy+uQQogGRNhudKbXslo6oRowCidqihAMxaxCgAh4Nc/W5lbKJkwJgYABCJiZk3pUpkgl8/rrHbSBoFAD72Kw2SAkjOlt34ZGZKjuubkU47+vndurP7DQBAOmHrimaE0LSbEqn9Tam9AM4dMmYXuciCjib7rp/aAHjGCaYAMC514PgfI2SEkQLgZuPkDGobVT/GljlxcG6NXTM/ZfA4bQH5yvyagqYAotWBcd0WPwUALG84aApAINSMvU0gpTb+Qfo93zo76pjiAVEAqlE3CTUp1LHp6Fp73QlmLWgK7Rbd5jfjbngdgAAgNNOXNn20B5GOLlEAlrMbvUsA0oZICqZaT//GkQ0zBRDl6BYKQEAQmX2VNzyUkzPAy0sCgL7Nvu/3lu2rGtoabeCJ+dkhobdGBIE08ZKBY2NGXxmfUagADhAJ+jZ7Q4Xl7AFD5SlTzTmzzfXqPiPQ5/eigzJrAUWwAVMAUQvXIxV+CsDzCQCpSBqnSgBvH10yFEBabBZ1oLe0Gyw6ZsTOV59wUABRjohRAMoYUWyipOa8yZdyq9n55T/O3/1yn9yBKgAgBDDlhuSUbNmqt6qaaiwEf68GTwEIhcSgCZqr70lTx7nCHKcdrf+84cCGduqUAEQ6YdvKFgCYemMitRlKYbGysNi17R8iYeuKFmO7g/mMhJMCCLDTMDAiARz/Y4QDIfjKvtR0iQLwVy+ar8y97LrEiXc81+mTCn+0zswfhK/M0eBLKpjFFFEF171HkAKQJBWohl9DJTmNrbo/v+YT74QCEKoSVKNudHkEdrNh92fI6WC694wj07E1mskPiBLzAUCaO0aaPdJ6YTffew3u0jkUAGnWmfZ9FpM2GARCQiRVlvzFem4rOLhbCWIKoCuIMAUglgkmzkm+7JZ0hdo7Edss5IFNLZtX1DdWWXiVcymApExp8fS4kZfFaxMl7GFJQnOt9cIxw6m9+uqz5vZGm/tKQB8FDCsFQHfdMQVAAzfMDwcFUNte5Rmu6dosmuJLgwIgCCIlxvX7v87SYbDqOM8cX30wBeATyPM37BRA4TDNnHuzlBrxu0tPN1abfSk36h2fPHdu3sM5g8bFUln6j4q591X5us9qD2xqIR38NQqCAohNEk9dmFQ8QyuWuK5bzeT6Txt2r21xOwauzqYoAETCjEWJrJekyk+YjmzR0fWGnQLAwOhB4PgfIyQEuPrLj6/MCqp92k3mqR8KYMVr5ReOGwAIpwMxpdDXL5dLZALPD15mvZNuvQHB8jtOA3h9Y12LnV5U5WnTa3edBdqrr3f+K1cTx3iIQqUAOpHCFEAnFAAnM9ElCkAz8Q6BTE2dG/audLRW0YQCpQAUg68WJxVSiZbS7daKfcDQwlZIGtsMez6PnfUiABBiuWr8PdaKvUA6u0QBmI6sVo67T5TUFwAk+RMTH9oFTvouca7Mzo4a3Zq/OVvKwkABRC9CN2udUgAxCZIbHsoZPF5LdzrLjunX/Le6/KSBdLra1//rA+o48YQ5iSVXJaq07Knc0O44tafj0Jb2mlKzSedAiBbyc+4DUwA9jAhQAE36BpvTKhXJACA1NoMZ+18CFIBGFqOSunbbMVh0JqseaFkjSQFEJ1CXzFpXKIAJc5Ln3JMtUwoB4Lr7sz9+9qzdTvpS3tFi++b/ymbfkzn6igSBgACAuGTJ/L9lD5us/f2ruvKTRi9NEdReABKZYMRM7eR5ibFJ3g+aGtoda96tO7ajw/UpVqaBIp2w/YcWQkjMcO8FAAAOG9q2ssVqZnwUEIA5lDAFgHEpA8f/GKEiVF+ZV6Ffr5ernI62BltdOY2Bpkm11luZXrArlPRY74YKi/uKJ8b3FmWzkA0VFpcUABBAOmjuQtC+sp8GxRQAF34pAL6YOVAKQKhO0oy+0ZXLbu3Y9iHbcWSI81MAQrlGPfZWajd+5LTpd32OHO4fXX1SAMh4YIWqZLEoPgcA5P1nSLNGWMv3+Lgdd+lMCoA0txv3fxlzxd+BIAihWJRQwNt4oqT+ijF/0f/vMVZ9IAgKIKoRUQogvUBxxwt9kjJlnqtmg2PdF7U7f26wWcjOv3WKQCwVjL4yYdr8lNgkCb2PSCeqPG3a/UvzqT06k96BEADNi+Z+FBBTAD0LRD8KKwXQ1FFvtVuo+D8zLpcAwmMvup8CAFYEFQAFoJFr5RLXSuwGXY3D++swpgCCRyQogMrTRk/OopLYyxelr/24yseqDgAAo96x8vWK2jLz1XdlUB/kE4qI/qNjCoaqSw/rd6xuPHdI77DTg27olAIQEKCMFQ2fpi2ZFR+fKiVoO6g67Oi7f1WVHjYAojl1HApg24pmQDD95gSKkBWJibHXaKvPmj0fBcQUAEaUAcf/GGHAxUYB+JUK60cB2aUG5SszHI5ApPyFHLytER3gBOFhpgC0Mx4kpO5t///82t5Swc7MFuehAOQDr5BkDKGOreX7zSc3MOJqHxSAU9dgPPBdzIzHgCAIiVI55jZr5X6gPpseMAVg2vOZquQvQm2m/2YkpEruvbibDlMAXkSCAhAQRP9RsYufK5SrRG5VcO6I7vs3y+vKzFzlLDUIkEBAZPVVXvdgVnY/Jb22FqPz5J6OP35uplY/gfd/hlm7RCmAALrrUgUnCg0PBdBiaLLaLSAHAIhTJsjECrPdyIz9u48CcF/pAgUQK49TuPZhgerWC0xtEaQAoh5hpwAqThvW/Ldy7oM5AgFBEHDZovTGasue9U1+KACng9z+Y0P5ccOc+zNzi1RUyC2WCgaMjhkwOqal1npkR/uZfR31FVazwemwcX+1RwAEECBTCNVaUfYA5YAxmn6jNBSbwIJITEy/Oamx0trRYmcRB5wXAVzbAYrEBBDQZ4Rq/mPpK1+pMekiRQEE2YUYGOEAjv8xQkMgXq9fX9m3Yh8UADCnnx6lAPhK7bKvzBP9h0ABRDcCpwAAaP5iABSAKCZFNeI66iJpNXZs/9i7NCNgCoAQSTXj7/RUQrftfUQ6gBVX+6AAjHu+Uo25jdo1UD7wasn2d221xzy3EwgFQFp0bT8+oJ70V0Ik5jadJKcEaD+LhE4BcIuIHoRs1nilCAGMmJGw4JE8mUJIpdht5M6fG3/5uMpqdgLl0nKU09VI5cLJc5OnLkjxaAAAi8l5bEf79tWNNaVmr4Rvs3YpUgBRC8QMC8JHAVgdlkZdfaImBQDiVAkyicJsM3Jif7p+Tv8D77DvJgogXpUkErjsWIOuhqMNUwBdRxBmLTAKYOfPDTkDVKNmJlIp1z+QbTE6j+5s9UMBIECVZ4wfPHZ29BWJE65Noi+Gik+TTp2fPHV+sr7N3lxjba6xttTbdM12u5UiAkClFWvixYkZ0rgUSWKGVCxhh/0OG2qotKTkyKjP+OUMVC54PPO7/6vqaO6EAtj+fQtBwLSbE4VCAgAKhyvnLUtf8a8asyEiFAAGRg8Cx/8YIcFXlN4VX5mpDZgzvK/lgcxVAHQtiBYRRZoCYDYF/6TSqa/MadLQKIBoR4AUALB6qDMKQDP2FpEmmbpiPPI/W0Mpry7/FIC83xRpdjF13VZ30nxinVdBZxSAo63aeGClZsqDACCQqZUlt9tW/c3DQQRIAVhLN1tLNwNwInaA1JeaCJHUJcvfknxV5S3dpSSqx1u4KQCCgBHTExc87A3+DR2OVW+X79/Y4nrb3+/iJgRImyid/7ecfiM11HuzAECS6PQ+3e9f1lWeNrpebYWAzNqlRwFENyJDAVS3lhdlDAWAWEWcTCyjD4aeogDo8v4pgNQY1zomB+lo0tdzi44UBRDdiAwF4HCQq96uiE+R5Q9WA4BCLVq4NNdidp450OGfArCaye2rGg5tbR0xI37c7MTEdC8LAABqrVitFVPfCwgQTgcqPWTY/kNT5WnTlHlJkxe4Ivm8wcqFj2d+/VKlvt3hnwKgvggw45Ykii0vHK68YWnaD6/WmiLxIgAGRs+BZ7UMBkaX4Iq3PcfcVCqB9qK76xJ3ruVK+VDOOOVoCkyKWSPv/wBAv0JL5pOiF4s4h4j2D2JKsRUz6h+QFKsZ/SymiBKw2sJ7RPC3JWdYeLxTVgahJlk9ZgE1Y5NWY8e2j5HTiXjEeUsHBK6fjWKm3O/xN3Xb3kfMHfgYX6BAPIf6HR8gh5U6Vg5fIIxJZ4r7qg+HSONmZsH3vfBU1ZfCqB1uyOeT1RWzxpIaMFp709J8apcsAGhvsn30zJm9vzc5naQnG0OKqTw9X/HA6/0GjI7xBP9tjbav/nnh02fPl580kGSXzRq7w30Yr1DMGupEit/Ksto4us0aZ/R4U1mtAPzN7r7O18217VXUgUQkTdKkAnMwcP/w9ZenbqxhTz9mTdmeP9wBxFcE//MCadps6sxqN7cYm3iL5hlJ3Pr4Hkudz8TRheDNGm8bMi/o2mxf/utcU7VrByVVrHjx84WDxmoDsZn6VvuWlfX/vvfUp8+fP7mnw2Hvem8g6Gi2b/+x6c0lpZ89d6H0oN5qcm74qn7riiZPabmDlLc8m61QC5njjm2gSCfatrJl41dNbkYV+oxQzX00Ta4SeLOxnxEes8Y2o+wBjoHRw8DxP0YY0DMUACdnQFIM4xs6BcAuNmhfOTgpTAG4j/gpAISY/iICXgpANeI6cUIOlWA+vdVaecilk+1l+yodEBDyftOkuWOoU3v9GeOhn7jjxD8F4GyvMez6xHU/UqV6ysPc2/FRnx6iAKIX4aUAsvqq7nihj+f11JZ661uPnCw9pEN8jziXAsgfrF7y734J6VIqkXSi/Rtalt994uCmVruNDNqssTvch/EKxazx+cI8vjJHqtdQAISPsIAzEhhtx74GwGpABABQ3VrhuZoe6/0EILtz2Po5/Q+8w55+zJqyOSUx7wOxiuA0gJAQJmtc7KfFbm41NDGsOKs01kji1oc1lhDH+mEKIBwUQGOV+f0nT7c3ufa7VWpEi58vHHVZokBABGIzTXrH4W2tHzx+9pnrDn/2wvkdPzVWnTXp2+xWk9NhZ3Qp6UR2K2nWO9sabaf36n79uPY/D579x40n17xXU3vO5KEPnA607tP6Td80ej6nkl2kuO3FHE28mDnu2AaKdKKtK5rXf97otCMAIAjoO1K14PF0hQZTABjRA7z+HyNEIH8LnFAAK2b5VAb0AW2+nL7UIOZKVZqS0F8EcIv6kPKW6WPFLKfeXV1ny1kEGd1AwGgL75HvFwHoq0YR+0UAoTIuduJi10WbuX3Te4h0unMTCCF2R/OVTghEmgl3EEIRVZ5u50ek1cAu2lUZfy8CGHZ9ohq9iJAqAUA57HrdptdIXa3Pe2HUh70dIG/pzKr4fKmBp6qBKIweINdw8ruk35vb74sA2kTprU8Vepb9N9dZPnjyTF25CaCTz/tR+QuHqhc9U6CMcU3WZoPzt09rdvzUSP3mH6JZu1ReBIhauKMGnumNMxIYbRfAiwA1rZWeLOnaLMbzzuqcbn8RAIG/vQDkYkWMXEvlNFoNOnMbANALiNyLANELbxQapFkL4EWAugumD58+c/c/+8XEiwFALBXcuCwvMV268ds6q8UZoM00GRyHt7Yd3toGAHK1MC5ZqooRyVUiaptAggCrmTQbnPpWR3uTzWmn2G/3/yzVgDZ8WU8QMHleIrUXQPYAxcLA9gLY8UOLQADTbnIJFgxXzluavuKVmjB+ESDovsTACB3493+M0OGX3QwHr+xTufeU35J22yoA5FfKWya3HiylAUv5WQUQ/eC2nOvIx4sAPOKEJ6Ny0OXipDzqirlsj7lsDzN3QKsApDnFssKJ1Jm9ucx4ZK33Iqc+flYB2JvLTEd+ok4F8lj12Ds6/x3eWx+Cfuqr9E7vxWdVA1EYPaCGEuPJCmIVgEgsuObu7LRc13clDO32L/95ruackauG10Bl9lHe/GQ+5UwDQFuj7YuXzm9b1eD5RSt0s8bucB/Gq6tmLeyrAKIbkVgFUNNW6bmcqs2kGEKvGlbnsPVz+h94hz39mDUvc0ri9qaPVQByiTJWEUed1nVU8hYQhhcB+IZsVIPfYQivt3bhpP69ZacaKl17kYrExGW3pC96Oj8hVRagzaQrN+udNedNZw/qj2xvO7Sl9dCWtoOb207+2XHhuKG51uL6qZ9l3piqSSfa+FXD1pVNTvfXmvMGKxc8lqmJ63wVgOtFAHeOwmLlvKVpcnXYVgFgYPQgcPyPERICWuDkd1JhK/Qj5dtX9qM8ohQAp/JB+spsJYFJ9SoKgK+tmemuI58vAnDECQAgxDLtzAc8yW0b3kIkyRHvjAIgBOqSRQL316oMf37j1DX4Kx18UwCkU//HR6RVDwBAEIri+cKY1LBTALylc1qSL7MPhVEGZlQSrK8MAAiGTIgbMT2BSnTYyB/eLi890sGQ8m2g5GrhwmV52iQJlaZrtX/+93Mn/mxH1Jan4TNr7A73Yby6atYwBRAQ+IcW42pwFECTvsFid4VhyZpUASFArE5iT98s/Zz+B95hTz9mTb6ckrjTJx8FIJMoNO7f/2vbK2kykacAone8+XEYwksBVJ41vP/E6fKTBupUICSGTIh74I3+QyfGBUEBMJUj3waKOfPTcjns5IYvG7Z9732lP2+w8uZnshSqzvcC2P59y8avvNtPFBarrrk/RSzxrtHBFADGJQoc/2OEirBRAATEJkqEIsKflE/lrCoFJMUUDZ0C6ETKW6anYAJkCoFcJQQmOvOVWVn4Z/RoA/druay28B51YS8A1bCrJSl9qARL2V7TqW3A9gjcOtmDzPtXkj5QOfRq6tTRXqvf9x1v6ZwUfgrAVnPUcmojdSzSZiqHz2dn5lXorQ+mAMKAsFAAqhjRNXdni8QC6nzn2oZ9vzchMiCzRgDMviszs9C1cMCkd3zw+JmyYwb/UkGbNXaH+zBeAZk1dm5+BRwpfivrus0oHW+c0IFvUmP3KbPt2NcA3A2IEKprr6ZS0rSZQoEQ2MOG0zls/Zz+Z6lgZKGOWWObUxLzPhCrCAQAkK7NpmoLAHXt1T6fMbYhCgcFENXoNgqgodL8ztKT+35v9mxNGp8iXfx84R0vFCZmyphvmSG2ts6r1GUKQCInHHZEF8seoLjtxRy1VsSV8upzrQJo/uPnVoo7IAgYOF5TfFksc2hznmPOzWAKAONiA47/McKAkCgA90wgEBAvfjvivv8bMOna1KRMGfWuF4+Ub6+XR3kAUiFTAPQadCLlKVMVK+xTrJqzJPWh9/OGTNFw9PBOGoF42NH9+0WoFAAw/T9CKNFOv899gWzb+C7vj1Ge7PwhNyHQjFskkFLfKEL6P792tNd5vgjgq2h3Cl8QTjp1299DVtcScVXJbUJ1Mjszr0Jva/BQAFxgCsA/QqcAxs5KTsqQU8d15aY1H1a4vOEAzFqf4TElVyVRKQ4b+e3yC5VnjBE1a+wO92G8/Jg1nnqwDZR/KX4rG80EALtpeHuU26fMtmNfA3A3YE2b68fzBHWSRCjxKqZ3Env6Zunn9D9LBSMLdcwapZySuJ3JfNhS3Jv/IUQ2dNT4e8bY2jAF0Am6jQIw6hyf/6P05/crTXoHlSIQEsMmxz/6XtGsOzNiEyU+lQdUpUApAKlSWDxDe//rBTMXJbu8SjeyixQ3PZUVk9DJiwBOO1r3ccOuNa2uLVcEMPYarTJGyBzanOeYczM8fjIGRs8B7/+HESJQF753ing2mLFbSc+pRCYoGq0tGq016R0XTuqP7mg9c7CjsdqMUGDbAbJqxvmAdti3A+Sz3/6kFBpRZj/5wHGavMHKuBQJweTfHDaEurBvFisL6hUbACICEcxI1H3f3vtHnWwH6IFqyBWS9AHUsaX8oOnEJrZCtjjPdoDixBxV8VzqjDR16P/82n2FIBBilY4Qe/883u0ArRX7Led2yIsuBwBRfI580FXUdwE635DPW3me7QC54C2d05J8maMcPA8f6uK+WTKFcNp8TxgDq98vNxkcQNuxz88upyIJceXtGdS+UwCwfXXD0R1tdOW8UqGbtYt2O8DohSvwYG4jFrbtAD3xv1AgSo5JMzSecYvSh00PbwfILSLV/bUCEqH6jmp2U3AKYJpBzkji1oe7HSC9P6IWvM9jBLcDJEm08bvasuP6Ofdm5w1UU9IKteiym9NHTk/Yt6F5z7rm5hoLQhzlgVaJ1wy5/leqhQPGxIy/NiG9UEG3a2aDUyITUNY1d5BywWOdbwfosMG6TxoSMyR9RqgAID5NkjVAcXKXnmHW2M8Ij1njPkYYGD0FHP9jhAQ/HkKAFMAfv9T3GR6TnqekG2iFWlQ0WjtglNakc1SfMx7c2nx8d1tbg41WLmsbVf5ZO9IUALMs8CUlkggKh6uKxmryBitjksRCIY/ptxjJrSua3XowBeAbIVMAVHMSIknMxNsJgWvH/vZtnzhtJoKrsDMKQFNys0DuWsFhOLDK0VIJQAvCg6MAEKnb/q6s/3SqeuoJ95oOfk9a9OzMvAoxBRAaWG0RNAUwfEpCTLzrN64z+9uP73YH8H6k3Al9imOy+1MrSqChyrJpZZ2TJL2RIKYAog4RogBq26o8x2narPPu+B/Yw+YiogAEhCBRneJWQtbramg1jhgFQE0p0TvQ+Mxad1AACKGyY/r3Hzs9fnbyzJvTPW87xqVIL7slfeyspNP7O/aubz53WOewd5UCoAfdALQBmpIrLZ4eN2h8bHyaRCBgdPqRbe0bv2oYNlU7ZX4itRwgb7DypiezPn+hwtjh8E8B7F7bVlisoorL6ic/uUvPNmuYAsC4dIDjf4xQESIFUFVqePmOQ5l9VMMnJwyfnKBNknp+9SIIUMaI+hbH9BkeY7M4y08ZDm1tObqjVddmJ52IMzd568NwmSJKATBLpksRBCGRCXKKFIMmxPQfrVHGCAWcsB+RYDWT5w8bj+3QnTtkoL4r4y4jaAqgFyAcFICy/2R5/ijq1FpzwnBsPZ94JxSAUJ2kGX+7S8Juad/6Hqc+QVIAlnM7rOd2yvpMBgBxUqF80Gzjvq95MvMqxBRAaGC1QTAUAAHjr/bEMLBhRY1rx/5OPWxAAkIw+rJEkdhV9Nbv6zqabKzgrvdRAFEKBLwhN7AHSZAUQE2rd/O8tNhMlqG42CgAACAQEglFye71/x3mNqNVDwD86/3CvgogegcabR7odgoAkEnv2PBNzcGtLbPvyhwyIU4kcS19VGvFI2ckDJ8Sr2uxH93ZenJPx4XjBpuVdDl4AVMAAiGIRILEDGnfkZohE7WpuTKxlLG6EpFQW2b+9aO6c4cNpBP9/kU9AExdmETdSnaRYtFz2V++UGHwSwHUlVkQiQghAQDMbZuCpgAwMHoMOP7HCA0s54PrIQZAAdhtZNlx3YUT+tXvl+cP0gydEF80RhufIpPIXBacIEAqF/YdHtN3eMzcB3LPHuw4sqP11L72tkYr6eDENohZVkR9Zb7mUMaI0gvkA8dpisbGqON4HjGSRPoWR/kJ04nd+vOHDCYdtbEMLXQIgQKIWiBmIBoaBUCIJLGT7yBEEgAARLZv+5Q0dgBBUE0YOAUQM3GxQB5DJen3f29vugA84kFRAIB029+TFU4EQgAAmslLTAe/R04bT2ZehVwKgJYzwNcQei8FwB+7gnssdO6YJqXL0/JcW/fVl5vOH9MF7mFr4sV5A9XUcVuj9ciOVk9Fei0FEMWjja9NwkYBePb/A4A0bSYA+9m/qCgA6opQIErUuLizho4abyHdQwFEMTp5HiNLAQAimmssn75YmtlHNX1h2oBRsZ4QWigitMmSSdenTLo+xWYhK04Zqs4aay+YG8rN+jaH3YacDpL61B+lUCAkRGJCLBXIFMKkTFlaniItX57dXxmTIObetNOB6srM239sOrq93eFwVYh0onWf1hMETJqXSK3HzClS3PJs1jcv+30RgDHrIc91gKBXAWBg9Bhw/I8RIuhWLXgKAAAQQqQTSg93lB7u+OkDQXZf1cCSuAGjtWl5CrHES+WKxMSA0bEDRseaDc4LJ/RHtreePaSjL/ECYNpbt/JIUwDKGFFGH/mgCbEFQ1RxqRKucUcIOprs5SdNx3d0lJ8wGdqdVDpB/ROSr+zNEuX5yiFrAAAgAElEQVQIEwUgyx2h6DOeOrY3lRsOrXVn7gIFIFQnqUcvdGW0mfR/fAGI5Cs9SArAcmaLtXyvNHcMAIiT+yqGzDEeWOn1tLpKAbAaMnQKAKIY7LAIukgB5AxQyxSu6fXk3jazweHN1pmHnZIt82yOVXpI19Fi82GgehEFEN2IHAXQYmgy20xyiQIAsuJzacXRSr/IKACZWKFVxFPH9bqaTpqCU0CIFAC7b6IMPUoBEEAgEirPGD594Wx6vnLc1UkDS7TaZCm99yUyQeEwTeEw1yt1FpPTpHPYLKTZ6PWXRBKBRCZQxogUapGfechidJYdM+z+paX0kMHh3meK1vfo9y8aEILJ8xKpNac5A5ULlmV+94pPCiCtQE64XU2jzsl4AoJ6EQADoweB43+M0BFOCoAyznYbee6Y7vwx/bqvqlOy5UMnxg8siUvPV9DjfLlKSBEBhg6HscPOqA8w7S1TubfSIfvKHm3Z/ZVL3iyIS5FwF/kDgKHdcWaf/sQuXdUZs77V4fUxwukrA302ikqwPGOAICkAQiCKm/YXQiwFAECofdunTkMrTZyAwCgA1YjrRdoM6th4YoO16qifsDkICgA5bLpt7ybmjAaCAEKgGnen6cjPyGENjgLgac9QKQCuymhCSBRAXpFrsyuE4OS+NobSzjzsNPdmKAjB2cM6VjZMAUQlIkQBWB2WuvbqvKQ+AFCUMTReldhiaAJgP/sXFQUwJGuUJ2dNWwXd8HYDBQDRTAEE8jxGnAKgWJbqc8aVb1xY/0VNwbCY4qnx+YPVSg1PPCJTCGUK9geS/cPpQJWnjSd26U7t7WisspJOtwfAqbfTQW78qgEAvHsBDFEufDzzq5cqDe3sFwEkcuH46+I946TihIn+QHCaMSAKAAOjB4Hjf4yQwJomwkgBUBetJmfFKUPFacNvX1QnZ8mGTUwonpqQlCmn+y6qGJEqhm8kR95X9qhSaIQKDXOWQmA2OU/v0R/b0XHhmNGkd9JsfoR8ZUaVohJhoQAkqX2Ug2ZQV5yGlvY/vuaU0TkFIFTGacbe4uoIu0X3x2fIafdbejAUgOXMVlvNEUnGUACQZA6V959uOvY/+u0HTgHwIjQKIGo9GLpZC44CSM1xLf436uyuL5jQfWW/HnZ8ipTKSTpQY4WZIeWuCKYAogP0RzcSFIDJZjpYvoeK/zXy2GfmLP/7T4+2GDwbzdJr0vMUgEBA9E0ZdN/UJzz6DlX8yczVPRRAdCLg57E7KAAgACFob7Ed2Nh8eEuLXC3KG6TuO1yTP1idlqcgBETg3YEQAEK6VkfZMcO5w/rSQ/qOJrvdRnodLbp5Y9bbYSc3MPcCyB2kXPRs9hcvVtApAIlccNVdyTlFLqveVG2tPG3mDitMAWBcQsDxP0aoiDQFQCm1WZxVZ41VZ41rP6rM7KMcOil+yPj4xHTvHgHMKjHCYdZutGH1ldkgncjQ7jh/xHhsZ/vpvQaHzfN1Q1cAGmFf2X3P0YuQKQCIv/IR15v/ALr9q4VyDcg1QDD60z2WaSA8/wAAqIbPlqT2pY7NZ3eYz+4MoPQuUwCkRafb9l7CwndBICSEEvWkJbbak0DaGVWhVY9zSDv34U+FuAogWhEKBSAUEapY15uoJp3D2OEAH2aN1xgq3L+DkSTStdl5s/U+CiBKwbyzsFMAiESr938zY+CsGIUWAEoKJ39695qvd3244fjaVkPzxUMBCAWitNisq4cuuHrYfJnYFWUdrdp3qvawNzOmAELGxUYBUKdOJxja7Ud3tB7d2UoAIVcK0/IVyVnyxHSpNlkamyiRq4RypTdacThIQ7vD0O7oaLY111gbqy0N5ZbWes/3oXgNlE8KwOlE6z6tBwRTFrhWAWQXKf76XuGe31ovHDM6HZBRKB99pTYx00XLOh1o28pmk87BG8x3kQLAwOgx4PgfIwzoHgrAk5ciAn79tCqrr2rQuLii0drUHDm13avd6npPjOUSRYgC0Lc6tEkSAEAktDfZyo8bj+7suHDMSHn8AECfivx42GH0lXsDQqEAJCkFqiGXe3Jpp9ylnXJXSJVx2ju2f4KcTh8L70OlAMwnf7c3lopT+gGANK8k7alDodSWVb1OS/d/L9GNoCkAiUwkce8+bbeTdpvnux4BUQDeCiCwWZyBGagopwCiGOwgPNwUQGn9qY+2/efBmU+KhWIASI5Je+SK5+aPvn39sZ+3nVpf1nTW7vT1Yd2IUwAEIUjWpA7MLJ7S78qhWaMVUpXnUrO+4d1NL1sdVgKAGcT5bgpOAUFQANEbkyHPn4uQAqBnMxud54/qzx/VU5kZA4bKRjBPXUe8vRoQBQCAfv+yHgAmz3ftBaCOE02/KYmnEREc2tx+eGsHH0fZZQoAA6MHgeN/jNDANW3dQgEQQDgd6MIJ/YWT+vVfVaflKAaOjUvOkp3c01552sCQ8iiMgK/8w+uVY69JJAg4tUdXecqka6F+mCXAO0MF/CnBcPnKXe/DSwY0xy1oCkDZbyIhloWxUtbyg6ZTW4D2UUA/pQdBAZCmNv0fH8dd93/UhwDChtApgCgGn1kLnAIA8O6N4LB5438IwKzRa0EIQKEWdrQEaKCimQKIbkSUAkAIftjzpdPpuH/GY0p3gJ0el7V40gPzx9xW3nx+7/mdhyv2nms45doaIPIUgFQsy0/qV5Q+bETu+MLk/nGqRNbIr+uoXv7rE6UNJ1jy3UABRPNg6/Lz2GMUQJdcQR9SvGbIJwVAOtHGrxtsNnLawiTeVaUAgEjYv77tl//WO2yIrxmZcyr9WfFBAWBg9CBw/I8REvhNW3dRANSR1ewsP2UoP2XwCHq44Ej7ytXnzN+/VulWyZhu6LFqN1MAUQn6jxeMwy5SALaG84h0EoKubSnkB+2b33W9+R8xCsC471vNpHtFCXlhqbCjsRQB4eKKMAXgCyFQACSJkDvkl8iEEpnA4t68GgI0awAAQBDg+VB2b6cAohZuwxZJCsDhtP+w98ujVQfvm760pGCSp9uUUnVR+tCi9KEOp91sM9W0VZY1nT1Te7yi+XxVa0Wjvo4knQgQuCxVMBQAQQgIALlEmRWfm5tYmJNQ2Ce1KDs+XyXTSEU8PCxC5LYz69/b/K8mfR3tPrhBnO+mAPZY7TIFEMXoLRQA3TMF7ujhpQAcdnLrd41lR4wzFyUXDvcuRaFQf8GyZUXT8Z06px0BgP/NSpArS2cUAAZGzwHH/xih4mKgANhSF4Gv3HMUQNSCG/AHQQEYT26vefsmaUYRQzVnIibYJ/wNa28oNR5bR88aCQqAtBoa3r9WMfgaQiDgrS278r4zODtqzMd+dpUeOgUQpfAR1QRKAVhMzt++rIyJlxAAZqOTdCI/4QnXrB3Y1Fx3wQQAJIk6mn2tze5tFEB0Arn+YTUZAH+bBE8BIARnao8//NXtQ7NHLiy5ozhnjFoe4ylLJBSr5TH95IP6pQ26csj1VKLNYW3Q1Tbq6pt09S36xnZza6uh2Ww3txlbECIRIpv0DVRRKqlaKVUBEAqpSiVTx8q1GnlsnCohXpWYqE5N02bFyGM7awekN3ccqvhzxd6PTtUepRIJ2n0Ay83AFEAXgXw+WVFMAUBXXwQgSVR+wvjRE2UJ6dKcIqUqVgQAFhNZddpUf8HidALQpPxTAJxm5KUAMDB6DDj+xwgDLiUKAJjTT9RRANGNcFAAyHBsk+HYJs8QIIA/nGV4g+7WJRgp7r8M8YhQAI6WCt2W/7CK5q0PALC+CMC+F6CVjikAHwiRAtj1az2lx2tqAjZrR3e1HNvl/iAlAQGZtWinAKIYfFOk+1K49wIgSfJg+Z5D5XtyEvPH95k+od/0/KQ+Gh/BuUQkzYzLzYzLjdCNAwBJOpsMDReazu46t3n/hT/q2ioBvCaV3RqYAggZvYwCYAsFuBcASRKNVdamaqtbifsSASypkCkADIweA47/MUKEX3bzIqQAgH0aZRRA1IIVgYZEAdBTXB8F5M7GjDRE+QCIL4bnfgwiUi8CcGvGVcjOzKuQXnoIFECUAjF6NbS9AKJycVP3UwBRC8Tu+0hTANS18qbz5U3nV+75NC02s1/aoGE5o/KT+mUl5MYotPTBFgkYrfra9qqa1ooz9cdO1R6taatoNjQg5DIn9PCM2xoAAOwgzndTAHusBkIBhP1+Lyb4MmuYAmANFbo/24lUKBQABkYPAsf/GKHjUqMAutdXxhRA2IAIIBBw/GDelDBQAKwUTAHwlR6FQJ4/mALAFEC3oCcoAALA5rCVN58vbz6//thPUrFMJdXEqRJyEvKzE/LTtJlJmpREdUqiJkUpZb8LHTj05o56XU19e3VNW2VlS1lZ09lGXZ3JZrDYTd6YnzFK/VEAvA+bv6YA9lgNgAII+l4vCfROCsCXGephCgADoweB43+MkMAJ5i8dCgCY00/UUADRje6lAKjmpDmPmAKglR694IkvMAXAMVDdSgFEPXqIAvDot9gsVrulxdBUWn8KAAiCEBAEQRAEEBKRNF6VFK9O1MhjFVJljDxW5vqECqGUqqViaZuhBQECAhxOR7uxxWI3tZva2kzNrYZmi92MEEJAsqJyoNlVzijthAIAlpsRbgogOoE6NWtRTAEgcM1fbgWYAsDo9cDxP0aouFQpAE7OKKEAoh7dvAqA5S9iCoCzuUBUAlMAFxcF0BvQoxQAuwiESMogADhsDlPrherWck9uAjy9wvPHfcy8BH5+ku0aBeC+gimALqMXUwD02+dpiZ6hADAweg5h/aA0Rm+F247R/rCS3J4EomdjSyF2blaqS8p7ihj6/ErxKuecsl7/81UlphSzRt7/abfoPqRp74KUt0xuPZiKe8t8gjwTP/0PfwoV1DPFgZ3LdUSwOslH6eCZwnkUssU5s7zP0gFR3gIrO08K0xHmHiIfmXkV0ksHdv07KT2qQX/4+G0Wy0LwSAVsoMJo1tgGKrJmjT1efBgvbNZ4wepQVt9zGhfYbcI/SLza2EUg9j9sY8Dfze68PIaO54+Ph4V32NOPWaOUUxJ3HPA8oj6aglMA95lgVDUKwWugOEkBPY/BmjXGSOSXiqTNRAC+zBB9BLGGShekvFcYzcjKEv1mDeOSAI7/MUIE/1yPuEkMW+hLqtspAI4XdKlTANEKxLrD7qUA+GJmTAFEMQL0lYFtIXikIufOcovvGbPGHi8+jBc2a7zgtB/vFAm0U+5cS5MDVsezExgtzr7GKYJbNR5Dx/PHx8PCO+zpx6xRyimJx85zc/loCk4BvBRAVCNAs9b583gpUwC+DBTT3HQLBYCB0YPA8T9GSCAE4GuuR9wkhi30JYUpAH4pb5ncetAUR+s7ZYg+1NxJrr+MP/wpmALoRCG9dGDXn7d0FK1DjWB0LKYAgHbNl4FijxcfxitIsxalA80DTAHQjlmjlFMS8z4Qqwj/TcEpoPdQAITA9WoPddqLKQD6vQK3JXyYNRS4lPcKoxlZWaJ2/sS4VIDjf4yQcNnCHD9zPXtupv6ynA8eqZ6gAFjTz6VJAUhkxIjL+T/mfKlDPvUu9iwK0P0UANN5hN5MAcCo+zlJ0YCMvjG5Q7QAELCvDGwLwSMVYXc2IAN1qVIAaf3lSfkyiGpgCoB2zBqlnJK4tiiMFECUYtSsdIlcCAABmzWfzyOtT4I1a4yRyC8VSZuJfBso+ghiDRVEy9qJlPcKoxkZWQbPik5XDeNSAY7/MUJCbIIU/M71iJvEsIW+pLqdAuDkvBQpAE28GKIUhFhOKGLZsyhA9+8FgCkAAAChBBRx7NpECzTxUj6vF3z7ysC2EDxSkXNnucX7MlCXJAWgjOsVGxVjCoB2zBqlnJJ47Dw3l4+m4BTQSygATYKsi2aN/3mMCgqALcRqCR9mDdGydiLlvcJoRm8WlbZXmDWMixY4/scICSWXpbDdCK6vx01i2EJfUj1BAbBcpkuNAhg8SQNRCkFcuihvBABz0FDA2wFyZHkVsjPzKqSXDuz6ezPL4yBvCrsq0YKh01N8eL3g21cGtoXgkYqoOxuggbr0KIDCcVFr1hDLOGEKwHvMGqWcknjsPDeXj6bgFMCzpiDqMGRactfNGs/z6M7iyRasWWP0IL9UxG0mvxmijyDWUEGBS3mvMJrRlV44Xg0YGD0HHP9jhISYBOnwSYlsN4Lr63GTGLbQl1S3UwAcL+jSogBGXhHNK8pk4292HTE6mUrBewGwZXkVsjPzKqSXDuz6uzIPv5VdiShCwYi4uFSZD68XfPvKwLYQPFIRdmcvArPGHi8+jFeAZk2TLM4cLIcoBQHsbU0wBUA7Zo1STkk8dp6by0dTcApwnRBR6xWPmpUegIHiJLEHBj2LJ1uwZo3Rg/xSkbSZiHavwG0JH2atC1LeK4xmRDkjlPLYqF2tiXFJIGotHUb3QCAgBpUkMI0t/1yPuEkBSWEKgF/KW6a74Iy+coUmmp9oUeZAQWyq64TRyVQKpgDYsrwK2Zl5FdJLB3b9EQKicCa7BlEEsVSYXxwXlK8MAUhFzp3lFt8zZo09XnwYr4DM2kC5SBq1Zu36MXdyTRmmAGjHrFHKKYl5H4hVhP+m4BSAEMwcdAtEKZSxksz+MUGZNdbAoGfxZAvWrDF6kF8q+iiA7GEqQdRaNYxLA3gAYoSKMTNTU7OVTGPLP9ez52bqb+dSmALgl/KWCQAIJt4QLxJH8xMtiEuXjJnnPWd0MpWCKQC2LK9CdmZehfTSmbJQMA2lDWcXH12YfGOOUCIIyleGAKQi585yi+8Zs8YcTUFSAEIRMXxOPEQvNMo4kVDMNWWYAqAds0YppyR2fXgfUR9NwSxAIdWIRVG706RIIph0Uy4ABGXWWAODnsWTLVizxhiJ/FIRpgC6dS8AbaqkcBxe/I/Rw4jmaAGje6CKEV9/X6FULmQaW/65nj03U387l8IUAL+Up8whkzV9R0T/jCKfcocoe6j3nNHJVAqmANiyvArZmXkV0kv3nKpTYeqzUfudSTcSMpXTbgnaVw5EKnLuLLf4njFrzNEUDAUwcm58bJoEohfF+RM1Ci0AjynDFADtmDVKOSVxLGFwFEBBytB4VSpEL/qNjh86IwUAgjJrrIFBz+LJFqxZY4xEfqmI20x+M0QfQayxiAKX8lwRSYkxNybK1ELAwOhR4PgfIwwYPT1l9uJ8AGAaW/65HnGTApLCFAC/FAAkZkqvfzhNLI3ykAwABJpEzZKvmUs2Pf94Urr9o4Bs8aimAGa/TaQOYZcajZi6KH/glGQACMpXDkQqwu7sRWDWmKOpaxRA/lj1iLkJEO24svgmuhVjGCdMAXiPOVaWVRKPnefm8tEU7gImD7gBohpimXDusqKkbBUABGXWWAODnsWTLVizxuhBfqlI2kzk20DRRxBrLCJa1k6kqL8jrosvGBv9P9VgXPzA8T9GeDDr1twh4xMBgGls+ed6xE0KSKonKADW9HPxUQBylXD+snRx9L4iywKhilMvfg8JaXvnMDqZSuneLwIgpjeMICopACCExPiHifyo3fafBUIA1zzYNyWX8tUwBcCSiiwFkJAlm7Q4OdpXmQAAjOk7jTX1MWwJpgC8x6xRyimJx85zc/loCoBYRWJWQn+IdohlwgXPDpSrqQkUUwAsqchSANnDlMXXRT+niXFJoLfEDBiRhkBIPLR82LBJSQDANLb8cz3iJgUk1e0UACfnRUUByNXCO/+VnV4Ytftj80I6ao560RuEhHbXHL+5+z8KGOUUAEEQ4x+C6c9F8f7YXGgSZHe8Niy1gPr+HKYAWFKRogAScuSzn8lQxvWK/bH7pA0dWTDZ3Z2sjgXgaT/eKRJop9y5liYHrI5nJ9C0c69xiuBWjcfQ8fzx8bDwDnv6MWuUckrisfPcXPxNMaHfnOhe/O9Beh/N3W+OwBSAD6lIUQC5I1WzHs8U4IX/GBcHepEnhxFpiCWC+14aMvnaTJlCxDS2/HM94iYFJIUpANdpeh/54pdy0gt6V/BPQTrqOsWNrwiSCrxJHL8ZUwBcbbwK2Zm5CtWpMOFvMO1Zdhm9AJpE2eJXhvYtoX60wRQASyr8FEB2seqapzNU8b0i+AcAgiDumPFEvDqF9WD6ikioa3xTJNBOuXMtTQ5YHc9OoGnnXuMUwa0aj6Hj+ePjYeEd9vRj1ijllMRj57m52E2RmzRw+uCo3fmfi7RC9eLlwzL6xQBAUGaNNTDoWTzZgjVrjB7kl4q4zeQ3UMypO2AKQCwjBkyPvezhDKG4F6xowrhEgON/jHBCphDe8XTR3S8Myu6rZhpb/rkecZMCkuoJCqAbfWVaTfmlJFLB5HmJf1mem9mvNwb/FGSj58Ys/VkyYrY3ieM3dz8FwBG/9CmA3InETd8Kpj7F1t5roEmU3f6vYbOW9I1NlgflK0MAUhF2ZwMyUD1MAagTJBNvT5n9ZKay1wT/FApSBz065zWgGzCOKcMUAO2YNUo5JfHYeW4uRi0fmfVBjDyavzTBRVZR7F/+M2LyTTkS9+bNXTRrrIFBz+LJFqxZY/Qgv1QkbSai3StwW8KHWeOXSsyRzXwoY/r9aRI5DrgwLiIIn3/++Z6uA0a0IT1XNe6q9KxCTc0Fg77dTiUSnn/As3c47Q8rCQiagC8pgp2bleqS8p4SDH1+pXwoZ5wylQcsxayR93/aLboPadpdUkIRMe6ahNtezO4/RiMURQ+XfLasUqPVqtRd2xeHkMglw66SjpiDTK1k/XlAJABz0FCHjK5gXWOlcIYCAFscmP3G6QT2S8vssc1UyBpBPOK8pQN3iPCXzhqk3HtnHnkyEwIhkTNOcO27xIS/Epp0djG9DARBZA+MHXV1hjpOWnVKZ7eSPMOKbs+4SdTfTqQCNlCXrFljDk/XuUwtGrcoefqStIwiJTtLAGisq9Mo5UkJcV0VjCjsdsf5iuqk1FSJVNpp5tS4bIfDdrJqP/JwluyOBeBpP94pEmin3LmWJgesjmcn0LRzr3GK4FaNx9Dx/PHxsPAOe/oxx3SySmLXh/cRBaFAfM/0V/KTB0MAMBoM+va2PnnZgWTuTlTW1BNCkTa+axSGUCwoHBFfMifTYSNrSvXIyTdbdmLWWAODZ3IK3qz5mMWZYzaiNpMhxGoJH2bNPdAIiMuQTrk7bdytyYk5wXxUsqaiIj0lSaNWBiGLgdEpRD1dAYzohFQmHD0zZfTMlL0b6ztabOu+qQBWqMKNszgRr/+pCJhGnOUpcY22D6UB+sp+c3KL5brUjEqxXRcfvjJDY+FwdWqebPDEGFUsfmy9IAiBMKVQtfh9xxVnHGd22U9vc9aedl1i5EPeRB6/kKUUccT5Dglg/kRHrxXrnFsfX6UjX+KcogGA85M9p7buIhD3qq8bBGW8YMh8Irk/5IzjVd9rIZULx83NGjc3a/eqKl2r9cjGBmC2HA8lw0jy4ysDbSzw+dV0AQAeOxGKWeOaUG4U6E3kuNHuKjFOeG+RU0zfiTFKrXjIlRdX6N79EBCCO2Y+SRCCb3e85aYAECACCEC0FkcIMZqZmQUhhulACAjCfYnxxy3HOHJdpSe4U7z/IOZ4YhTBKh0Q4S0E+CviVe2V994vXYW3OP6moCn0VR8g6EUgAAIkYvniyS+O6XNlJ90T1ZCrxVc/2G/qoryjmxvqzhvOHWjlmAzoqlmj/8/VwXGNGGp9KO3MuQokJ9eack1fp2bNnxV2nQybHa+IEfcZrwEMjIsVOJDAiCxGTU8BgBnzs3q6IhhRDlFqX1FqX9nk23u6IhjRj5LrMgHgsjsLOs2JgRE4Fs94nBAIfjvwbauhgRmTYwqAXhx/U3RKAdDlEUBqTM41I+8Z22eWz/7oTVDGSiizhoGB0RuAX0fBwMDAwMDAwOh53D5t2T9u/nxY7njOC/he4L0AaMfMS9yS2PfhShpdeMUzc78Z1/cawMDAwOh9wL//Y2BgYGBgYGBcFChMG/zyoq9PVO3/cstrxyr2kCSJVwGEaxWAQCAcVXDZnJH3pWrzBL3pU6YYGBgYdOD4HwMDAwMDAwPjYoFIKB6SUzLk9h+OlO+uaDiz8eiP7cYW5nvJAJ7dHJDrBLwEAQHst51598PjXCEYOXj2QiUY+fy8KO5nO0CmpI+XqAlORta72JxXx9nqmYoyE/oMzBzXP2NkRlwhYGBgYPRu4PgfAwMDAwMDA+Oiw5CckiE5JbNH39bTFcHAwMDAiB7g5U8YGBgYlzwsZvOyh+47cexIgPm3b9n03BOPRrRKGBgYGBgYFz8+eu/tdf9b29O1wMDoPuDf/zF6Hi8vf/Xc+fO3L7pl/Nix9PQPPvp47/791LFGrSkoyJ933XWJiQmeq80trU89ttSP5p27dp04ear0/HmbzZaclDxqRPHECeOlEon/+rS0trZ3dOTn5oZwTxg9gJeeeaJ49JgrZvXMlk51NdVCkSgpOYX3aqTrRpLOo4cP6Tp0AeZvamw4fvRohCrTm7Fn184fV3xDHQuForSMjMysnIlTp8XFBfRpbovZXFtbnZWVIxKLu1p0S3PTb7+sqaosNxmM8QkJRYOHlIybqFKrQ1SLgYGBcfbMqa2bNtTVVANAUnJK8cgxw0eMpNsTo8m4Y/Omc6VnmxobsnNy+/QfMG7CJPprGd98/klra+uShwPinTvVFkY47Pa1P/1YUNj38quujoR+DIyLEPj3f4weRmNT04offjxXduGH1T+xLp2/cKGyqnpEcfGI4cNjYmN+WLX66rlz9+zb57l66sxpX2orq6rvum/J0ieeOnTkSGJCQlJSUm1d7XN/f+nbld93WqVVP/18z5IHQ7kpjB7ByePH6mtre6r0/7z2yucffuDras/WDaPb0NLcfPTwoaLBQwcPKy7o07e1pfm7rz678+YF//t5dSDi58+dvW/xoqbGhq6Wu3vnjtsWzt23Z3dcXHxOXr7Navv8o/8ePnQgRLUYGBgYn3zw7sP33lVTVZmekZWSmsXoQlwAACAASURBVNbYUP/qP1/UG/SeDEcPH7z3tpu//PQjvb4jMSn56JFD/3j2yccfXtLYUO/JU1Fx4VzpmUCKC0RbGCESiz/68rsX/7U8EsoxMC5O4N//MXoYa//3a0Z62k0LFrz6xpt6vV6tVtOvJicn3XvXndSx7gH9bXf/5annXli35ieRyN/QNRgMi/9yT/9+fdf88L1nvQAAOJ1Oh9MZibvAwMDA8ODGW24Tu9cZGU3G9998/a1/v5KSmlY8anQkinM6HK/+44Urr77m3gcfoaezPxSHgYGB0UWcOXli5TdfPv33l8dPnOxJpH92oa625umlD0+YMu3BR5ZJZTIq8dCBfa/8/fkXn378Px98IhB04bfG8GoLEIlJyWHXiYFxMQPH/xg9jJ9/+d9VV1wxY9rU/3vt3xs2b7numtm+cmo06r/cuXjpE0+VXSjvU1jgR+erb7wpEomW//MfMvfkQUEoFAqFQur46LHjGzZvrqyqEovFQwYNWnDDXLFYDACfffX1W++9DwB33HMvADz/9FOZGRkAUFtX98Oq1aXnyzLS0xbOm5eVmQEAjzz2eGFBgYehOHX6zLv//e/sq66aMW0qlbJ567YfVv/09uuvCQQCXyU+suzxgUUDFt+6yFPP9z/62GQyPfLgA11tTAwPLGbzc08ufeyZF7Zv3nTqxDGBQDBu4pTxkybT8xw5eGDHti3trS0DhwwbOHjIl59++MLLr3quHj9yePvWTY0N9QV9+l03f6FCrqDSG+rrfl3zU2XFBZlMnldQOHHK9OSUlFf+/vyhA/sAoKmpQa5Q0PX4h9Pp/HPXzoP79jQ21GtiYkvGTfRU0nULTz2/bfPGUyePi4SiKTMuGzmm5NzZMzu2bi6/cD4tI/OGBTfFxXsZruamxo/ee7uivCw1LX3ytBkDBg5m3O+hgzu2bm5vbSkaPFTX0RFIHTBCh1KhfPixJ8+Vnnnr3698+u0PBEE01NdtWv9bRfkFi8WcnZN37bwFWm0cABw6sO/ppQ8DwNKH7k9LT5993bzxkyb7ykxHVWWF0WQcNHQ4K51y0HnVrl39o8ViLhk/YcNvv1aUl918250FffoCgNViWfvTj6dPHFep1ZOmzRhWPJJS5acaa1f/KCCIzJycP3ftrKmqzM0rmLvgJplMtv7XX04cPeIknSXjJk6ePiOCTYyBgRExnD51EgCGDGOYF/pS/Pffej0pOfWRx57y+FcAMKx45IOPPv7CU8t+XbN61pzrAy8uQG3PLHvkiqvnjJ0wkcqwZ9fONau+/8erb3pEGurrflvz04ULZalpabOvvSEtI4NKf2P5yxMmTxMJhdu2bNTrdY8se1qukL+x/OX8gj5XX3u9f1mjybh+7ZrTp07Y7bbc/MJRo0v6FQ0M/NYwMC4e4PX/GD2JI8eOlVdUXHX5ZQnx8SOGD/t1/Xr/+TPTMwCAvuqMC5Ikf/lt3S03LmQF/3S0tbXdvWRJTU1tTna2WCR+4+13HnnsCerSgH79EuLjAWDGtGkzpk1Tq1QAcOz4iXk333KurGzggP5nS0tvuOnmM6WlAKBWqX5Y5V3Wu27Dhm07dn5PS/l1/XqxWCQQCPyUGBcf9/WKFZ5f6hwOx1fffpuVmem/KTD8gySdRw4euPHaWQf370lNSzfo9S89+8QvP/3oybBqxbdP/O3B9raW1PSMzRt/X3LXbXt37/Jc/d/Pq59c+leHw5FX0GfzhnVL7rzNarEAQHVVxb2LFx05fDA7Jy8mNnbfn7stFhMAFI8ZQwlOmDxtzLgJgddz984d7/x7udVqzcnNb29teenZJ1at+JZxC9dffeTwgbSMzJaWpmcee+RvD9zz4tOP6zo6MrNytm3auOTu240mo0fbO2+8eu7smZzc/FMnjj/6wL0b1v2Pcb+PPEDd75ZNG1Z8/YXJaOi0DhhhgUAgmDv/xvq6WmoF/vNPLjty6EBcQkJiUsr6X39ZcudtJrMJAJKSksdPngIAEyZPmTB5WlpGup/MdCSnpAlFojU/rvT0KR28amtrqlb/sOJvS+49cvigTC7XxMQAgF6ve+ieO7du2pCTX+Cw25969K+//fIzpcRPNWprqt56ffkby1+222ypaelrVv94x83z77/ztj+2b0lKTrZaLf/6+7M/uPdEwOhOvPTME8seuo/674Wnln38/jvU+9vdU+JLzz35xScf7vtzd+DidTXVEVrjjRE0MjKzAOC7Lz8nSZJ71Wa17vtz95y5N9DDdQol4yfk5hfs/XMXV8oXAtd2/NjhluYmz9WW5uZjRw57Ts+cPHH/nbeWl5f17de/7FzpfXcuKjtfSl0qPX36v2+/+ewTjzY3NcqkcrlCTiXW1lT5l7XZbEuX3Lv2px+1cXHZufnnzp6uqqoI/NYwMC4q4N//MXoSP6/9ZdDAIirWnTl9+j9fWd7U1Exfsc/CmdJSgUDQt9Df93vLKyptNltBfp6fPFqtdtvv66VSKXU6flzJE888V1lVnZWZMWpE8cJ5N6z8cdWCG+ZSVxFC/3xl+Yyp05576gkAuPuOxXfdd/9b77739uv/njp58uo1a8+dP1+Qnw8A23bsmDp50rYdO6kXGUiS3L1n76N/fch/ibOvvHLlDz8eOXZs6ODBALBn3z6LxTpz2rSAWxHDJ665/gbPiuh/PP/Uqu+/o346aGyo//Sj9+++/6E5c+dRV2dNn+iw26nj1taWD9976+FlT06ZPhMArrthwW0Lr1/786q582/cvOF3pVL5+jv/ZW1ENG3G5Rt/+zUuLt7zA0KAKBk3fuyEiZ4FjW8sf/nHld9eN3+hJ8OcufPueeBh6njZQ/cdPXzo+1/Wq9UaALjy6mvuvGXBjs2bLp/lWjUzZHjxv15/CwBIkvzn80998PabY8dPVKrU/u+30zpghI6M7GwAqKwoT0pOefO9jyRuUzB3wY133Dx/+6aNl8+anZ6ZNfvauds2bZx97dzUdNcvTr4y05XLFfK/Ln38nTdeu/H62aPGjJ04dXrJuAkeB5pXLQC0Nje/8ua7g4cO86R89+XnAPD6O/+lXl5ISUv/+P13Zl5+lVAk6rQa73/yFZVh7ITJyx66r2T8hL8udVGcy196YfXK7+bOvzFMbYkRKE4eP5aakTGseCQg1NbetnXThlXff/fiy69G6D0UVonNzU0H9+/95vNPikeOemjpE772RqXjP6+9EhcXv/Tp5yJUPYwgUDxq9FVzrlv9/XdbNqwfP3nKlOkz+xcN8lytqiwnSTIrh3+/5LyCwuO0sLxThEUbQuidN16bMGnqQ0sfB4CFi25//OEln334/ov/eo3KUFFe9s3qX3j3ZPUje+r4sbLzpZ9+8z3dimJgXKLAv/9j9BisVuu6DRuvuvxy6nT6lCkAsG7DBt7MZrN5246d/3nn3dtuuVmlUvlRW1dfBwBKhcKTctd9S4aNGev5r6W1FQA8oTgAjB45EgCqqqt4FVZWVZ04dWrudXOoU4IgZk6ffvzkSQAoGT1KqVDs+nMPAFRWVVdWVT+1bJlYLN7xxy4AOHr8uNFonDR+PCXoq8TBgwZmZWZu3LyFurR+w8aJ48dpNIx9EDCCw9DhIz3Hw4pH1dfWUr9g7Nu9SyIS02P12++6R6lytfmff+wUADFp6nTqVKVWF48cffbUSQBQKpUtzU3rf/3FYjaHpYZCkYj+NuOw4SNbmptsVqsnZciwEbTbGaFWa6jgHwDSMjITEpNqaT/ozb7uBupAIBDceudfDHr9yePHAWDv7j/83G+ndcAIHRq1BgBIJwkAEpopSElNS01Nr/X9q2yAmWdcftXXP/y86Pa7ys6de+mZJxbNu/bbLz51Ohx+qpSckkIP/gFgy8bfp19xpWfngknTphv0+pqa6k6rkV/Qx5Nh4OAhQpEoN8/7itaQ4hEtzU02m81PZTAihP9n777j4ybvP4A/0u3hvbfjndjZeyckISEhQKABwiiUFVYJo0CBH3ullDIbWmbZq1AIOyF77zjeI957ns+3l/T74+zznW7YTmzf+fx5v1pyJz3S85VOtvX9nvQoZ+Lk6268+bo/3fLn+x58/9OvEpOSt7z+j5Hp8d4HH3ntrXeff/n1qoqKzc88idEoRi/rwbN4+Yq9u3bed+dtd91y496dO6yzFAoFIURs9/vB/oMOCQ7R6/UD72hI1tZYX1dWWnzRJT1P26EoatHS5WUlxbYGy1etdvdAFg/LSmUyQsh333zV2dE+8C0C8E34/h+8ZufuPWq1+utvv925uyf1ZRjm/Y8+uv6avi8e8/ILps6ZRwixWCxSqeSWG2+88frrPK/WejVBZVV1Tna2dcpf7tukUqkIIceOn/j3e+9bJxqNxiPHjh8/ebKtvb2xsYkQYjSaXK6wuqaWEPLAw38ND++5MKGrS6lWawghQqFw4fz5h48e++O11+zdv3/WjOkREeEL58/btXfv6lUrDxw6PHnixNDQkH57vGTN6v9t3fqXezeZzeZde/c++8QTg9qTMBBiidh2+WJ9Q11kTIzzFYZWDXW1Wp32/rs32qa0NDampKcTQtZedkV1ZeWW117e8trLs+fMu+wPV+VMnnKegXV3K48fPVyUn6fq7rZe3Gg2m+zTLRuRWMw4nkOLRGLGbkhLmupL4+MTkgRCoTVJa2io97C9g4oBzk1jYyMhJDml57qk4sL8UyeONzbUa9Sq+roak8lTbjzAxjJ5wOVXbbj8qg0V5aU/fvftR++/o1R22S4ecSaXB9q/1Wl1nR3t77315oG9Pb+QreUDrVo9qDBomhYKBfZn7dbSJ4OxV71NKBItW3nRe2+9adDrRWKxu4E/2ttaX3ruqXXrN8xd0HMr047fftm/d9etd/45PiHJOuXT/7xnNBpv2nhnv51Onznrzk0PPPfkozu3/bp81WoPo404j6KCoUl8R0xc/Ma7Nt1y+925J0988emHLz7zOE/AX7BoSVxcPCGkrr4uY3zPGdeH7/5bp9Pe/uf7aJpubKxPcvNlvktDsrb6ujpCyPNPPBrSOzhOt1Kp0fTdKMcZZ3qAy6ZnZt18+13//eKzH7/7dnz2xEvW/WHh0gs8/FUF8GXI/8Frtv70EyFk5Yq+caGqa2rb2ttramuTEhOtU0RC4b/efJ0QEhkRER8XN5BxX+Pj4mRS6Y7duy+5eI11iu1+gfaODusLtVp9211/NlssF1+0aub06RaLZdNfHnS3QrFYRAi5/pprMjP67juw/dJfdsGS/3vqGaPRuGffPuu2XLh82ZPPPmc0Gg8eOnzh8mUD6fHi1au3vP1OYXGxQqGgKXrh/Hn9biacD7FYYj8AHoc1773ptjsJ6cthgoKDrbMeeOT/br3z7v17du/d9ftf7rnjngceXn3JZeccScXZssf+cu+EnIkz58yLjIyOjY378rOPz3lt9hiLxWI2h4SGkv62d/hiAJvck8eDgkOso0y//vfNRw7uX3PpunkLF8tl8tKiIg8LDqqxVWp65r0PPapUdu3bs8tD/s/B5/Nomp6/eMlax8G6klNSzy0M8EFmkykwKNg6rPrhA/vfeu3labNmJ49LrTxb9twTj9x25z2XX7UhPCKyrbV17+7fbfn/D//7pqy0ePyEnKuvv5EQwrLsT1v/d9W1Nwyw0wVLlkbHxOblnlq+arW7Tgkh0+fM2bVjGyFk4ZJlfAHfQ4TDsGNgQHg83vRZs6dMm77h8rUH9+5esGhJVEysRCo5cnD/shU913KuXH3xX++/R6nsuvu+B4sK8peuWDnw9Q9qbe6uKBGJRYSQdes3pKT1XYU0wETd87LrN1x32RVXHj186NC+PS89/9ThQ/seeeLZgW8dgO9A/g/e0dzScvT4ic3PPrN6Vd9v8w3r/7Bk5UW/bNtuG1E/MzNjxjTuoNaeURR1+623/OP1N3785de1qy9y2ebA4cNFJSWH9+ySSCSEELVaTQgxGPsueDaa+q4FSEtNpWm6W6VyGcnCefNZlt2zb//pM3mbn32WELJo/nyLhfl1+/aikpIXn316ID3GxkTPmDZ1x67d7e0dqy5c4fnphnD+kseldLS3lZYUZWZNsE5Rq/sGTkvpuXSZneQ0oLpVYFDwmkvXrbl03cP33rVv905b/m80D/oK519++D46Nu6J5/5mfas7v9sKamqqbKfsuadOsiybmpZO+tveoY0BnNXX1Wz99us/P/AQRVEKReevP219/u+v2e7BVig6C/Py7NsbzSbbrH4buxMQEBggc/iay7ZalwRCYUJCklKhcD7szycM8B0tzU0/b/1u2cqezMrDwB/zFi7+/bdfrM946+zsOFteOmf+gkP791nz/4rysi6FYs78BQPvOiEpqaam2nOnzqOoYGgS38Tj82VyufUOMpqmr9xw/Ufvv3PmkpOTp00nhMTGJ/zjn/9+5P5N6y9eSdP0lddcP/A1D3xtMllAe1urbUGz3b1OSeNSaJpWq1Xu/oJ70O+yAqFwweIlCxYviUtM/OKTDxmGGY7nEQIMNxy14B0//vyLSCRauniR/cTg4ODZM2f88ls/TwHo1/XXbJg/d+5jTz71f08/c+p0rrK7W9ndffrMmc+++IqmaR5NS8QS62MCNFptd7fqX+++RwgRCXuudo6JiVYoFPsOHCSEMAwTFhp65RWXf/DRxz/89LPZbGYY5mxFRW1dz2ABUqlk7uxZL73y6visTOvIhRKJZOH8ec9tfikxISE5qedqSc89EkLWrlnz67Ztu/buXbt69XluPvRrwaIlMXHxLz33dFlxocVsLirI++Lj/2h6nysxb9HilNT0VzY/X5h/hmVZk9FYVJBnnVtwJvf40cM6rY4QUldbXV1VFRMbZ10qKjo698SJttYWl4MkE0IsZrPJaLT/HyFELJbU19acOX3KYjY3NzW+8NRj57NdH77zr7zcU2aTqaSw4M1XXlqybEVcQmK/2zu0MYCNxWKpq63+/puv77n1prkLFq1YtYYQIhIKaZo+sHd3Z3u7yWjct3snISRzQk9dJio6hhCy87dfGYZhGMZzY5uO9raXn3963+6d9XU1Wo26pbnpv198umPbrxf1VqY4q3UX8PU33ZqXe/rtLa9bx/Zva20pLSnqN2bwZV999vFDm+7cdMctqxbPveGqyydMnPinW++wzvIw8Mf8RYu7lV0V5WWEkGOHDqZljr/8ymvKSoutGdeJY0eSx6XafvUNRGBAEGthPHfqDEOT+IJjhw+9/c/XTh4/1tLcpNWoqysrXn7x2bbWlhUre75f+cPV12Zkjn/sofu+/vyT+roao8HQ2dkRERlJCGEYhmf3CTIMy/kj6Pwd/gDXNnHylN9+/rG0pIhhmLNlpW+9/g/bCCMhIaFrLl339eef7PjtF4vZzDBMdVVFo5sBnjg8LNva0rxz269dCgUhpEuhKDiTGxkVjeQfRil8zQjesfWnn5YtWWL9MtzeyuXLn3r+haLikgnjs8555TRNv/X6q9//+NM773/ww089j0ATCYVLFi169snHg4ODF86ft2bVqmdf3Pz8314ihKxcsVzUO+QVIeTCZcu+/W7r3ffdL5fJ7rp947VXX/XApnvEYvFTz7/w9AsvCgUCg9F4z5132EYiWLZ06d79B6656kr7NezYtdu+uuG5R0LIimUXPPHMs7Ex0RNzss95w2GAeHz+M5v//sJTj99z+y00TYeFR8ycM9c6VB4hhMfjPfO3l9985e8P3H27VCI1mk1CoeipF16aNGVqeVnppx+8q9FqhCKR0WDImTzlxlt7hglYv+G6E8eO3nDV5UKR6JUtb6ekcp9S8c1Xn9s/BS0wKPjrH35dv+G63JMnHr73LpqmRWLRwqUX2MZVOgfJKakP33s3RVEsy16wfOXd9z/kbnsvvuyK3Tu22yIfwhiAEHLpyqUURVkz7Zi4+E0PPrJ4Wc9wklKZfOPd977373/++tNWmqbHZ09MSEy2XfITHhG5fsN1X3/+yU/ffTt1xszHn9vsobGNQa9nGPa1v71geyZfSEio/eMenFfrMuwFS5be/9f/e++tN7//71dyeYBK1T13wcInn3/Jc8zg42bMnksIqTpbbjQaN965SWj3p8fdwB/jsyeGhoWfOnEsLSPzyKH98xYuypk0OSQk9MjB/RdfdsXxo4fnLBjEU04JIY2NDbbBLwY12giGJvE6Hp9fU1W59dv/2kqH41LTnn7x5cwJPecqAqHwlS1vf/Kf977+/JMP3n7Lukhm1oSXXt/y8Qfv3n/X7f/457+CgkMIIWXFhWtXLLZf+dsffZaU7PC0pgGu7ZY77q6rfXDTxptpmpbLAxYvW354/z7bSm69488ikfjVv7/42subhXyBwWT80623/+Hqaweyve6WbW5q/PC9t//+wjPWv/7RMbEPP/7UOe9VAO+iMCIrjDyz2Zybl5eUkOj8qD+dTldYXJyYkBAZEVFZVW00GrIyM12uxPNcG41WW1NTGxQUGBPNrdS2tLa2tbcnxMcHBQaWn62IiAgPDgqyzmJZtrK6miJUclKibSmj0VhTW2dhLPFxcXKZjBNzRlq6bdB+g9GYX1CQkjzONvhfvz0SQi66dN0lF6+x3fswpvyy62B0QmJ03CC+UHJWXJgfEhoWHRNLCGEYpiAvNzklNTCwZw93KRS1NVWci/pampstZlNsfMInH7x7YO+etz/6zH6uRqtpqKsViyWxsXF8gcA60WwytTQ3qbq7wyIirLdz2xiNxtrqqqDgYM50a2wmk8PV13w+f0LOJGuoDfW1RqMxISFJKBIVnMmdMHESTdPOm9De1trS3JQ9cbJtJaUlRYGBQTGxcQzDFOXn5Uye0tne3tbeGp+YJJPKiBPb9lrM5pLiQtuq3MUwkN0O9jo72uvraq2vxRJJYmKy2KnKSQhRq1QNDXVhYeHhEZFtrS1mk8n+mVJtrS3Krq7E5HHWVM1zYxuGYdpaW7s6O4JDwyIiI50/PvvVNjXUq9Xq9EwXZVaGYVqaGlXdyvCoaPtRst2F4byqwrwz0bGxYeER1rfKLkVNdVXOpCnDdETlnTiRFBMxPn0Qw4yNAI1Wt33vkexp0+TuBxsbbtesu3jFRWv+dNsdhJAuheLma9bPWbjowUd7xpflDPyRn3vqy88+/t8vv0tlckLIm6/+vb625tnN//jD2pVb3vswITH5zVf/3lRf93/PvLB+7apXt7xtG6HNXY823cquP151+c0b71q77grPnT5y/z32z//z3HjktTQ1NVRVXrx8cLWPEXD4ZJ6Z4qdmnfu3Jv0yGgytrc1atToiOiYkJNRds9aWZrValZiYbP2LaTQYfv7h+0uvWE/TdG1NdZeik9M+M2uCdTSKwa6NEMIwTGNDHSEkLj6RZVnrX0D7xU1GY0N9nYWxRMfG2f4glpeWyOVyzq9Q54kulyWEtDQ3d3V2yAMCYuLih+9PJGNhjh/YP3f6xOhIt8/DBjgfqN+DF/D5fHd39UskEtuslHHJHlbiea6NTCp1dylBVGRkVGSk9XV6Wqr9LIqiUsdxzyaFQiGnmZV9zFYiodDlBnro8fSZMw2NjRdduMJ5qbFAKBCYTZ5uTh4I+4cS0zTNSfWDQ0KCQ0I4i0RF9zyS+mx5aXJqCmeuTCrLyBzPmcgXCKwX1TsTCoVpGa4LUvaxcdA0nZCYbHtrO4Nx3oTwiMjwiEj7Kbb7+Wmati4YGh4eGu72jMG2vTw+376O4C4GGKzQsPDQsP7P2OQBAbbPzrlaFBEZZT/Rc2MbmqajoqNtH7Ez+9V6eIQ1TdMxcfHODdyF4dwye9Jk+7dBwSGTpnB/9IaQ2WQSCgXDt37/EBwSctX1N/znnX9duu4Ka+rueeCP+QuXPPHXBw4f3B8RGWX95bBoybJH/7Jp3+5dQcEh6VmDuPvjvX/9Mzw8ctWatf12ShxHUcHQJAMkFAgMuuF9vqZQJLI9/cGDyKjoyKi+X0FCkWjd+qusrxOTkhOTkgfVqYe1EUJomraFRFGU858tgVBoHb7Unsuip/NEl8sSQjz/jh0qZrOJECIU4NcaDBd8vQPgE7b+9PP4rEzbeAFjTaBcqrN7PM8IOFtWWlZabLFYTEbjbz/9cOLokauu/eNIBgAA589kMpmMxgCZ1NuBjALr/nBVZFS09ZE6pL+BPyZPnSYWi9/Z8sb8hT0XbE+cPCUgIOCtN16ZM38BRVH9dtfdrczLPf3I/fccOrDv/r8+KhAK++2UM4oKhiYZoAC5VKfVejsKGDJajZYQIpfj1xoMF3z/D+B9BoNh++87brv5Jm8H4jWhwUElZ2usw02PTI8FeWfef3uL9QnngUFBjz+72fmOfQDwcd2KLoqiQoICvR3IKCAQCm/aeOeLTz++Z8fvS5av8DzwB4/Hmz1vwc5tv9ryf5qm5y1c/MsP38+dv8hND4QQ8vXnn3zz5WcsyzIMI5FKZs2d/+4nX9quGPfcKWcUFQxNMkChwUGFpZUGnU7k6m4jGHW6FQqZTIrv/2H44P5/AO/TaLXFJSVZGRlyuXdua/Q6tUb7+76jWZMmBTldoj98dFpdY0OtWCwZ1hv5AGD4nC0qJBbzotlTvR0Ily/c/28/JIpN/pnTAQGB1mubPQ/80dHe1lBfN3HyVFtZtrOzo762ZkL2RL6bzMQ20AlFUZFRMZFRUc4lXc+dckZR8amhSXz2/n+GZX/ZeSA6ITE2IcHbscD5Ylk27/jxhOjwnKw0b8cCfgv5PwD4hH1HTjE8fkZ2jrcDAYDRwWgwnDl6dOrErMS4Yb8jd7B8If+HoeWz+T8hJK+4vL65ffKsWSN2DZ1XmIwmgb8P9tHV2Vman79s4axAuYtBfAGGBL7yAgCfkJGapGjv6O7q8nYgADA61FVWiiXi+JjI/psC+LW05ASz0djS0ODtQIZX7ulclUrl7SiGEcuydZWV0ZHhSP5hWCH/BwCfEB0RFh0RVlN+FhclAUC/Bgdi2QAAIABJREFU1N3K9tbWSVlpuHkHQCoRp6ck1tfUGI3D+yAA7yotLa84W+HtKIZRS2OjXqebmOXi0QMAQwh/NQHAV0wcn6bX6xpra70dCAD4NIvFXFlWHhkeGhOF52MDEEJIRkqikM+rLi/z1xp6a0trt1JZWlzq7UCGi06nbaipTktOkOOBJjDMkP8DgK+Qy6RTsjPqq6vbW1u9HQsA+CiWZSuKi1mzadpEF4/yhkHRarVaPDrOL/B4vJlTspWdivqqKm/HMizKy88SinR0dCoUCm/HMvTMZlN5QUGAVJKVNkafAw0jCfk/APiQpPiYtOSEqrJSDAQAAM5Ylq0uL+vuUs6dPkkiFnk7nFFv/74D+/cd8HYUMDTCQoKmTcxqrKtraWj0dixDjGXZstJSwhKaR5eXnfV2OEPMYjGXFRQSlp07YxKPx/N2OOD/kP8DgG/JyUqNjQwvzc9va272diwA4EMsFkt5QUFHa+usKROCgzCuPgBXQmxUdmZK9dny2opKf7oRoLGhUafVE0IYC1NSVOI/G0aIQa8vOp1r0uvmzZgkEgq9HQ6MCXxvBwAA4ICiqJlTsovKKktLS3UaTXxyMo1yOMCYp9WoK4tLLWbjwllTQ4IDvR0OgI/KSEmSiMWn80v0Os24jAyB0B8ukykrK6dpmmEYQoharW5rbY2M9IcHf3R1dlaWlEokwnmzZuCCJhgxyP8BwBdNyEgJkMvOFJV1trXFp6SE+8VfegA4B2azqa6quq2pKSQocObM6VKJ2NsRAfi0hNgomVR8LLfozLHjsUmJMXHx1Gh+TAZjsVSUV1iTf0IIj0eXl50d7fm/XqurrTyr6OiMj4maOjGTj+85YAQh/wcAH5UQGxUZHlpUVllZUtJUUxseEx0aHi4S49QfYExgWValVHa0tXW0tgh4vGkTsxLjor0dFMDoEBoctGLR7LNVdaUVNS31jREx0aHh4VK53NtxnYva2jr75xpaLExpSenc+XNpivJiVOeGsViUXV0dLc2K9g6ZXLpw9tTw0GBvBwVjDvJ/APBdIqFgak5mSlJcZU19fU1NbUWFUCgUSyV8voCMwj/8ADAQrMViMpm0Wg1jYQLksgnp45LjY/l8fD8GMAg8ms5MTUqMi66sbaipb26oqeEL+BKpjM/nj67LAfILimiKYuyGM9Dr9McPHQ4NGU2ZM2M2G41GvVbLEhIaHDht0vj4mEgKZzLgDcj/AcDXBQXIp+ZkTc7O7FQoFUqVRqszmUx+NLARADjgCYXCIFmgPC48NFgmlXg7HIBRTCIWZWekZGekdClVCmV3t1prMpkYZtT8BTVbLG1tHYzjn3yKotpaW+PCQ7wV1Tngi8Si0MCgAHlEaLBIhHH+wJuQ/wPA6EBTVHhoMK6UAwAAGKzgoIDR+NSMM0VlztUKlmVbWtunXX0pbpsHOAej6fofAAAAAAAYI3ILS13e7mcwms5W1Y58PAB+APk/AAAAAAD4Fp1eX1Fdz7KM8yweTZ0pLBv5kAD8APJ/AAAAAADwLQUlfY/947AwbHF5tdFoGuGQAPwA7v8HAAAAAADfojcYcrLSbG/LKmtCggIjwvqG/WtXdMVGRXgjNIBRDPk/AAAAAAD4loWzp9m/feXtTyZPyFg0Z5q79gAwELj+HwAAAAAAAMD/If8HAAAAAAAA8H/I/wEAAAAAAAD8H+7/BwAA6NOt0jS3trcrlEqV2mQyWywWb0c05vB4PIGAHxQgDw8Jio4KD5TLvB0RwOjWoehqbu3oVKq61RqzyexuUH0fp9HqCksrOxRKbwdyLvh8nlAoDA6UR4SFxESGS8Qib0cEYxfyfwAAAEIIaWnrLDlb3dmlFAqFgcHBkXFxAoGQpnGh3EhjGMZkMmpV6vLq+sKyytDgoKy05KiIUG/HBTDKsCxbU99UVlWr0egkUklAUHBMQhhfIKApytuhnYvSyprwqMj08ZneDuRcWCwWo8GgUasKSivyisqjI8PGp48LCpB7Oy4Yi5D/AwDAWKfR6vKKy5tbO0LCw8ZPnhwYHOztiM5XYUFRe1ubt6MYAkajsbmiOrewRCIRhwUH8vmj47zFbDbXN7WqDEcFAoG3Y/GkvbUtPBKPT/NPHQrlmaIylUoTHhOTOj5bIhv119HweDyJTBYaMbqPWJZhFB0dTXX1uw+eGJcQOz5jnNC3f0uA/xkdf0cBAACGSV1jy+n8EpFE4h+Zv1V9fX1TQ1NomD98Z07RPJ5Q1K3SdilVAXKZWCT0dkT9s1gYvdGkUql5PJ63Y/EkIDAwLCzM21HA0CssqyyrqAkOCcmZOUMikXo7HOhD0XRoRERoRER7S0tdZWVDS9ucaTmhwUHejgvGEOT/AAAwdhWVVZVWVMckJCSMG0eNzmti3YmJi1m56kJvRzFkWJatq6pqqqvLTE2ekDHO2+H0Q6PVbd97JHvaNHlAgLdjgbHFYrGcyCtubu1IzcoKj4rydjjgVnhUVEh42NnikgNHc6dNyoqPwYcFIwT5PwAAjFG5hWU19U0pmZkR0dHejgX6QVFUYkqKRCotLy83mkxTsjO8HRGAz2EY5uDxPKVakzVpYkCQn1zN5Md4PH5GdnZtVeXx3CKz2ZKcEOvtiGBMQP4PAABj0dnquuq6xvQJ2SHhuP551IiIjubzBeVFhXKZJC05wdvhAPiWU/klSpV6wtQpEumov9t/jKAoKikllUfzzhSWyaSSiLAQb0cE/g/DGgMAwJjT0tZRUFKRkDIOyf+oExIelpAyrqCkoqWtw9uxAPiQsoqa+qbWtAkTkPyPOvHJySEREUdPF2i0Om/HAv4P+T8AAIwtFoslt7AsLCIiJh5fII9KMfEJYRERuYVlFovF27EA+AS1Rld8tjpxXEpQCL5AHpVSMjOFIvGZwjJvBwL+D9f/AwDA2FJWWWswmbNSU901+OerL9dWV1pfR0REJY4bt3Dx0thhKxbYuqNoOiYmdsaceQsWLRmmvgaLZdn/ff3F9Jmzk1Pc7i6vSExLzTt+vKyydny6r48FCDAC8ovLxWJJVHyc52Ynjx/76tMPZ8yee+U119smWszmRx6456bb7szKzrFNfPGZxy9YvnLGrDmPPHDPiovWrFi1xnlt7731pslsuuOe+92tBAaOpunktLTC3Nym1vaYyHBvhwP+DN//AwDAGKLTG8qrauMTkwRCt4+RO1teyuPxlyy7cNHSZUGhIQf27r79T9d99/WXwxSSrbu58xcZDcbnn3j0jZc3D1Nfg9XVpXj3rTd3bPvV24FwCQTCuISk8qpand7g7VgAvKy1vbO5rSM5I63fh5j8+tP31VVV33/7NcuytokMw+Tlnu7u7rZN6VIo9u7cERkVbZ314btvm00mzqoa6+v+998vz5aXuVsJDJY8KCg8MjKv+Kz9pwMw5PD9PwAAjCHVdY00zY+K62eY5dS09NWXXGZ9zbLsV59+9PaW18elpU2ZNsPDUv948TmjyfDIE88ONir77rInTX7zlZeWr1o9IWfSYNcz5EJCQj/47OvwSF98MFVUXGxjXV11XSMuAYAxrqKmPigkuN8B/3Va3bHDhx585Innn3qsuDDfw2+YgjO5AQGBySmp1rS/o71tx/bfVq1Za9/m688/YRhmSOIHm/jk5Nxjx1raOqJxCQAMG3z/DwAAY0hdU0t4VBRFD+LPH0VRV19/Y87kKe/8843hC8zmorWXyuQBRQX5I9DXQMTGJwjdXyvhRRRNh0dF1TW1ejsQAG8ymkwtbZ0R0f0/Ou7Qwb0hISELl16Qkpq+f+9uDy3z805PmjLVdjXBnPkLONl+R3vbrh3bl1+46jyDBw6RRBIUElzXiF9rMIzw/T8AAIwVGq1Oo9ElpYeew7JrLln30nNPGfR6vkBw9NDB40cOtbe1BoWELLtw1dTpMwkhn/7nvd9/+5kQoujoGJeadsc991ssFpctPaNpOiIyUqPREEKefuyhW++45/jRw3mnT85dsGj5qtWEkML8M3t2/t7a0pI8LuXSK9aHhvV9TVRWXLhrx/aGurro+HHRMT35wNFDBw7t36tSdWdPnHzJuj9Yb3xobmr8eet3tTVVAYFBqWkZay+7nC8QuJz49GMPXfaHqydPnWaN56aNdx7cv6+8uEgml19y+fq0jExb78ePHj64d7dOp5s0ZRqPz2dZ5qKLLz2HXT1wwWGhTfV1Gq1OJpUMa0cAPqutQ0EREjyA58bt2bF9weILCCHzFi7a/uvPG+/a5K5lXu7plav7vu1fc+nlf3v2yYN79yxceoF1yjdffT5/4eLouPim5qbz3gJwEBwa1lhb4+0owJ/h+38AABgrupQqiqJk8sBzWDYuLo5l2caG+va21q+/+IQv4E+bMYtH048+sOnooQOEkBmz5kikEh6Pd8nlV85ftJQQ4q6lZyajsa25OXlcCiGkMD//3jtv3btrR3xiUkRUNCHklx+3Pv7g/VKpbNKUqSePH739xuuaGhusC+7Y/tvD9/+Zounps+YwFkan1RFCPv7g3bdefyV5XOr0mXN279j+fw/dxzBMZ3v7Pbfd1NTUMGv2vPjEpLraar5A4HKiNYYuRae1i8MH9t96/Yauzo4p02cqlcp777y1pqbKOuubrz5/7olH5QGB6Vnj9+z8/bWXXmhqaDiH/Two8oBAiqK6utXD3RGAz1IoVRKpjMfr5ys9lar71Inji5ZcQAiZu2Bha0tzWWmxy5Zqlaq6ssJa8rOSSqWXXr7+y88+tq3qt5+22o8gCENIHhhoMpm1Or23AwG/he//AQBgrNDq9EKRiOadS+1bJg8ghDAsExUd89pb79qm6w36XTu2zZ63ICs7Z8GiC4wmw4LFS6yz3LX00ItBr3/7n6+FhkfMXbDIOiUkOOSVLW9bX3cru97b8sbDTzxtXcmll6//88abPnr/7b8+/oxWo377jVcfePjxBUuWEkK2/badENLc1PjVpx/9+8NPExKTCSGLL1h+zeUXlxYXtja3mMzGR598jra7DyL/TK7zRA6pRHrl9Tdcfe0fCSGr11561WWrd/++/cZbNioUnR+//86jTz43Z/4CQsjl669evXR+v0ORnT+aRwtFIq0OT8yGsUur04uk4n6b7d+zOyQkNGP8BEJIanpmZFT0gT27MzLHO7cszD8jlwdwHvlx6R+u/PbrL04eOzp91uyt33w9cfLUcalpB/fvHaqtABuxVEII0Wh1Ukn/HyvAOUD+DwAAY4XJbOb39y2ZOy0tLRRFxccnEkIsZnNhQX5R/pluVfeJw4etp9QuDbDlN199vmfXDoZlujo7J06e8vSLf7fdcn/NDTfZmpWWFLMUa6sg8AWClavXfvffL6yzdHrdvEWL7VdbWlRksVje+9c/+yZRVHtrW3pmFsuSBzfdecHylXMXLLTeQeByIgdfKIzpva2Ax+dPnjKto62NEFJWXMzj0dbknxBC0/SkKVM97c2hw+fxTSbzyPQF4IPMJjOP3/8IHf964xWT0fjwvXdZ37a2NH/9+Sc3bbzTuWV+rsPN/1aBgUFrLln31WcfZ0+ctPXb/z714ktDEjw4s17KYTLj1xoMF+T/AAAwVrAsS+hz/FK6qCAvNj5BJBZ3dysfuX+TTCZdsPiC5JS0mqpKxuJ6EOyBt8zKzrnptjsEAkFcfEIgZxBvu3gVnZ0ikcM3QqFhYdbr/FtbWsRiMeere4qmCCHr1l9tm37FVdckp6QGBga9+/EX237+ceu3X7/1xitLli7f9NAjsfHxzhM9j/zHFwp6t7RLLPLSHfg0hWdlwVjGsGy/19p0drSbjMZlK1ZlT5psnRIUErJ/966qirPjUtM4jfPP5C5dsdJ5JVdcueGGDVe8/OIziePGZU+cPCTBgzPrp8ky+LUGwwX5PwAAQD+6u5Xf/ferP9/3ICHk4L493cquLe99aJ21e+e2vTt39DW1O2frp6WdnJxJk6ZMcznLXmxsXJdC0dzUaBvbr7LibNK4FEJIRGSUWqVqb2sNj4i0tU9MSiaEUIRyXnlEZNR1f7rluj/dUlFeet9dGydNm75y9cUuJ/YbFSEkJiZOoehsaW6Kio7pnTbsF/8DwADt3bUzNDz8L489YasUrFyz9vSJ4/v37ubk/zqt7mx56b0PPeK8ktDw8BUrL/rlx63P/u2VkQgaAIYHxv8DAABwy2gwnD55/J7bbpo4efKS5SsIIRRFd7S3lRYVEkI629v37txhS7kDg4JKigpMRqP1rYeW52Z8zsSk5JRXNj/XrewihBQX5v/wv2+uuOoaQkh2zsTwiMi3Xv+HQa8nhJhNJpPRmJySOn3mrC2vvWwbI9D6orO9vbqywjolIDCIpmmhUOhy4gADmzBxUlLSuFc2P6fsUhBCyktL8nJPnc+WAsAQ2r3z94WLl9pfJsDj8WbPmX9wD/cpgEWF+VKpjHPzv811N97yl0cenzln7jDGCgDDDN//AwAAcP3843e2G/KDg0OuvPaPl16x3jpr6bIV23/5adMdtwQFh9AUNSFnkkgkss5ac8m63Tu3b7j84qDgkH998ImHlueGx+M99szzm59+4urL1gQGBel0ups33mW9614kFj/29HObn3nyqstWh4aFxyWmpqZlEEL+8tiTr7304s3XXhkXn6jX6wRCwXuffFVSXPTyi88SQgIDA1tbmucvXrJoyQVHDx9ynjjAwGiafvSZ5557/LEN6y6WBwQGBwdHRUefz5YCwFBpamwoKy689Y67ONPnLly88/ffamuqbYN6EELyc0853/xvExoebn0KqTt/e+YJnkBge/v4sy9MnDxCQ4EAwADhrjkAABgrCksrGtoUOdP6udK+orxUo9EQQng0Ly4hMTiE+2BtlmXramvMZlNCQpLJYm5pbLRdQ2s0GGqqq8IiIkJDwzy3tO9OKpPHxMY5R1JUkBcXnxAUzA2gpblZo1ElJibz7U61CSEMwzQ3Nqg16vKyKr6Av3LVhdbpapWqsb5WHhAYExdvPbO3mM2NjfUalToyKjo0vGeoP5cT7WPgxFNbU03TVHxCkm23NNbX8QXCqOjoP9/2pwtWrFq3/irPu/r8FZw6FRcRkp3p+utKb9Foddv3HsmeNk0eEODtWEaB8rKzxt6rZnyWSqlUtLdNGp/u7UC4zlbXUTxBWFSUuwY6rbazoz02PoGT1VvM5uamxpCwMKlE2lBfFx4RIRJLvvnys7SMzCnTZvQ0YtmG+rqIqCih0EXtUtWt1Ov1EZFRtpacBhGRkULRkA1if/Tw0SnTpkyb7v8FhaN7986akh0Xc17XiwG4g+//AQAAHKSmZ3puQFGU9dZ6QoiACO1TeqFIlJ6ZNZCWA+luQs4kl9OjoqMJcfEFO03TsfEJhJCqKocTcXlAQMb4bPspPD7f+lDAfifax8CJx7ZpVhRFxSUkEkJMRmNjQ0NCUpLL4AE4jh05qtFoeTyetwPxhGUZxsI0t7Z7OxAus9lCKEJXVHluVlfX6Hm69UVIWJRWazxy6MhAlrWqOOu2a88LngMfP0gARgXk/wAAAHC+mpsaWYaJiYtnWfazD98PDwufNmOWt4OCUWPGrBk+/r1uS1NTQ1XlxcsXejsQrgPHcimheFxGhrcDAYDRAfk/AAAAnK+CM7mvvbw5QB5gNBgiY2Ief/5FzsMIAQAAwOuQ/wMAAIx6rS0tbW0dtrfdym5CSGFBkW1KRERYpPs7hM/f8lWr5y5a3FBXGxQUgsH/AAAAfBPyfwAAgFFPpzfs3b2XoimKWIf4Ygkh+/fuJ4SwhGUZds0la4Y7BplUlpE5frh7AQAAgHOG/B8AAGDUS0iIF4nFBr2eJfaP9el5LRKJEhLivRIYAAAA+A7cmwcAADDq0TSdnp7qcnBsmkenZ6bjbnwAAADA2QAAAIA/SM9It1gsztMZC5Oe7uK5gwAAADDWIP8HAADwB9GxMTKZ1Hm6TCaLjo0Z+XgAAADA1yD/BwAA8AcUIZlZmZzr/GmazszKoLwVEwAAAPgS5P8AAAB+Ij0jjWEY+ykMw6RnpnsrHgAAAPApyP8BAAD8RFh4eFBwkP23/UFBgWFhYV4LCAAAAHwJ8n8AAAD/kZWVSfXeAkDzeFkTsrwbDwAAAPgO5P8AAAD+Iy0jne29BYCxWNLSMPI/AAAA9ED+DwAA4D+CggLDIiMoQlGERESGBwUHeTsiAAAA8BXI/wEAAPxKVmYGoSlC05mZmd6OBQAAAHwI8n8AAAC/kpaRRhiWZdm09FRvxwIAAAA+hO/tAAAAAGAoSaXSmPhYQohUJvN2LAAAAOBDkP8DAAD4m8zMDIrqvxkAAACMKcj/AQAA/E1q2jhvhwAwUFOmTQ0PD/V2FAAAYwLyfwAAAH8jFIq8HQLAQGXnTPB2CAAAYwXG/wMAAAAAAADwf8j/AQAAAAAAAPwf8n8AAAAAAAAA/4f8HwAAAAAAAMD/If8HAAAAAAAA8H/I/wEAAAAAAAD8H/J/AAAAAAAAAP+H/B8AAAAAAADA/yH/BwAAAAAAAPB/yP8BAAAAAAAA/B/yfwAAAAAAAAD/h/wfAAAAAAAAwP8h/wcAAAAAAADwf8j/AQAAAAAAAPwf8n8AAAAAAAAA/4f8HwAAAAAAAMD/If8HAAAAAAAA8H/I/wEAAAAAAAD8H/J/AAAAAAAAAP+H/B8AAAAAAADA/yH/BwAAAAAAAPB/yP8BAAAAAAAA/B/f2wEAAACMJrpui67LXLqv23Ey5fCP0yuKcFCU06S+We4XdZzg6pVtAuV+loue3K/QZQycFXMnOe0Np2kUIYlzBKIgWiR3uyPGOL1JY7IYDpf+1K1r753mYl9xP0SHj8XNvvUww+U63X+UrgJytw6HBm57cBub80rdHHZOK44OSsuImi3iS/k8oft1j2GMmei7SEsBqdztcr6HXzQOzdzOZe2XdfFbh3WzZk8Hg8d12k31fBw6vmM9NOBOc7New5R7CC1gRSHuugXwOuT/AAAAA9LVaMz9SVGwrYv0nOlyMlr7tz3/4Zx/Oi7lcG5rn69zTnoph4LAgJbi9DyIlfe/FGW3rZzNtt88TnJIOTct/c1IKJKyRJi+TCiPwgWJfdT6ruMVv23L+7ilq4Y4J71OWQ2nmEQ5HyHcwoyLOhLl+MapT3dlI4rifMzE8WDgZlmOlSm3B7PDKh26cC5NOcx1W6lIDMtZlHFtZvRcAU9EwKb2CDn4Cinfbn1HUXY5sMvs2mFvOybMLksAPQeUm3Sdc3hQxDkJd27c+y/ranFu786N3fZOCHHafOdtt1ucdZxDCEXEuS+zolDDxDsN429k5fFOAQF4H/J/AACAfnTUGfJ+VpQf6DbqGOuZHstaz317Tldtk3rf9vyHpXpfE+K0FEux9ienvW84MwhhWdaW1QxwKU7Pg1h5/0uxhFC928rZ7N7/czaVu5R9M1K5x1h3xJwwi59ygSAolnfOn5F/0BnVB0u37sz/oklZZfuQ7PY2cfqUrA1Y+7zXvr3TZ+rq0+k7ZPveOB4ljkeXYzz2ndv9SHAOCBdr4sx1PN5cHjmc3l10wd0VdvHUdhR8dviR+NAJizOuy4lf6voDGEvY2iPU4TfY0l/sU1yWpfqyes5h4ziR27hnilMS3nNAURRhXayQc3iw1goOa7+4/e81x8UpwrJOi3N7ZyluY7e9E0KxFHHcfOdtt1u8r7H9HwPK0Ck+8Zyw+ANj1g3GCTczqAKAj0H+DwAA4EnRTuX+/7QYtQyhHM4eUQIYqhKASc9U7jPVHTdPvlKcNH/snplUtuZ/f2xLXu0+61v7RBYlgCEpAbCEqu8s+vzoY7PaLluUcV2oLNb5UxgLWKOaHPone/A1YtYTwv0aHCWA8y8BEEJoTaP45IvCqq26uS+YElcRAJ+By+0AAABcYyzsrn837Xyr0ai1EEKs567E+sr6D2v32m5S71vWbqm+01nHpVjOiS5xOYMQlmUdmg1gKU7Pg1h5/0uxdtvK2Wz7zbN7zV2Ks+9Yk449+bHu1Kd6xkLGoLKmky9+d8OZ3uSfEMdPxWFvExdHFbe5Q3unz7Svhf0Hz23CPUocjy63RxBxcTA4NHZYk9Mh4nzk9bayf+8YN3cl3J3lsA6WZY9WfPfB/ns61fVkDDLpqM/Wkz2bKWvyz/0orVMcc2KHf7lvHBq7WWHvAUXZXjusg3N4sMSpJuGice+/lKvFub07N3bbOyHEafOdt91uccpxjkNrurNI9usVosJ3uN0AeA/yfwAAABcsJmbf+y0F27tY++QJJYDhLAGwLKnaZ8r7Ss+Yxta5clH9kX/8eLvRrPf0qaAEMHQlAEJIh7rh/QObOsZaCcCoYj9bz9YcJoSzu7gNUQJwipy4neKxBEAYi2TfPaKCd5xiAvAO5P8AAAAunN7amfdrp/tknvSd6aEEYL9NvZOJyx3EXYpbAiCEVOwxlf9uImNGU1fVG79t0pnUPe9RAhipEkCnuvH9/fdwts+/sd/fxVYf7LtiHiUAd72TIS0BECI9cJ+g5henmAC8APk/AAAAV0u57uTWjp43KAF4WmpYSgBl242KqjFxG4DRrP/iwEtaQzdxm/SiBDCMJQCFpum3vC1kjMj9nC3bYX2JEsAIlwBYlpEc+T96rF1vAj4J+T8AAIADliVbn6vVq82us1qUALhLDX0JwKhlD76pc3H67ne+P/7W6eo9bvawHZQAHFc5hCWA/eVf5NXtIP6ObS9jfriPmHR2OxUlgP56J0NZAqA7i6S7N3L7ABhxyP8BAAAcnPy+Xac0E0LcZrUoAXCXGvoSgEHNlm03Er+mNXb/ePJd4piyogQwwiUAlmV2FX1gtvj1wcYy7O7NxLaNKAE4NR6ZEgC/fie/frdTQAAjCvk/AACAg4LfFYQ4ZfB2L1ECcLXU0JcAqg/4+SgAewq/cbXxKAGMdAmgRVVV05lP/JhRw+Z/5zAFJQCnxiNTAhAWf+AUDcCIQv6p9VgwAAAgAElEQVQPAADQp7FIo2o3us7g7V76fgmAuJkxikoA2k6mvdyfRwE4VPYzIS43fgRLAH1v+1qMwRLAmdrtxH+xed8Q5zQYJQCnxiNQAhDU76Z0bU7RAIwc5P8AAAB96vI1FiPLSdlHYwnAafnRVwJgjGxriZn4qaauqhZFjYvDY4RLAC5S9LFYAqhpz9eZVMRPsWU91Q2UANwsPnIlAErfwW897hQKwMhB/g8AANCnNq/3MWx+UQIY7TcCtJX47ff/1a1F1mf++UQJwMPh2/vKv0sALapKtaGT+Cm2an/fa5QAXC8+ciUAXsNepzgARg7yfwAAgB7KFqOi3ugu0R+NJQAPS42KEoCqyaJpZ4g/yq3qywFYd/WPESsBOPTY12JMlQBKGw8Rv1R1gJgN9hNQAnCz+AiVAIS125yCABg5yP8BAAB66FRmTZeJk/CiBOBi5f0vNTQlAL2KNaj9M/9v7KpylYqgBMBd04iVANpUNcQfMe0VrIV7HQ1KAG4WH4kSAN1Z4hQBwMhB/g8AAOAMJQBfKQH4N1dZMUoA3DWNWAnAj/WfhKME4NR4+EoAAF6E/B8AAMAllABQAhhWzgcTYZ03HiUAh1aOoXJ7RwnAE5QA+u0dJQAYC5D/AwAA9OGeIqIE4P0SgJ/ibj1nDkoA3DWNQAnA76EE0G/vI1MCAPAi5P8AAAB2uAkBSgAoAQwb9yUA+0koAaAEcL4GlYSjBODUGCUA8CfI/wEAABz5ewmAuJnhmyUAP+emBODi8EAJwKGVY6jc3lECcIISQM+/KAHAWIf8HwAAwIlflwBYwo6uqwD8EuuU9xKUAFACGAYuE1eUAPrtHSUA8Fd8bwcAAADgQ1jbWSTLshRlf05n955lCUX1te59y53T8x+Wsp3D2lr3vnZcgdNS9uHYL8VSvSvtedvbA0uxPB4VEMKneYQQQhw2gRCWUiksFjPrvJRtdZye3TXj7pEBLcUSQrnZWb3/52yqv7M7DpwPpp6EgeLuJ+ss+z3s5lNxXJvTp+TcnNM7K+AJBTwBj+YL+SKKUAKegKIoQiiKooIloUaLQWtUWxszrMXCmC0MY2bMZsZothgZlunt0+7ocozHvnPOrrDf2L7o7X+W7Oa62Ruc483hB9VVF/5cAqC4rwjLUhTFLQA5/L7oO9goypbCutiZrlZI8XlBsYSmCecHmbJ/6bjDKacfecqxJUUIIYxOQfRKTjC98VDcyhDF3fDefynCsk6LO/bet3hfY5d7sucdSxHb5vf9KidupwB4CfJ/AAAAew756WgsAUxfFbj8hlCByMV5JmMhJ35VbX+/03kplAC8xXMJgDjusuErAUiF8mBpaIA4OEweGRUYGxUYFyILDxSHyEQBYoEkUBJCE0oqCqAp15eOmixGnUlrNOv1Jq3GoFIbVEpdZ4e6uVXV2KpqVGjbu3UKlV7JsBbfLgH4rREuAcgX3y9f9jDFEw75hpgbTik/v4JVt3KC6Y0HJQCAfiD/BwAA6NVz5ja6SwATF8tcJv+EEJpHJi+TbX+v003W5IslgLGg3xIAIc77ybrguZcApEJ5XEjSuPDMceEZyREZYbLIQHGwTBzIp8/l5FDAEwrcJ3tao1ql71LqOhu7aqo7yuo6KxuV1W2qJoa1oAQwYkasBEALxdKZfxyO5J8Qwo+bJp5+k3bvZtdJ+CgpAQB4EfJ/AAAAO66S+dFVAqBoT6kMTVOebx/wtRKAh20Z1ZwfPu+hBODi8DinEgCfFqRFTZiWNC8nbkZyeLpUKBcLJMO7nYQQQqRCuVQojwqMz4iaRAixMGa9SafUdZa35hc35xY2nGjoqvZ+CcCPcfPe4S0BEIGM8EVDvAl2JDNu1h39N6vvGr0lAAAvQv4PAADQx3X+NapKALYole3mYz92W19nL5TFpvWdkY+mEoD/4t57PzwlAJqiA8SB2XHTFqStmJmyKFAS4nyfNYeFMZssRpPFZGZMan23zqRpV7dYLOYuXSdLGEKI3qhTG5SEkBBpOJ8nsC4VKA4W8kUyUaBMKA+Whgl4Qj5PwKcFAp6QMwwFj+bLRAEyUUBscNLijItZwrZ2N56q3X+sevfZ1kKdUcNaR0gb2RKAn38tO6IlgL7vuM1tZdrjH9lauj3ynGZQThNFmasFyfMJIXRgjGTmzdr9/3CbhPt+CQDAe5D/AwAAOBjtJQAbtcJy6Psu64yIRKF9/u+8lO+WAPzasJYAxAJJelTOsglr56QuDZVFuIuBYZlunUKpU7R2N9R0VDQr61pVTZ2aNqW2U6nvtDBmW0tbBtT71vqPY6bW20QuCgwQhwRLQ0NkEZEBsYmhqXEhySHS8CBJqFggtQ+AIlRUYNxFOVdflHNVS3fD0apdByu2VbeXWhjzSJcA/NsIXwVACCHE0lmt2f8GIU6HjdMb59t9OCs0N5wK+uN3FF9MCCWefI3+xH8YXedoLQEAeA/yfwAAAHvOX0CP4hKA+xkuZvpmCcDvDUcJQCySLc5ctSrniozoHJe35TOMpbm7vrKttKy5oKyloFXVqNC06U0661zO1/UU5wjh5E6cwRp7D1m1oVtt6G5S1hLSUzmgKDpQHBwqi0gKS8+MnpQSMSE5NF3kcAMCFRUYf8nkP1444Q8FDce3Ff03v+Go2WIaqRLAGOCNEoDbrgfZu6numKlijzBzFSGEF54hzL5cf+I9d9vSuzhKAABcyP8BAAA4/LAEYH8SzM3SfbsE0M9n5ReGsAQg5IuWjV97xYwbE8NSncfq1xhU+fUnTtYcLGo41aZqUhu6GZZx+l7fKR72HEsAlN0bliKEZZS6TqWus6q9dE/ZT2K+JFganhM3Y1rigknxs+WiQFuPYoF0RvLiyQlzCxqPf3Hsn5XtJU4/lXbxDFkJwE+xTm9HZwmANRt0x98Xpi0jPAGhaMm0Gwx5X7PGbnfb0rs4SgAADpD/AwAAOPP9EgBxtRRLsX2hxaaJHvtmnPU1zXc45xxVJQA/xTrmNoMsARC7XWZtRVHU+Lgpd13wWEZUNmWX+TMso9Irj1TsPlD+e0H9Cb1Jy7AMIcShN05hadhKAPZ96s26lu76lu76XSU/SIWyaYkLlo9flxk9WcQXW5sIeMKpCfOzY6ZvL/rmqxNv6UxalADODTevHuYSgCPKYYXnVwIwnt1pqj8uSJpHCOHHTRVlrdaf+bKfJNwnSwAAXoT8HwAAwIZ1PTC4D5QARDI6KFxg68b+jNRkYLvazCxjXVHfuSVFEb7QbVozakoAfu2cSwDEcZfxeYLVk67cuORB+8vpjWZDeUvhtoL/HSjbrjZ0E0Lsr+x3XJt3SgDWA4BlGY1Btb/81wNnf0sKS1uWtW5+2soQabi1lZAvvnjSdeNjpm3Z82RtZ/nwlQD8m1dLAGSoSgCsxag98HpQwmxC8wihJLPvMBRtZU26UVcCAPAi5P8AAAD2HFNX3ygBCKW8Kx+KTZ8uc/ktpU7NfP96S8kRtbV5d7s5Lt3tw7e62/uGcxsdJQB/d/4lAB5PcN28uzbMvo1H83rXw+TWHfvvsffP1B0zWgyuPxVfKgHYuqvpKP/g4Eu/5H9x4YQrlmZdGiQJtc5KjZjw0MpXXtvx17NthcNUAhgDxaaRKwH00/t5lACMZ3eYW4v50TmEEH7cdEHqMmPJT563pXdxXyoBAHgP8n8AAAAOnysBSANod8k/IUQipzNnyooPq61LbfugXdlmEkt5hHBPxy1m9tR2lftN9cUSgOttHv3sU4DzKQEQQpZPWHvlrJttyX+npu2jA2/sKv7JNp6f20/FF0sAhKJIc3fdx0de21Hy3bopNy3OWGN9xGB0YMLGRU88+/Pt3XrFcJUA/J0flABYs0G7/5XA9R8QQghFSRfebyj5mSLsKCsBAHgP8n8AAABnvlUCIKSfFMV6u7d1KUWz6dd32wkhFHEYDrDvjeMMDyUAuy3zWgnA02aPbm4zq0GVAELlkTfM/7OQJySEsITNrTn66rbHG5V11vW7SnpHRwmAENLYVfOvvc8cqdp5x+InrM8vHBeeuTrnmi9PvOX0U+liTSgBuDQSJYAB9n6uJQBDyS+WjgpeWCohRBA3XThukbFqH0oAAAPEHRgWAABgzGIJsbt/nrW7i5W1+z8h9ve32rdyWqq3uYul7Ob0/IdzbShr15+9okOqH99q+fGtlh/farWYuQ3sl2Ltt8axB9ZxzY6b6tDQ3VKs47n+IFbe/1IscdxZxE857Sj7146z+v7hHkzTk+dFBcVZXx+t2Pv4d3c2dNXaHWDO+9pFB9zenPI4bjzOx5Xnw9e5CTcex6Or9yXDWk7W7Hvm5zt0Jo11yqKM1XyK7/ATyfkJ5Pwsuf0RcAjOj+//d94ylqVctnD5M8dt7Lyv+hanOFP679256wH0zhrV2oOv98RB86WLHiQ0ry/5dr8tvcFzN9+5ce+/3MH6XBwnrIvGbnsnhDhtEcAIQ/4PAADgwMdLALXF+qM/dx39uevYzwrGKf/nLHX+JQAPS41gCcAfsS53lP3rAZUAMqMnWt8yrOWDfa/ojBrHVqO+BEAIqe0o31W81fo6MiAuUBrau44hLQEQv+VyQD7H95x/z7sEMPDez6kEYCj6wdJx1vpWkDBbkDCnr3eUAAA8Qv4PAABgh5uY+GIJwKGFqwn+VALw46yMkCEoAQh7n5bHWd7PSgA03XfKKuSJOBs5RCUAfz7W/KwEYFF36E59Ym1ECaXS2RsJze/r3fdLAADeg/wfAADAka+XAFiKItb/Ee4ptIsSAEVZ7zol9kv1vBgNJQB/PVl2u6MHWQLo1imsL2iKd+PCe0UCif+VABJCU5dkrrVNNDMm4rQrhqIE4OdGsAQw+N4HXQJgdac/sygbrG+E6RfyI7N7D6hRUAIA8CKM/wcAAOCE5QxS5v3hAG1W3Ry56uZIlzFzBm4TiunLNkVNmC93ObZZV4v5i+eaW2uM/YzY5/0nAvgtlhDXO9rh+OAeVr3HRM8h2NRVb5s1L+2Czevfe3PHs1VtZWxvzku53sOjYzhAHs2fHD/77guekQhk1plGs6FL2+lyV9hvrPN+5cx1uzf8mvMIdsM0HOC59O7ctcfeGVWL/vRnsiUPEUJRIrl07p3d399JGAuhSM9ghB63pTcerw0HCOAt+P4fAACgD+fbd9+5CqD/wPuW6lkkLE4wYZ7r5J8QEhzFn7hY3ruU26+EfeAqAH/mdkc7Fn08XAXQ0t1gP2tSwsxXNnxy86L7ogJj7FrZdcJ95aIDX7gKgKbptMicu5c+9deLXg2RhtvmtKoaGcbiuCbHn0jOTyDnZ8ntwTxWjNhVAH1vWfeNOSt0+VvPfe/aY+8x6jbra1H2ZfywdFt7XAUA4A7yfwAAAAc+WAIwGVl1l9lDzIpWk3MJgKIpyuPf+d4Hxg+uBEDczEAJYJAcjwVyjiWA1u4mhmXsZwWIgzbM2fjGtV9uXPJQWuR4mqJHVwkgQBy8MP2ih1e9+syl7y7JXCvgiew76lA3Myzj2J3tH5QAXGGddshwlwBcxjDA3gdTAmC6m/R5X1tfU0KZZNbN9u1RAgBwCdf/AwAAcHEuwPf6jQCaLvOXmxsnzJXTNPdKZYoQZYf5+C9Kp6Uczvorz2jb602EEJpHzVgV6HJLB3gjgPXkdsRuBPD8SY1unGOBuNxR/dwIoDGolFpFiCyMs+7wgOgrZ928ZvJVJU15+8q2HSrfodC0+/KNAEKeaFLC7JnjlkxPWhgmi6ApW3XKQXN3HcNaCCH2nfeu/3xvBPBTzlfVD/ONAHZz+CEJsnm3OUfELSEwZkPpNouy3nXX7nvXHtoimfEnSigjhIin36DZ/yrT3Whr77s3AgB4D/J/AAAAO66yUK+XAAjLVp5RV57peQQ6RRHbmSRlN4m7lJ0zu1W5O7sJoQQih/yfs6U+OBaAv+r7Vvz8SgA6o7ZL22HN/1V65ZGKPQszLhQLJNYGMpF8evK8aclz77rg0cq20lPVh3Lrjla0FutNOqPZ0Nudd0oAfFogEohjghMnxs3IiZsxIWa6RCijHS9ZYVm2Xd1c3Hx6Ufpq6xS7+x3YoS8B+ClOGtwzcbjHAiCEEMKPygq+7OWBBGluLWnfspg1al137aZ3S1e9PvcLyaxbCCGUQCqZdatmx9P27X20BADgPcj/AQAA+nC+6PaREgBfTIsltFBMC8W0RM6TBPDkIXy+gJIH8wkhsiAeX0jZTix3f96uaDYTp+uZOV++OqAIRQjL+mQJwH9xPvxzKwHojFpl7yMALIzl/b2vfnfy08umXTsndUmgJNg6nSKUkC/KipmUFTPpmrm364yaus6qqvay2o6KqrayZmWDxqjSGLp7KwLDUgKgCCUWSOSigEBJSHJ4Zmrk+KTQ9HHhGYGSEJc7h2EtTV2124v+t7Pk+8UZa2z5f5Oyzn4XDmEJwGUYfmNESwAWE7GYBhshPzJLMvlK7fEP3XbtundWe/Qd8eSrKFEAIUQy/Qbd8feY3ucCoAQA4Az5PwAAgANfKAHIQwWh0YLIBFFkoigyQSQP4UsDeGI5TyLnuRvPz+boTwpFs6mnesDZNDc5jjSIXntnhEHLdjQY2xtMyjazstWi7ba4CBolgKHC9vznPEsAZsbcqmy0vhbxxcHS0OLGM8WNZ5Ij0uanL5+buiQ9KlvId7iFXiKUZUTnZETnWN8azHqFpqNL29GpaWvqqmtTNbV0N6r0XWqDSmfUaI1qvUlnshj64vZYAqAoWiaUS4RSqUgmEwUGSUIiA2JjghKiguLD5VHB0rAQaZi7a/utunQdpU1n9pb/kld/VK1XEkKiA+Ntc1tVjZySxFCVAPzeiJUAGH239tRX8iWbKJ5gUBFK527UnvqSWPRuu3bVu7mt1FD0g3jqtYQQWh4hmXq9Zs9mTvy+VgIA8CLk/wAAAFxeKgGQsDjhhDmB6dPlUUkiaQBPIDrHYXp7rx3os/yPYQuuCCHE4fSU7W0aGMpPmSwRSnq6M+oZnYrpaDBV5+ur83UN5QaW8VoJ4Nz2wOjQd43HeZUAmnsviRcJxKHyCOvr6razNe1n/3fio5jghFkpi6YnzcuKnSQXOdz60bMUXxwdFBcdFGc/0WwxGcx6k8VoNBvNjNFsMSt1CpPFSAhpVzezPV/p95CLAiUCKaFIqCyCR/MFPKGAJxTyRUKeiFN68KBV1VjQcOJ07YHiptxOTZuFsdi6iArqyf+1RnW3TkG4idZQlQD892Dr+4EaoRKA8vfNmpNfEFuhh7L9h7WfQgiheILgda8Jk2YRQgRR48XZa3VnvhncQwEZi/bEh6LsyyihjBBKPGWD7uSHjKqZE79PlQAAvAj5PwAAgAsjWQKgKZI4XnrBhsjUKTKBkB7ICWLPtfpszyjs9gPAs71fLNufwgaE8gNC3W6mLNh6B0EP640GQRH8lCkSiym4rc506DtlyWGNxeywlIs4h6EE4OeGogTQ0FljnUJTdFRgrP1VBXqTrqqtrKqt7NvjH0qEsrTIrAlxUyfETU2LHB8kDeXTfNrNIyL4PAF/kF/eDoqFMVsYS6OytqK1sLQlv6jhVKuqwWDRs33Du/f9pEUF9NQmFNp2vUnXu/m4CmAwRrgEYDaZ2846rNH+c3Wcoj74VmjiTEJRhObJ5t+hL/iBtRgHVQIw1R03lu8QZV9KCOGFpYhyrtAd3uK8+SgBABDk/wAAAO6MTAlAIKRWXB+18IpwHt/FWSHDsAYdY9QxejWjbDepOs3KDrOmy6zXMHoNo+22mE2s2cjoND0FAIoQrbLnun2zkTUZWIHI7cmmTmWxbppQTKkVFqGEFkpo2jEf5Amo6BTh5Q9ElB+X/fBmu7abcblziO37YJQABoZ1SFPPqwTQ0t3IsBbrRfXxIUnE1SFoZswqvTK39mhu7VFCURRFRQbEjIvISApLTQxPTQgZFyaPFAskYoFExBf389zIQbIwFoNZpzfptEZ1a3djvaKqpuNsbefZ+s5KtaHbYTRLQhwOFkIRloiFsiBJT+1KoWnXm7Uud8UQlAD83ohfBeCwQk7vdlMMpTuMDbnC+KmEEEHcZFHmCn3Rzw4r7LcEYLFoj70nzFxJ8cWEUJKZN+lzv2B1nc6b7yslAADvQf4PAAD/z95Zx8lVZH3/1G33cbdkJpm4u4cES0LwJbi7LSzLs77PPru8sMvCIotDIHiAQHAn7h5CfJKZjPtMu956/7gt13ok0zM90znfD6Tr1q2qU9ZJn9+tqouEoZLz1XtdAph0TvKcy9MYJnLH42Kba7y1J93VR11N1Z72Zr+txe+0BoK/HYG/9Dr4KftGgMYq7/crGodNNQat8n0sgNY63+7v2rnrg5vt5T+7jMlKc5oyNVeVU6zJLNKkZCvDOwIAYMhk/aTzzeveb+3rjQAJTUwkgDZni8NjN2ktAJCTXBAqVzoFg91JKKUA9daaemvNtrK1XMEalS5Zn5KkSzXrklOMaanGDLM2KUmfYtYlqZVag8ZIgFEqlOE3C4jg9gtQSp1euzfgtbpaWp0t7c7mFkdjq7Op3dXS5mxpd7WwbAAABNO3w5cCApAUfXp4E0Grs9Hn9wKJfANiKAEkMFIvt19JAKzb6tj8svqy/wKjIAq1YcbtnmM/UZ+rWxKA58QGb/kmTckCAFCml2pGXuTasVzqhPcXCQBB4gf6/wiCIAgioC8lAABSMsEYdv4DAbrls5bt37S01fs8LpbnsAudRFE9hD5UOCrgh82ftm7+tFUiHIgKJpSCwxpwWtmGU97juwEANDomOVM1/SLL6LlGRhFMn1GokjRVJAHIu6w9kgASnZ5LAO2uNmfI/081ZqqUGp/fE00CEOUPp/L4XHXt1fWhowRB2PVatZ4hjIIoOFdcWBoBAgHW7/N7KVCPz0VBOM2F6Tt+KWA4Npwk1ZihVgT9/zru8H/R7EIJoAv0cwnAffArf1OZMmMoAKiLpqsLpnjK1okL7FgCYAPOjc9y/j8A6Kfd7t7zDvV7+qsEgCBxA/1/BEEQBBHTZxIApbS5xhs2pFCQyeclF48znNzvqDzqqj7qaqn1BgIUaPB3ZXclgCjCAe/nbjgXAQCqUDCWDGVOiSZ/uLZolC4lWxV2/gHA3tbpGwF4B8PFSALo+qgNQETjdZoSQLuzxe6xZQIAgElrNmpMLX6PwLkXuiIyJuTHJWLM7XVynhCE3gMglQCA5zp18aWAosrISgCpxozwSQQNthpeKbGXABKb/iwBsK5Wx9ZXLRf8EwghSo1h1t3e8s004BMX2KEE4Dm+xle1W5U3AQCUmSM0I5a6938o64THXQJAkDiC/j+CIAiCyNBnEsCGjxtLJ5uyB2m5S42OyR6kDV/6fbS5xtNc42tr8LY1+a1NPmuTz2ll3U424KeUUtZPAUjAR3med9AeQyJeGiGgVBIghFEQRgEKJdFoGZ1ZYUlXmZIVlnSVJV2Zkq1KzVFHOy+gocK7+ZN22f7p1Y0ACQsNf/RUAgiwgfr2muKMYQBg1iWZdJYWR5PI7wUQSwDALfzosgQgka5A9P0QCEuxkwCyLQXhAmvaT/E7MMYSQAJrTdG93P4jATh2vGWce5/CkgcA2mHnqHLGeit3yhTYgQRAWce6x5OuehcIASD6Wfe5D3wCrL8fSgAIEkfQ/0cQBEGQCILfdX0iAVibfe88UnHbPwebU2WOW1eqSGahNrNQK4pnWXDbA34fdTsClILbHmBZQQK/jypVkcozDNEZGUKIWseoNERrYPgP9julvdG/8tH6tgZfR2v1UQLoLjK+/2lKAJUtJ7lLvdpo0SVLipeRAEJ3+rsEkG7K4a6cXrvV2Sby+mIoAUBi0+8lAOpxOLa8aj7vfwEACGOc++uWt6+Rtx5dAvAcX+ur3afKGQcAqqzRmmHnew5+LtucOEsACBI/0P9HEARBkBDBB1F9LQHUV7h/eKf+knvzoMu/ERkG9GYFAJhTe/2fckph7butLTU+gM626/faSwETEv7E6KEEUNdezYUJIVmWvP3hB6edSQAgMtH3EgC/N0Ip+I3NsuRxQbvHanO3SbPFSgJIfPq9BODYtsIw4w6FOQsANMPPU+WM9dXsk7ceRQKgXrtz8/OWS18EwgCj1E+/y3vkm9A+ApQAEAQAIJbvd0EQBEGQAU9IAohECN/VRHk3+SFhLn4myvsfAKhs0du+ajl5wBG+U3vC/cmzNVs+by7b62hv9PWkQV2nrcF/cr9rx1ftX73c2FwTMVq217lvjS1UZ/GTUmFT5TpHkouG+kucUr7wRH4wy58Y0g/RlJHvaAAAqGuvDrDB0xlykvLFJiDaFJQzIT8uERggw3PGLR57xdkjL0o3ZUm/HyAcM/E3SDovBF+jYAourFcbzdrgcgan1273tEvrI55dUaenuCv4jT1TEHW1IIYIbwCIO5OLEUkCUQuUSSwtUGiddbQ4d77NxRCF2jD9to6sS00DAAXPkW/9jUe4K1XeJFXRrA6aE5qugrbLtiWUXdx8uZ4MtqDTzkSQuIDP/xEEQRBECBU9z++LVQBsgH78bNXdT5Vo9QoAyCzUOK3+T55tZhgghKg0xJKmSspQm5KV5lSVwaLQ6BXGJKVax+iNDGGIMUnJKMIVlHnMxAaovS1AKXW2B3xe6mwPuOys0xawNvkd7X5ro7+twR8IAKUUKIydb07ODP5CcNnZr19qYlnul2/nD+pFnRMtV9dXASQs/AeZvGfTog/RlOE/nOR3VJOt3h/wKRgFAOQmF0pmbEerALiKdHEjgFmX9LvF/55QOIMhDAD1+NwrNj3z8e43AdiItdhtBDDrko0ac7CN9jpfgDssU/j9lPQGrgLgI+Ny9+NVAI5tb+gnX6swZQKAdvRS5aYX/HUHolqXmuZEhC0vmZc+CYQhKp1+5j2+is3U74nWnNAXDVcBIGcK6P8jCIIgiIR4SAD15e417zWcd1M2IcAoyHk3ZlUcdA0M2PMAACAASURBVLQ1+glQj5M2VHoaKj3A//UYPtuP90foLuElIdIouVzB+KQM5fyrU7jTASgL61e2tITWAnT90P7YngWQkFCRs9EzCaC+vcYb8GpUWgBIM2WqFGpfwNt1CSB0pxMJgDDM/Wf/bVLkgSrRqHTXzrz3aP2Bn6t29sZZAAaN2aAxccnqrdWCJCgBdJnoLnd8JAAgSmVqEbA+f2slUJZvPdBW6dr1nnHerwGA0VoM025uW/2g6El6pxKA++dPDLPvU6QMBgD1oDnK7LG+yu0dNAclAOSMAtf/IwiCIEgQChB9SX+vbwSgFLZ80VxxMLgLIDVHPX9ZBqMIJ5fJJbAprQfwV1KLC5DkogDAKMicK1KSM4MnEVYcdO36zipesC1tv0xTJcv/5W50fSNAQkJFAyYaKN6H3NgJimhztji9oZljzNAoNSAzYyWWpH3c4UaA/JTB4wuni3LoVPpzRl1CCNPTjQACi8EUqYYMlULNXdW0nRInwY0AXYVEX3gvjSHCGwByU6UHGwGIaf6vM+5fk3HfGv34y8TZKTh2vcc6mrlL3agLlKnFnViXmGadLc7tbwTX66t0+hn3AKMUZhcXGJpQgrbLtiWUXdx8uZ7kwI0ASP8C/X8EQRAEERBHCcBlD3z7Rp3XFVxKPfHs5OIxBonb14sSQMkE3dj5weXWHif7w4pmj5PtojMvaSpKAJ0TQwmgpjX4brw0U4ZaqQ0l74YEIGNCOC4ZpmydysDF7KnY0uoMOmlTB80dXzCNEBJzCSDTHDz8n6Vso61GJknsJIBE98r6iwSgSMo1L3iQ0ZoZQ6r53D8SlU6U2NdwxLX/Yy7MGDMMU28A8dSSWJeYdm1fzjqbuLBmxAWKlBJJdnGBfSkBIEgcQf8fQRAEQcTEUQI4vs++9ctm7q5ay1xwZ47WoOgbCUBrVJxzQ7pKHfz5u+2LtsojLmkzRRZ6WwJI+J/NsZIAqlsruCu92phsSI3c7KYEQEUmeKNhc1tDO/BhTP7kJF0KF7boU/5+8Yv/d9ELY/KnKBj+ayx7KgFkWwq4sNfvabY3iLsiphLAGUC/kACM028i6qCKpEwpMky6WpydUvvmV6gneOaofsKVCnN259aFpll3u3P761wMUagMcx7o/DBCCE8olACQRAb9fwRBEATh0bkz38sSAIUf3q1vrA6eVpVVpJ2/LEOQrNckgDmXJ2cUBtdaN1R6N3zYSll+rvhIAGcCMZEAatoqw1dZljyBoxujjQBljYfKm45xYQWj5O/nVypUUwbP/eflyx+77LWZJWcb1CZ+40A4kl2UABjCZIZe/ucLeFscjfwG9IIEcCbMtjhLAIw51zD1en5yw8xbI0sAQol99Udcv3wZzGJMN0y5oUvWhaadW19hHcElANrRlyhTS1ACQBBA/x9BEARB+HTNme9dCcBpC3z+Uk0gEIybeWFq3lCdIFkvSAB5pdqpS4IvWgv46TevNnpcrCRXPCSAAcJ367Z8u3ZLXUNTF9NLvLCeSgDVLeXh0nKTC3hJuOTdkABkTFAAAK/f89xPjwSfw4fSenyu8AVDFKPzJv/pgqcfu/z1xWOXJelTw40TNbkrEoBGqU3Wp3GRbp+r1dkk8qxiLQEMDE5V1723+ptfjpT5/YHTKiCeEoBx6rUKYyo/rSp9iG7MxdLstjVP0UDw5FHDjNsYnaVL1nmmWXuDa+9K7pKodPoZd8hUFSUA5MwDz/9HEARBEAG0S2f7Q6++EeDwduuen9omnZ0M3C6A23Ne/cNJn4eNJJPLxbsjMsxPHQrzojQ65rxb0lWaYEl7frSW7XVETr8W5OrS2f6SpvbsjQADgXarff/Boxu27U5NtowsLfZ4vZ1koPzBC0YQ/oCJBqqzNwJU8fz/7KT8YJn8Y/a7+VJAsQkKQOBQzd7fvH/tghFLh2aOdHjt6458XdteOW3wvMVjl4X36hNChmSOLMkYccnEG9Yd+eq7Ax/XtVcLai5bH8kbATRKbUhBgEZbDcsGIhNR1BXS7ydIZlenbwQYIAQCgV+OlB08UqZSKUcMLVYqFWlZWZ3kEbeQUEr7/o0ACkumYeIVoRsUAIAQYBTGWbe5DnweXvDPJfY1HPEc/l47chEAMPoU/cSr7Ruf75L1sGnKOrcv141fxuhTAUA7+lLnlhf9Tcc7fyUhhCdUr70RAEHiB/r/CIIgCCIm7hIAG6DfvVlXPMaQnKkGgKKR+hlLU9d92BgsIbYSAMCURUkFw4JLcFvrfWvebWZZgbMWRwmg66PWDyAAtLm1fcO2vZSyp2obRowcMWxYqd6gj5YhhhJAbVt1uJy8lEKuMiITMZEAqlrLV2x6RsEoKaWUskCgvPHYV/s/mDXknF9NuSXbks+ZIITkJhVeOfWOpeOu3nzsh0/2vFnRdJwFtusSgEapCz//T9KnZFny69ore08CGFhQAK/P//PhY2yAVRw4Ori8atjw0tz8PFkhgzfCYeIgARgmXKFMHcTddB3+QWFKV+eNAwB1zhjt8HOdez4SFMiy1rX/0Qw7myhUAGCceadz17usq61L1kMm/U3HPAe/0k26FgAYQ5p2/JX27/8uU9W+lwAQJH7g+n8EQRAEkSHuGwFaaj3fvVUf8FMAIAyZe3l61iBtpAReyfxcp7ERIGuQZtalKYQBAPD76PcrmqxN/lAuUcHhXH23EWAgQikLANZ26/at2994/c1VH368f+9+t9stShVKLIo9zY0ADq+jxR7cIZ9lySNC54QXFs1YiSWhB0d5UbxUEGD9XDO5GltdbV/t/+CW5Yse/fKhX6p3e/3BAywIEKPGfM6oS567ZtX/u/TVWSXnmLQWfg062AiQbspWMAounJNU9NSyD66edk+KPh1AMF14l5LvJ4B4dkWdngNyxgUCLAXwB/xlx8o+W/35itfe2Lh+Y21NrTQlf+xC9OlGAMaQaphydVBL8rlta562rXseWD8AAKMwzriVqPWiAn2Ve9yHv+PCiuQC/fhlgr9AOrZOg1GOLS+GVQPdhGsUyYXyVZUrMDShBG2Xdg4vu7j5cj2JIHEG/X8EQRAEkSfuEsCeH1sOb7dyYWOS8twbshQq3qNTXsmnLQGo1OTs69MMlqCXdXib/ZdNNmEulABOH5ZlgdKG+obNG7e88dqKLz778sjhoz6vL3Q/lhIApWxNWxUXkZ2UJ3JFenIcYDQJQDrR/ax/7eEvH/7ghj9/cueW4z86vfZwIQxRjCuY9qcLnnryineumnpHXvIghjDy9QldZYV2MXAYNKZlU+7496/emTv0fCWj7A0JYOASYAMA4HS6Dvx88JNVq995690d23a0t7Xx08RXAtCPu0iVWcqFPSc2uU9ucR74wlt7kIvRFE7WDj1LVCAN+BxbllNOSyJEP/UGRp/cXQnAV/ez5+j3XITCnKMdfSlvWRNKAMiZCK7/RxAEQZAIHSwf7vuNAH4f/fLV2qKRBoNFCQDDp5rGzUva+V2r7HL/yKX4jsgwPzUdO88ydKKRy+RoD3y/oim44kCQi/beRgBh18tsBPjwi+UDZRdAtNMKKKWcB3rq1KlTFafWq1TDhpcSqhB0Zo83AlCgte1Vo/LGA4BKoU43ZdZba4SjcJobAUT5ealEgx405gt491Rs3l+1fXB66bmjLp015JwUQ1q4mPyUwdfNuO/C8dfuq9z206HP957a4vG7ZTcCZFsE/j9Huin712c/MjZ/2orNT7W7WmO4EcBZYXh+xwsy48dj6679HSeIOywbAID2tvYd23fu3L4zKyd7qoW18LuGilzUvtgIQNQ606zbwretPz4FbIB6nba1z6Ze9TJ3CoBp3v3uQ9/SgI9foKdso+fEJk4aUGWW6kYtdWxfwa9A5xsBgDo3v6AduZQoNQCgn3Kza+ebrLNJvqryMz/2GwEQJI6g/48gCIIgPKS+a1wlgIZT7p/eb7jg9hwAYBiy6OasIztstlZ/TCQAQ5Ly7OvTQ09hYe37Tc3Vnii5eksCELhpchLA9AlnmTIU0Ybr1MkTKWZjfk5mtAR9xpZd+09V1UW7y7WdIUzBoILSYaWFhQWflv8bRJ3ZMwmAUramtSKcPS+5qL69RjIKMT4LAKJIAAAQCPiP1R8sazi8ctvLC0YsXTTmV1mhl/kBgEWXPGfoeTOKF9RZq9Yd+XrN4S+qW8uJwPEiWebc8MU3Bz6cP+wCjVILAEpGtXDExYWpQx/7+sFGW22sJAB1umfuhKWywwcAbW2tLQ31E0cPj5agz2hoavlp044OEhCGoSybnJw8bMSwkiHF2gOfeEHo1fe5BKAftUiVOZQLe6v2uMs2cSU4939uOf+UMqUQADSFkzXFs9xH1/ALpH63Y9sKbfEcUCiBKPRTrnPuW0U99m5JAN7KnZ5jP2iHLwYARXKBdsylzi0v8bKjBICcWaD/jyAIgiBC+pkEsOHjxjGzLYUjDABgSlEtvi175eOVlJV39LsuARCGLL41w5gc/CVw8mfn1i/aOszVixIAhB+eSySAvOyitMHqaGPlsrXnpiePLC2OlqDPOHTs5CkQ+/+E8wMozczMKB0+bMjQErVa3JYYSgBVzeXhvNlJeeIiIubC4d6VAIBSFtgme/3K7a98vGvFxKJZF4xdNjJvok4VPBBRqVDlJQ+6etpdy6bcdqTu558Ofb795Lo2Z7Of9RFgMkL+v9vn/O+Pf/t41+s3zf7t5KLZCkZJgAzNHPXXC57/8+pbW51NMZEAlDp/8ZCoE6m+tpb4PKOGlURL0GecPFUNcv4/wzAsyxoMhuKSwcOGl6alp3Px4d0m8ZIAiEJtOfuhUGba9u2/IHxyhN9t/fHJlMufBgAgxDT/AfexddzdcIHuX770Vu9VF0wCAHXBZO2wc137Vglr1qkEQB0b/6sddj4QBgAMs+5z7VhB/e54SgAIEj/Q/0cQBEEQCf1JAmADdPVz1Xc8XqzRKwBg7NykAxvbD2xq5+c6DQlgxHTTyFlmLpXLHvjq5QY2wPnhcZAAOs41ECGEUEpTUlOGDx9WMrREr4/6CgCInQQQ3v8PALkpRTJFRMyFw92TAACAdFMC4Az4At6tZT9tLfupOGP4guFLZpQszLTkhY8AUDDKETnjR+SMd/ucB6p3bTux5kD1rsyQ/1/bXkmBVrdVPPrlA+eNuuzaGfcZNWYAKEwtuW3O7/71zW8p0PCs6oEEMCBhGIayrEqtLhlaUlo6NCsnW+q3yvnwfScB6Eaco8oYwsV4q/a6j6/nF+jc+4lpzl3c0QCawTO0JXPcx9byC6QBn23t06nXvcVFGufc4/rlC+AOBeiyBOAt3+o5vkYzZAEAKJILdOOXOXe8IczetxIAgsQP9P8RBEEQJAztyHeNnwRQdcy54eOmBVdnEgJKFTn3+qyKQw5bi/+0JQBTqnLhtelKVTDpptUttSdcQpcSJYBuQwllGIYNsKlJFq1WO232jMxOX8wezhsLCaCuvdoX8KkUKgDITc7neyaxkgBE+bslAXCUNRw60Xjow53Lx+RPmT9sydj8qXq1IZxWq9JPKpo9qWi2w2PTq4MnU9S1B3UNP+v7cv/79daa/1n0b24RwZTB8/KSiypbT4rcsISXABjCsJRVq1XpqSm5uTkTp00lUZtBAIhIIoG+kgBAqTPPuxsYJQAAZa3rX6ReJ79A1mW1b3ol+ZJ/AwBRqExz73GXbQy+FyBUoPvQt/6Go8qMoQCgzpugKZ7jPvID4VzrLkoArN+x+UVNyTwgCgDQTb3FtXcl9blQAkDOQPD8fwRBEAQREDltjvLCkgh+SHAJEPM3ArAsbPikseaEi7vOLNLOuzyDYYgoF43k5l2K71DCwKxLUjMLNFxkzXH3lk9bWZaXUy4Xr7qigsPJBL3VUTd2/40AAwKL0ThnyoT7br7ytmsvzcpINRgMHSSmkuYJOlN4TziFJAMV+nD5nM32Bu4qJ6kABEMlHQV+WDRjJZao9K40lexElzFAKbQ5m9cf+fqRz++/753Ll2948mj9geDbBEMYNKawQzs2f9rvFz25eMyyoVmjkw1pR+r2bTn+A3dLpVCXZo0V9F0oFPX7KemNAfcKAKVSMbJ08DWXLvrjfTePHlaSmpoS3fkPQ0T9A8KxiyQTz0vRJz+GCG8ASDpTWzJTXTCBC3trfnEd+FpaoHP/F/7Q1hXN4BnqgomiAqnfY1vzn1AFiemsh4AwlCccRrMOAOFD/r0n1nsrtnFhVdZIzcgL5LKLu7F33wiAIPEAn/8jCIIgiJh+uArA3u7/6pWaG/42SKVhCIHpS1N/2WI9sd8uytWVVQDFY/TTliRzNr1u9pvl9S57IJSE/zhZVB6/urwnXr28CqCbQxc3zps/w2QMOvwOp6tLeSQPA3u4CsDjc7fYm7IsuQCQbs7SKLUev5v/cLI/bATgm/az/qrWkx/sePXjXW/kpxbPHnrO7CHnZlnyVArBKQl6tWHWkHNnDTnXz/pZGgAKCib4C5YAUSpU4r4D/pSNXHS8CmCgTLXszPQ/3HuzWq3qRp5gR/T1KgCi1Jjn3MEdvA+UtW95g3VbpQUGrHX2zcuTlvwNCCFqg2n23c2ndgPr4xfoPPClaf4xZcYQAFAXTNQMnukp2xC0LqhZ1FUA1Ot0bHpOXTAVGAUwSv3UW92/fA4+lyR7X6wCQJA4gs//EQRBEISH/JPMqM8O+3IVwOGdth3ftnAXKjWz9M4ctY6R5hI9FBbd0eiYRbdmqTTBHwA7v20r2+sQppYvgPL+EDxeFeeK8SqAgULY+e8ycs+lRZ0pepYo6hjRQAF4fO5GW/AMQrVCk2pMF6QA2VHgh0UzVmJJXB/h9JD/7giMUcFVJOhnfScbj7y5+dnb37zwoQ+ufXPzM/XWapCgZJRqhUat1CiY4CshPD7Xkbr9MtMXwh0suIj6nRw4aDXq7jn/HMGG9ukqAM3gadohc7gYX/0xx+5V0Qp07HjP31LOxehGnMOd9seHdbXbN70UfJ6uUJvm3k8YZcS6sALRVgF4jq3x1ezjYlR5EzVDFkrrE04sbY4wCkDSdmnn8LLjqn+kv4D+P4IgCIII6ccSwLdv1rU2eLmL3BLd7EvSZXN1IAHMuiQ1p1jLXbU1+H54q1H027XfSQCJTIwlAJbS2tARgGqlOtOcLZ4LIDsK/HD3JAB+VM8kgGBSlgaO1P383rYXd57cEL5R03bK43dLDEOTre6Nzf850XhYVL+ElwBOk76VAIAoTdNvIEo1AACl9u3vBJzt0QoM2Bsduz7goohKZ5p1GyVijcOx7xN/03EurBk8U10wWWBdWAFZCYB6bM6trwAbAACiUOmn3gJKrbQ+gBIAktDg+n8EQRAEiSBa3t7fNgLY23xfvlJ79R8KubvzLk8/uLm99qRbmkt2I0DWIO3sS1LDKb54qS648p8IVrD2k40ACY+kM3m3TncjQHXrKS6ZSqlOM2UBSOYCyI5Cn74UULoRgN84rlOSDMGJanO3//XTOxnCpJuy003ZKYY0tVLt8Nhr2iqO1R8InncQbfoKejly0cFGgASH9t1GAHXuKP3oRVw4YK23bX0LQLK6nlegffPrppm3MIZUANCNOE+VMcRXd4ifmLU3OXa+bzn/TwCEqPWGaTd5Tu3gTgrs+kYA14FPDfMfUqYWA4B68GxVwWTviQ2S6Q4yVZUrMDShTncjAILEA3z+jyAIgiACRM+2+9sqgP0bWvevb+NuaA2KJbfnKNVENpfwyS9Vapglt2VpDcGF0/vXtR/aZpMYlnmMSmXK4+cSmQwn6+kqADqQNmV3Hyr+Q/y0ld+ZomeJogHjjUxVaBE1AZKbXCA3dpIiJCb6/jhAUeMAoDC1hLtuttc32xsqW07srtj07YGP3tv24opNz6zatXxL2Y9N9nrJtzVSovALFP37CTK9kWAIu5v76PVVAOa5dwQf/gNYN77COttClRE55cFPv7XOvuWNoFW13jz/Pmlix463A23BjSG6UYvV2aPF1oVNkD60Z912x8bnglYUKuPcB4Eo5Ka7XFXlCgxNKFwFgAwY0P9HEARBEDH9WQII+OlXy2vaGoO7AErGG6ecnyp8usoL80qefG7S4HHBPeptjb5v32gI+Kmc/9mPJAC+8QSkFySAFkeT2xc8fTAnOV+av5ckACoy0TMJwKSxJOnTuItmR6PP7xHXRzqveiwBJPJM63MJQJVZahh/ERcZsDfZt74trIy8BGDd8BLrCB5xoh9/qSqzVJQ4YK1z7HwvWC21wTDtRiCK7koAzh1vsaHXZGhKzlJljxY3GiUAJKFB/x9BEARBZOjPEkBTteen9+rZAAUAhiFnLctIy9Pwy5ZKAOl5mvnL0hmGAAAboGvebWyp9QhsSuvRjySAxCXWEoDV2WZ1BXdZ5yQXCMaml88CiKEEkGbMVIVO+G+01fq5Nd59IQEkMn0pAVjOuid47D+AbfMKv61RUhkZCSBgb3LsWhk0qVCbZt8hTWzf/BrrbOXC+vGXqdKLpdaFNZNMVL/HvuG5UMsY4/zfhve4SBsoU9XYSAAIEjfQ/0cQBEGQIFTqhUI/lQC2fdNyfK+di7Wkqc69LotRCPeP83IxSnLO9Znm1OB5Wkd32Xf90MqlEtiU1gMlgD4gphKA1dVmdwf9/2R9ql5t6EsJQGzidCWAdFNW8K1+ALVtlVHrE3MJINHpGwlAmTFEP+o8LhxwtNi3vweUSqeKjARAWdvm5ZElAGOWKtNLRIkD1lrHjuBqAqI2GGfdKalP5xKAa/d7gfYaLqwZskCZOUKSo3clAASJI+j/IwiCIIiAASEB+D3spy9U+TwsFztmjmXUDLP4IVPoeuQM06hZZi7scbFfvVrn84ZtoQQQH6SeRkwkAJfX2WJv4i6NWpNZnywsunclABkTpyUBZJizFaHn//XWaho1OUoA3aYPJADz7FsUxuD2DceuVb6mkzKmgzFiCcDXWObY8xF3xRhSTTNvlSa2b36Nep1cWDf+coUlR1KfTiSAgL3etef9YKvUBsPMu2XaIs6OEgCSIKD/jyAIgiBiBoQEUHfS/f3bwZe9MwxZckeOwSQ8yAoopaA3K5bclsOt/AeAH99pqK9wC3679m8JIHF/M1NRj4D8EERSd1ECqAm9AtCotSTpUyTjNAAkgExzXvhOTdspQVV7TQJI3JkmplclAFVqkXH8hVw44GixbnwNKCtvOhgj9KtZ1rbpNdbRzF0ZJlymSh8iSuxvqQgvAWC0JtPce+Xq06EEQKlj2/KANfj3p3bkBcqskSgBIGcI6P8jCIIgiAwDQgLY8HFj5dHgc7CkdPWwKSZx0UBLJ5ks6cGl1KcOOzd/1izjtfVjCSBhkbr5MZIAwq8A0Cg1KcY0EA7bgJAAcpIKuIDN3WZ3W8WzqnckgIRFrmm9JQEQYpp2tcKcycU4D3zjqz8qKqFTCcBXf9R9bD0XZgypmuKZYiecsvatr7Oe4AYo3bhLI0sABPXpSAIItFW6D3watKJL0k+6FgiDEgByJoD+P4IgCILI0/8lAI+b/fq14C5WQiD4bj9h0Rq9IvzO6u9W1HvdLK8hKAHEld6RAGraKsO9l5tcwCt4YEgAhJAsS/D5v9XdbvdYZWYVSgDdoq8kAMaUYZp+TTDO62xf+0IwZXckAEZtUCSHFoCw/uBGfaET7qs/6jrwBXepMGYYplwvW5+OJABKHVtfCS800I27QsF9WVACQBId9P8RBEEQJESn29Gh30kAbU0+wbVM0ZFge5NP4vahBBBXekECaLTVewPBlztkJ+VJxguk+fuVBGDSWoya4HEVdrfV6bHxk/auBJCgyPnwAL0gAZgmXR55+H94rbf6IEjcYBnTwZigX60dMkedN54Le0/tdpdtEtUHAGggYN/4Muu2AQAQop90FWPmLQEQVD6qBOBvOOY+/C0XwxjS9OOvhGgeuzh7jyUABIkf6P8jCIIgCI8BKAEIS4hStDBVH0oAsrlQApB6oTGTABrb6zw+N3eZnzKIAImjBEBFJrogAZh1yTq1gbuqt1ZzL//jJ0UJoPuQPpAAGLUhaWFoKz4baPvmX7yh76oEQFQ609w7iULJFWLf+gbrccj+heep2uc5voELK1MK9GMvjr4xIZoEQO1rn6T+oFimn3E7Ezq2ECUAJIFB/x9BEARBhAxYCcBoUerNivC/7QSo1qAwWJQ8W5Jgr0sAvKadlgSQwPSSBNBsbwz7/ymGNK1Kz7fWxxJA6E43JIAkXYpeE/T/q1pOSr8fgqrGWAJIYHpdAjBNvVJhSufCjl++91QdEGbvkgSgGTxDO3gGF/bWHXbs/VRYC16IDVjXPkN9Lu7KOPNWxpjWXQnA33jUfeAz7pLRp+omXieXV6ZAQAkAGbAoO0+CIAiCIGcaFCihBCI/7yilJLSNngIlQICG14qGUkpz8SL4yYDwLoWFdzmXKBMAwFlXZo6bn9TW6Gtv8gEFY5IyKUOdlqPmN4xSCLcjGAw2JNodkWF+6lBYWIAkV6inxLkEvdVBNyYmFISTQDwrBP0ovgcg6szI4IHH726w1qWbswAgxZimVetdXodgoHgfcmMXtC75CkRMSGZsuECZ+oTu8EzIf3eCxlKNGUomeGJlvbVaUppkVknrw6+q+Nsqmb68rkhYgk0lFCjhd1z4Pr+H+YkFMYKxC0EopYQAozNb5gbf1UcDvvZ1L1HKSrITwmky/LnBM00USvPs24BRcHfsm5dTjwNAOHa8kKd8u+fEZm3pAgBQpg7Sj7rAvvV10dwTWxcUBJSCY9ML2lEXEqUaAAzTb3VuW07drZK8gr/WedkJIYKJI7YO4dkl03YEiQvo/yMIgiBIhI6c+X4pAVAWWJZyr/dTqkhGvjYjXyvbNJalnP/FbwdKAHGmdySAqpbykXnjACBJn6JVafmOebwkAH7+jiWAbEs+l9zP+httdVLTvSUBJDa9LAEYxi1VpQ/mrl3HNrpPfERHkAAAIABJREFUbAPhXOqKBKDOHaMdvoCLDLTVOHauBHF2YYGUta55hvP/AcA0717HjrdpwNctCcBbvc9z5HvtyMUAoDDnpN2zFkLLZ0LtAwBgPTb7N3/1lm8SZUcJABlw4Pp/BEEQBBHQxe3o/WQjQHOtd+d3LX5fJ+6L30u3f93SXOOVtoPySo5ciu+IDPNTyxcgySUqOJzsDN0IIJlJkdiebwSoaavkAmqlJsOcHUwhGihx+ZK5ALJfAX5YNGPDH9LJJGdC/rsDOcmF3JXH52p2NMqalplV0vrIzitJZRJ5kgGAcDQBoDc2AjAao2XWjdxze8r6rRuWU687inXoYCOAef7dhAk+m7RtfiP8hj+xdV7IXbbJHT4FIK1YP+FXMm2RWufHBHz2LS/TgA8AgBBl6mBl1gjBf5kjlJkj1AVTjef+VVogwOlvBECQuIDP/xEEQRBEzABaBeDzBt77V8VP79cPm2wuHmfMKtRp9IxSxQBAwM963WxjpefYbvuhbdaGKo/gkdsAWQXQ3bEbMBBRS2O5CqCqpSJ8NzepYG/F9mAxooHq21UA3Fh2vBFAQRSZ5lwuvdvnarE3RmoiLE3y/ZOrj2gVAOendbAKIEHhj2ZvrAIwjFmkKRjLhd0ntjkP/iROLM4u8yRclTNaP3oJFw6019o2vyF+tC5bIOu3rX9eO3gGpz4YZ97m3LuK+tzitkit82K8Jzd7jq3RDjun424kaoOgyryLbq8CQJD4gf4/giAIgvDoijPfzyQAAFp/yt1Q6V7/cYNCQQwWpdagJAAeV8BhDfh9kYdTwhMDBoYEkLAEHZBekQCqW06Fk+QmF8i5bfGRAEJ3okoAOpXeokvmUjo8dqurFYTztvc2AiQ2vScBELXePOt6IAwAUNZvXf9a+Ey+bkgAhJhn38JtwgcA+/Z3A/ZmkPrVcgW6j633VOzQDJoGAKrskbpRS5x7PpJpi9R6KIb6Pdav/0L9HoUhRdp1qpwxRGOS6UnhRbckAKkVBOkz0P9HEARBECEDUwLgMgUC1Nris7b4Ifi7nUtL5IseEBJAotMbEkB166lwN2cn5wMhQCNLj+MuAfDziyQAndqQpA/6YLXtp2QN9JIEIBmZRKOXJAD90NnawZO5O96aw46fv5O12rEEoM4sNYy9gLsfsNbZt70bFv86lQCox2Hb9IqmaAoQhihUxhk3uw58QUN7+LsoAfjqDra8dTWAzERIu+sHdcEU+Z4UXnRdAkCQOIL+P4IgCIKEod1w5vuTBJA9SDdsshmAEAK7fmixtvgAiClFNXEh9yiVHN5hrS93yxSNEkAckZ8wMZAAGm31bp9Lp9YDQKY5myFMgPoJf8DiKgHImAiZ0ar15tDz/5q2UxApsfclgERdA0A7cMJ7KgGAQpl01p3hTftta15kvS6AaC53FAkAwDj1akYfWvex73Nf00lhZTqRANyHvvfWHlTnjAIAdcEkTclc96Fv5dsiZ13ow3eoBUnbIs7eNQkAQeIH+v8IgiAIImAgSgD5pfqld+RxKcv226wtPgCalKG64PbgVmqH1V9X7pYvun9LAF0btIEHDX/0ggRAKdS2VQ3OGAoAOcn5CkYRYP3CKRR/CQBAZiNAbnKhIvj6N6htqxJ6Wb0sASQ2vSMBaAdP1ZXO5iL8zZX2nasAAEIvBeyCdaBA1GmDjFOWcdEBR4t1w6vi7J1JAKzLalv3fOoVzwKjIAq1ad59nuPrI9sQ+qEEgCDxA8//RxAEQRA+FMJuJw1H8UOiH3aUl7PLuUQ3I5YFKbv+RgBhlQRt4YVp1KKF7Yi4puLy+HdE1eWnli9AkktUcDhZAnv9AoTdJDu6MrNC0I/iewChzqxuDT48TzNlqBXqSMH8ARMNlLh8yVwAmeE57TcCiPJzqbJCh/9Ryta3V3f0fROXJplV0vrQqKnPiBknbWwwdLpvBACSct6D4YvW75+mfm/4VvQT+IUxhBgm/UphTOPinD9/5as/KjYdrIxIEhB8un7+3N9czsVoiqaq8yd11BZBdiKKkbXeSVvE2cXuficFIkgfgv4/giAIgogYeBKAxJuP2jSUAPoN0m6KpQQQ9v8VjDLTksPL2o8kAKmJ7KQCLsxSWtdeJdO6mEsAosokNjGVALSFE3RDpnNRvqYK+65PhVm7JAEoDKnmGdcFr7wu64aX5U0HY6JKAKzbZtsYzEsUKtO8eykRL3PuqQQg0xUoASADD/T/EQRBECSC8GHkwJEApO2gkl+rcs48SgBxp5ckgJrWynA4J7lAaLGfSgAMYdJNWaEIts5azTMnMBZLCUD0TUlEZH3UnkoAhEk++26i1HDX7Zve9DtaJdk7lwCMEy5VWLK5sPPQD96qA1FNB2OiSgD2bW8FbA3cpW7YQnXO6M6d8G5KAIICUQJABibo/yMIgiCIgP4vAWj0jMGsNFiUBotSb1EYLEqNTvoPuiCPWqfQm5WG4H8KvVmp0Stkiu6HEkCi/mKO6nnHRgKobokcnpeTlC8e5n4mAVAAoFTJKDND6//bXa0Ojy2q1tVrGwESlZhLANqCcfoRC7gIX/Mp27aVwq9vmI4kAKLWW86+L3jNBtp+eBqoWMrqugTAep22DS8FLxiF+az7gZAYSADi+qAEgAxs8Pw/BEEQBBEjPJWsfx0HWDDMcMvfhySlqzuovjTqknvzLrk3jx/T3uh7439PVh5xCuotaUfcjwNMYM9Mrn9idhxgbVtV2FBOcj4IBi9UcL85DpC7o2CU6ebg8//69uqIEWlXSAzQnh8HmMBQwrnh0vPq+KPZjeMAicIy50ZGa+Tu2Has8rfWSuZSmKjHARqn/EoZGnHnwe89lfuA91JAedPBGPnjAO3b3jLNuEmRlAsAuhHnq3PHeKv2dX4gX6Q3ZI4DlCIoUNqTwgtZ6wgSR/D5P4IgCILwkXne2a9WAUw4K7VD55/zmDv/gWlJV42bnyRTb0k7RA+Fo9wRVZefWr4ASS5RwWfEb2S5/gndkgnJzApBP/LuNdsbXV4nl6QgdRDPHD9rP1oFAABalT5Zn8qF66zVnXSFxEAMzwJIQGhQfuHFiD7Doc5XAWiyS03jl3Bhf3u9deMKcYHi7DKrABityTLntqCoFPBZN7wGbAAAaNifljPNi5FZBRCwNdp3vBs0qdIaZ9wcLL9nqwCk9HAVAILEEfT/EQRBECSInO8K/U0CaKxyd9AER7vfafVzuZw2v6Pd30HixiqPWF2I0g6UAHqPXpIAPH53eAnAyLxxqcZ0njl+1n4kAYwtmBIOV7dW8KdAH0gAiT/fYiUBEMY84ypGZ+ZibLs+9TZXCrN3SQLQjzxHlVnChT0nt7uObRY74acjAVD7jvcC1rqgidFLVFnD5ROjBICcqaD/jyAIgiAR+r8EsO3rxu/eqQn4BXlrTrq+f6f2mxU1r/3leHONh0veVONZ/teyb9+s/f7t2vKDDn76gJ+uWVm/47sWkTOPEkCfIfFaYywBOL3O3eXbuJtmXdKfL3o8NfSKtX4oARBChmWPueus34fL21OxVZiqbySARCcWEoAyOdcy4youzLrtbWteFrwUsGsSAKMxWObdThglAFDW377hNepzCbOfpgTgbzrp2LUyaEWfYpx2A29vEUoACIL+P4IgCILwkfddof9IAD4v+8Urle89fpL/bD+7UKdQkR/fqy3bbwtapkApLdtv+/7tWo+bzRuiDyd22QKrnq788tUav4cVNFFUb0k74iIBJKx3JuPYxFICoCz9ZOe77c5W7ub0IfNev+2zK6bdmGJMA+hHEoCCUeSnDLpj3u+evPLNVGMGd2d/5Y5DNXsl9UEJ4HQRNL6nEkDS3JvCD/+t2z/0NVZEEksLjCIB6ErnagvGc1GeU3sdB76Vy356EgC1b3+XdbRwV/pxFytD+19kEndFAui6dZQAkIEA+v8IgiAIwkfsCkH/kwAohW3fNL72l2ON1cG9AISB+ZdnXfvHweZUFT+XzqC45L78xTfnKlXB351tjd43/3Fy61dNLCvw9PqtBJDASDoaYisBHKs79Oq6Z3wBH3cz05Lz4Pl/ffXmj28/6zfDskepFIJTJPpYAiCEybLkLhy59P8u/u+L16+6fMqNWlVQomqy1T//46Mev0f0xeuoKyQGTkMCSNQ5JxmnHkkAClO6ZebVwSReV9uaV8WJpQVKJABQ6ixzbwVGAQDABmyb36Rel5z105QAfHVHHPtWBytsTDdOv0FwNh9KAMiZDZ7/jyAIgiAiqOhkdACg/e+NAMf2Wl94+Mi1vy8eNMoIAITAmFnJSRnqlf8urzruJECS0tVXPFQ4bJIlfNJ19XHnu49V1J50QajE0P+8JorqLWlH378RIIGhojPwY/pGAErho21vBQL+u8/+H4OGO6odclMKbpp77xXTbihvKttetnFvxfbj9Yea7Y0gnfeyFYmUL5kLoiIkDaSUalTa4oxhI3PHTxo0a0jm8BRjuujg/dr2qse/+v2x+l9E+Xn1idIVIJ63tJtvBEhYAUAylwDgtN8IkDT3RoUxmbtv27XaW38cpImlBQq/zdqiidohM7mwr/GEfdcn0a0DPa03AtjWPW+cchVRagHAMOlK29pnA7bGjs/kj/ZGAJn+7Ni6tC3CC5QAkPiC/j+CIAiCROC7GP1fAmiscr/0+6MX310w5dw0QgAIFJQabv1/Q1Y+WW5t8l33p+LMQm24zINb2lc+WWFt9gHwaoQSQNyIPEfvPQnAH/B9tP2t/ZW771r42+klc8NDaNCYRuaOG5k7zh/wubzO6tZTJxqPHqk5UNFUVtlS0WCrZdkABQqUnrYEQAhDAHRqQ0HqoEHpQ4rShgzNHlmYWmzUmjXKyLTkNZxdd+TbF356rNFWy2tH30oAiUtMJACFKdUy/YpgST5369rXaSDA6+6uSQCEJC+8h9v5DwDtG19nPY4OrZ+OBOBrKHP+/KVh/KUAoDClG6fd0P794yInvIsSgHx/9kwCQJA4gv4/giAIgggYWBKAw+p7/98nG6rc516To9YyAJCUrr71kSEeF6szKLg0AT/duLrhy9eqfcHz/oU16u8SQGJCg3+Iug9Avn96tArgSM2BB96+cVzh5Cun3zyxaJpJZwnbUipUJp1lmG70sJzRi8ZeykV6/Z56a02Dta7RWtdsa2hztbTYm1w+V6ujmVKWUrbRVs+ZMmpMBo0RgOg1RqPWlKRLNuuSUoxpqcb0dFN2TnKBRZcEHUKB2lzteyq2rtz+6qGa/Vwk4bUDAAhKALGg5xKAZebVqtQCLtp1fFvA0aJKyQPgvHOAYEIA0deWCD7VmSX6UedwMf7WauumFZIqxkQCoNbvn9CPvoAo1QBgmnOHc9/q4BGDotEm0a+4C6VGWsPOrKMEgPRf0P9HEARBEDEDSwLw+9jv365pqnJf/usiY5ISABiGhJ1/j4v9ann1+o/ruW2roVwDRgJIYOSeo4duxVQCACAsy+4u37anfFtRevGsoQtnD1tYnDHUHMU5Vys1+SmD8lMG9VLDAYBlA432+pONRzcf/2nnyU21racAeO6jqDdQAugJVBA8bQlAYUyzzLgy3JX64XMH/2NnD6vWvv411uOKsvC+pxKAr+Go69B3+tFLAIAxpGb/bkcPayuqYcfW5dsivkCQOID+P4IgCILwEK9nHhgSAKV0z9qW1kbvlb8ZlD1YF85ubfZ99EzF/g1t4cdzvFwDQwJIWKh4HvS2BMDdK28sK28s+2Db6zlJ+cNyRo8vmlKcMawgbZBFnyzaih9zHB5bTVtldUvFkbqfD9Xsr26taLLXh8/hEzn3Us+qtzcCxLy9/Qi+y3q6EoA6Y7A6sziGlfK3Vtu2rQQglNLekABowG9b97xu2EKiktlv0iN6LgEgSPxA/x9BEARBhAxYCaD8F/tLvz965cODSieaAaC+wv32YydOHXEAhSi5BoIEkNjEQwIgAF6/t7yprLyp7NufV2tUWqPGnGJMK0orLkwrzknOzzBnpZuy0s1Z4VMDTwObq73OWl3XVlXdeupU84kTjUcbrLVOr93tc0Z8foFT3pEEIPvFi7UEcNptHQj0WAII2JoC9haFKS1WNbJte99vrQeA3pMAPOU7XYd+0I9ZEpMK+xqO0fBehx5KAAgSP9D/RxAEQZAIcl4oDCAJoKXe89Lvj46YatEZFAc2tzmtgc5y9X8JINGJkwQQLt/tdXt87mZ747G6QwDcwX2EEEKAqJWaVGNGqindrEvSawwWXZI2+CiVGDQmjUrTam+mQIGAP+BvczS7fc42Z2urs6nF3uT2uSilFFiRVw4geCNAtyQAgN7dCJCoSB3+05AAvA0nK59eph8+mxDe68MlfUfEF/Jf4YC1wb57NU906RUJAALe5g/ucx9bx2gMsrUVVz56AuqxO/d8ELEOwv5ECQAZOKD/jyAIgiACBroE4Pey+ze0hjN2IVe/lgDOCOIqAYhNUMpyzhWA3+t3tpysaikPpyYQ9mBkPkJh4S2QfgVOUwII3UEJoNvERAJwV+xzV+wLzzPeZBAg8IT5iQUxIMneKxIA62ixbXxFUh+Q1gcARG8EELcFhNZB2J8oASADBKbzJAiCIAhypkA5lzP4ky30bCryC47ywpIkNPyLMJxami+YK3LZjVyim7yK8FOKdjJ3LZewRrK9IC1amEvYWdHuiAzzU0ctICERDa5oHkg6GiT9IylHMAkkJqj4D1H/CkxIq8YfMNmKyNVeOMtFXwF+WDRjJZakc4FKU0XpCokB6fdDUNUEhHDet2RUZGIEKYV3qTiGUHHS0H1BgbzE0gIl7rZ4rKNaBxr2p6OZDsaInPKoBcoklhYosi7O3qF1qWkEiQfo/yMIgiBIiOieB0oA8kWjBNADJH2JEgC/plElANkvXsSIOCRjQFYCSHBQAuhCgTKJe0cCQJA4gv4/giAIgkSQ8SlQAuA3UVo0SgA9ACUAXrh7EgAVmUAJoFNQAuhCgTKJUQJAEgv0/xEEQRBEAEoAwLsXfwkg0UEJgBfuhgQgyh8DCeBMACWALhQokxglACSBQP8fQRAEQcSgBAC8eygB9DYoAfDC3ZAAZL94ESPikIwBlAAi0ZIYlAAk2aPVp/sSAILED/T/EQRBEIRPdJ8CJQB+E6VF944EkKhQkauFEkAkHEcJIDERNxElgC4UKJMYJQAkIUD/H0EQBEFCEMELq1ECAN69+EgAiftrmQADKAGIzYXD8ZAASIL+KibimQaAEkCXCpRJHBMJIFFnGjJAwPmHIAiCIEHySi2DxiYDAEoAMjWKhwSQM1yXUayFROTSabcIBxkAJYAeSABUZKL7EsA5o6+FREQ78yqiNgBKAIKYuEoAU+8SRyFIH4L+P4IgCIJEMKdqOnTmJVHcJ0oA/KJjJwEYUpSQoJgNKUqFCiWAWEkAoTunKQHoNWaVMjGVJgBgkrKlMw0AJYAuFSiTuIcSgDFbXBsE6UPQ/0cQBEGQCOMWZnXmzEuiuE+UAPhFx0gCGDLTDAnKxOI5Zn0ygNBDBgCUAHogAYhNdFkCKMkal5q4Xplm0oUAMjMNACWALhUok7gnEsDIS8RVQZA+BP1/BEEQBIlQMik1JUeHEoAwV3wkAHOmKn+sHhKXRROvljjfQVAC4IW7IQFE/7p2IgHMG3E5JC6amVcFQygBiCvT5xLA0PPAmCmuB4L0Iej/IwiCIEgElYYpnpDcBWdeEsV9ogTAL7pnEkDeKJ1SnbgHAAJMK10g8bsjoATAC/euBJCkTy9IGw6JCzGmKYvGBy9QAhBXpm8lgOKFwCjElUCQPgT9fwRBEAQRMO+qIoWaQQkgvhKAQkkmXJQKCc3QnHGTS+aFmiwaZACUAPpKApg97KIEXvwPAESl1p5zT+QaJQBxZfpKAkgdAqNw8T8SZ9D/RxAEQRABafmGBdcOAgCUAOIoAUy+LDUpRw0JDSHk5rN/n2rKkvjkEVAC4IV7RQIYlDFq4ZjEPPmfj3rkfPXkiyLXKAGIK9P7EoBKR+b/EXQpYtsI0reg/48gCIIgYs66rnjUfG6LJkoAolx9IQEUzzBNuiwNzgBKskc/dNETION3R0AJgBeOvQTw4JKXLLoEX2kCAEStM17zpCJzSCQKJQBxZXpXAiCzHoSRFwGCxBv0/xEEQRBEDGHgwvtKswaZAAAlgD6WANIKtHNvyiSJvPFfwMSSuVfOuochTGhocSNALCUAKjLB6wCGUd559r9N2mQ4MyBqnfGm/xJ9UiQKJQBxZXpNAihZALMeENtDkHiA/j+CIAiCyGBO0978xPjsEu79cygBiHL1lgSQVqRb+uc8Q4oKzhgYwtx8zh+WzbqHRNwelABiJgGE7ohTqVW6Wxf8v2lDF8GZhLJgjOWBDwElAFnTwZhekABKz2eWvQuMUmwMQeIB+v8IgiAIIo85XXvjP8eVTuPWBqMEIMoVewmgcIJh6Z/yjKlnkPMf5qazf3fV3PtTjJkSnzwCSgC8cPckAJGJLEvRjXP/OmPoEkmixEeRN8pyz9vKgnGRKJQAxJWJnQSg1pPx15JLX6ZKjdgMgsQJ9P8RBEEQJCqWDO2N/5yw5J7SpEwdSgC9JwGY0tRzbsxa+seCM9P557hxwcOPXLNi/KBZEr87AkoAvHA3JAB+1NQh5//5sndnll4IZyrKQRPND67SnXMP0eiDUSgBiCsTCwkgazS55CVy4TNEbRQbQJD4gQtREARBEKQjCENmX1E4ZWnezi+rf3j9hNPqoyT8E5IAAKVAgr9+iUwUl5KSDnNRAkSQWpoPAAAopSS0M74buQTmBRWJXAoL73IuYY24HhA1UVo071prUky9In3kwmS1Fp9JwJCcMY9e984vlTvfWvPEzxXbWJYNdXhkOCV9KZgHvE6H0GXoluBDNGGAN4aCCF4FpPckJkTWRfNetiL8Boq/OLJfgYgJyYwNFyhTH4ZRTCk596LJd2UnD2bImT7ZiEavv/iPunPvdn35hGv9m+D3SmcaAAAlnHMtHBXxXBKnFCQSjCYQCP6NJ7YEIJo//MTSAsXZCaVUcGhIVOtAgRBOWRJ/U0SVIYSnP3RQoCQxgbShzPz/gdLzQK0TNxJB4g36/wiCIAjSORqdYuZlBTMvK9jycaW1xbPvh3oQ/v4kBMS/ZwVRhPtDcAnhX5wkkkKalp+BlydKoZELSQlyKYlsRolZIkwjTkUEF7JNlJgpnWMxJKvGLsK3YQlQKlRji6aPvfGjfeVbKuqP/LB/VZujWTyW4dGkwQsAwdiKPBnxJUQdHWHpsoUQaXLR9JCYI6LCZeolyC9XIyIyGPUev3XcR37a0FH5M4fnTc5LGQIID6JP0l/+d+35v/bu/CxQc9B3eEMwXpAIuHkmN/D83o4kjjZUwuGWWwMgmTwyk0Ew0flJaZeyy1ZSrrYhE1R6N3oDKcy4ixjSySg85x/pv6D/jyAIgiDdYPol+QBw7i0l8a4IkuCMLZo+tmj60qk3xLsiSILDGFO1826Mdy0QBOkjzvTlTwiCIAiCIAiCIAhyJoD+P4IgCIIgCIIgCIIkPuj/IwiCIAiCIAiCIEjig/4/giAIgiAIgiAIgiQ+6P8jCIIgCAIA8Pknq556/NF41wJJfP788IMb162Ndy2Q/k515amH77+rtroq5iU/9fijn3+yKubFIsiAAM//RxAEQZC+ZtvmjatWviuN/92f/++NV1+sq62RzTVp6vRfXXUtl/fRJ55RKLv0j/hff//Q7LlnLTxvUacpa6orjx0+3JUykV6FPz00Gm1eYeH8sxYOHT4yvrWKIQd+3jtxyjRpPL/hCoUyJy8vv6BozlkLUlJSu1Ks2+WqqakqKChSqlSxrC7SHd5dsXzv7p1c2GA0ZmZln3XOeUNLh59GUU6nc//ePS63K6YVBAA4dviwTqeLebEIMiBA/x9BEARB+prmpqb9e/dced2NCoWCH6/WaEqHjcjIyuYuv1i9Ki09Y9rM2dxlfkFROC/LsgroEgf27x9yWj++kXjBnx52m3XPjh2rP1x5/a13LLv6unhXrXfhN9zjdldVVmxav/bN5a/cfPtdiy+8uNPsZceP/uaeO15/98Ps3Lw+qC0iS0XFyZrq6iUXXkwptdqs+3btWv3RB/c+8NvFF10S76ohCAKA/j+CIAiCxIurrr1BpVaLIvm/kjeuXVMytPSaG27u23oh/YLw9GBZ9onH/vHmqy9Nmz6zaHBxvOvV6/C/Fw6n48Wn//Psk//Kys6ZOGVqfCuGdJG0jIxl197AhSmlf/jN/e+8+Tr6/wjST0D/H0EQBEHOIPw+35efrT588ABL2ZGjxi5eehF/HwGldMOanzauXxMI+IeNHL304svUIU+MZdkNa37avm2ztb0tr6BwxIjRs+efFadGnFkwDHPrnff++O3Xe3fvKhpc/Pknq9xu1/RZs7//+quK8hPX3HBLydBS6GxkA4HAN198dvDn/Q6nfXDJ0POXLE3PyAQAj9v9+epVh385YDSZ5i44e/zEyVz6aMPdwTSIVhQAuJyuTz/58PjhQ2kZkfUsXcGgNzzwP384fuzIs0/+6/X3PiKE1NfV/vjt1xXlJ91uV2HR4It/tSw5OQUA9uza8affPgAAv73/7pzc3KWX/GrW3HnREiN9BiFkzLjx5SfK+JH1dbVff7b65MkT2Tk5Sy++PCcvsl6jpqrqmy8/qzxVXlwyNEu4juOpxx+dPW+BUqFYt+YHm8364MN/0ul1ANDS0vzVp5+UHT+alJQyZfrM6bMEE8za3vbF6o+PHzuiVKpGjBpz/pKlGq2Wn6C9rfWJx/4xfuKUiy+/IvbtR5D+B57/hyAIgiBnCk6H/f47bln90crU1DSVSv3KC88+eO8dfp8vnOBE2bEX//uUyWzR6w1vLX/l/jtudruCm2//++S/nnnyX4SQYSNGtTQ1Hfh5b5wacSaSlJys0+scDjsA1FRXfvLRyt/cc+dUHvykAAAgAElEQVS+vbu1Op3ZYoHORtbjdj90753vv73CZDGnpmdsXr+OO2PCZrPef8cta3/8vqi4xO/z/fGhX3/9xadclmjDHS2+g6LaWlvvue2Grz9bnZmdY2u3PvKXP7qc3djRzTDMZVdcVVdb09hQDwD/+4eH9+3ZlZKWlp6R9e1XX9xzyw1OlxMAMjIyZ82bDwCz582fPW9BTl5uB4mRPsPtcm3ZuGHugoXhmCMHf7n7luvLy0+UDht+4vixu2657kTZMe7Wz/v23HPL9fv37SkoHHT0yKF/P/I3flHHDh9++b9P/+X3DzU1Nmg1Os75P3rk0B03XLNn187CwkFNjQ1/++PDLz33dDhLRfmJO266duumjfkFRQqF4vPVqwghour95X8estvsi5de1Iu9gCD9CXz+jyAIgiDx4Q8P/Zr/W3TMuAnX3HhLr1p8e8Vyp9Px3Ktv6A1GADh30ZKH77/7048/vPSKqwDA7XIDwCtvv6/X6QFgycWXPnDnrR+tfPeaG272eb3ffv3lvQ8+fN7iC3q1hogstTXVLqerZMhQ7rKlqelfTz8/Ztz4cIKOR/bD995uamx4YflbRpOJX+z7b60AgP889zK33j4rJ/e1F58757zFLMvKDncH0yBaUQql8q03Xg34/c+/tsJgNAFA+cmyO264plvNzyssBIBTFeUZmVlPv/CqWqPh4i9bdtXN11yx/scfzluyNDe/YOnFl6378YelF18W3v8fLXG3rCPd5fAvBx6+/y4AaG9tq6g4CQB/++e/uVuU0ueeemL23LPu/+3vAODK62783QP3vPHKi//32BMsyz73nycmTJ7yh789wjAMALz036c++XAlv+SK8hPvfvJF+DxISul/n3h8zPjxf/zfRzjH/r03X39z+SvzF57DnTj43H/+XTps+J///hhXoIhAIPDI//7R6XQ++fxL4XmCIAkPPv9HEARBkPgwauy4MeMnhv8rLBrc2xbX/vD94gsv5lxEABg9dvykqdO2b93MXWp12vSMTM75B4ChpcNnzZ2/Y8tmAFAolRqN9qfvvqkoP9HblUT4BPz+40ePPPb3v44YNWbytBlcZGZWFt/5h85G9ruvv1x0wYUi5x8A1vzw3cLzF4U3289dsNBus1VXV0Ub7g6mQbSiAGDj2jWLL7yYc/4BoGhQMffktuuYTWYAYAMsAPD9tKzsnOzs3Jro74frVmIkhkydMWvqjFlnL15yyRVXpqSk3nrtspqqKgCoqao8euTQ+Usv5JIRQubMX3j08CEAqKysKD9Z9qurrgn76medfZ6o2IXnLeK/DIIr7fIrrwk/1b/8ymsMRuPOrVsAoK62Zv/ePZddcbWs808pffrxR8uOHfvH4/8xmcwxbj+C9GPw+T+CIAiCxAfZ8/96D6fL2dLcJDoavbhk6E/ffxu+NJst/LuDikt279gOAAzD/P4v//fyc8/cfv3V2bl5iy648PwlMv4kEkMuOHuuQqFgWZYQsuCc82++4+6wG2M0CtyVjkfW6/E0NtRn54iPxHc5XS3NTa8+/+zGdWu4mIDfDwBOuz3acEeL76Aoh9PR3taak5ffk66oqakBgKLBQYHs0C8/7965o6a6ymG3VVVW+HzeDvJ2KzESE4aNHMUtPOH41ZXX3nb9Vctfeu5Pf3+0qrISAB75yx+SU9O4u9b2dofDAQC1VdUAkJNX0EHJJuHfOVWVpwAgNzcyu5QqVUHhIE544u5m5+bKFrVvz+6TZcfPXbQkMyvrdBqJIAMW9P8RBEEQJKFhWYYQAFArVQzDWNvb+Dc9HndS9Jere73e5JTgeWmTp02fPG36z/v2bN6w7oN33vrqs9Uvvv626CQtJIY88vhTKrXKaDLl5RV0vDi545FlWZZSyp0dwEepVDAMM3PuvAsuupQfz71iINpwy8Z3UJRSqWQYxtbe3pOu2LtrhyUpmTuw8OnHH9u6acPiCy+eMXuu0WA8cvBgBxm7lRjpJZKSk6fNmLlvzy4A0Gg1AHDx5VcOLikJJ+Beg6rVaQHA2t7edWGR+/vH2t7Gz+Jxu7k1ApSlAOBw2FNCWgOfseMnlA4b/v03X5119nljJ0w83cYhyMAD/X8EQRAESVhqa6odTkd6ZiYAKFWq3LyCzRvWnb8kuPiWUrpn585RY8eFL8uOH+Vn371ze3FozznH6LHjR48dP2P23N/ed9fxo0dGjhnbJ+04ExkzbnwXl4d0PLJanS41LX3P7h2LL7yYn0ulVufnF7a3to4ZNyFaydGGWxrfQVG5eQWbN67j77rv1vl/VZUVn6764N7fPEwIaW1t+fqLTx95/KnwuwBbW1t+2b+fn97r94VvdZoY6RtYSlNS0wGgcNBghmHsdpt0qhQUFDEMs3nT+stCawe8Hk/HxRYUFjEMs3nj+suWXc3FNDc1VlScXHbN9QCQm5cPAHt37covKJLmJYTc88BvK0+d+sdf/vDMy8uzc+SXCSBI4oH7/xEEQRBk4OHzeX3eyH8sy/Lvnig7drLsuMPpWLXyPaVKNXpscK/4smuu27F1y1vLX3HYbXab7aX/PlVXV7Psmuu4ux63BwDeWv5KS1OTw25b/tLzRw8dvPK6G7m7n338UU1VFcuybpdr57atDMNk4LrZfkPHI7v0kss2rVv7xepV3LL8smNH2ttaAeDam27dv3fPS889zZ2K39hQf+Rw8Al5tOGOFt9BUZdfdc32LZvfXP6K3WZra219/eUXutKiQCBQeap89Ucf3HfrTdNnzTn7vMUAoFGrGYbZuG5NS1OTz+tdv+ZHACgdMYLLkpmVDQA/fvM1y7Isy3acGOkb3C7X/2fvrsPjuM6/D59Z0IrBAksW2EIzM8cY22FsmjQNNAwNNEnbXylt0zdNUkoaaBK3SZOGyQ6amS2zbFmyLclitBgW5/1jtatZkGzLUlYaf+7rkj2zO3PmzMiF7zPnzGzZuH7LxvWLl10mhIiIGHDZVdd8/P6761Z9a7VYbDZbQf6p0uIiIcSAqKh5iy597+3lmzesM5lMpcVFf/jNL7tufEBk1MJLl773339v3rDObDKVl5X++Q+/GzwkZebcS4QQgxISJk6Z+u5byw8d2C/Lss1mO7Bvr3J3nV7/mz8+GxAY+Pv/+zkvhsDFg/v/AAD4xlWXznN7GdXydz90m8XdmWuXLVKuPvjoE1dc0zH0+tP339uwbrUQws9geOixJ2PjBtk/n794SW1d7X+Xv/7+O28JIeITkp7/+z+jomPs3/oH+AcGBX/39Zf2byMGRP7x+b8nDR4ihGhoqF/97devvvhXrU4nZNnf4P/Q40/Zx2OjL+j6N3vdjT+sqz3z6ot/e/2Vl3Q6rVar+80f/zx2fMSsS+Y9/otfL3/1nys++Sg4OKSxsWH6rNm/+9Pznf26u/hn0FlTQohFS5bVVFX+7+1/f/DOWzq9ftacS+ITu5rjbf/Phb2kFRef8MiTv3S+PS4wKPjehx5d/q+Xv/t6pUajGT5ydGLSEJ2u/f/NRkXH3PDDH338/rtff/HZ+EmTf/PMn7vYGL0n59jRKxfNFULYZNliNoeFR9xx9/3OwSl33/+wweD/9xee/cdf/uyn0xvNpjvuvs9+A/+BR39mNLY9+/vfaDQa/4DApZdfueLTj7o6khD3PfK4zWr98x9+a/83M2nKtF8+/UfnkzJ+9otf//XZP/780QcDAwJNFnN0zMAX/7Vc+ZST8IiI3/2/5x5/8N4Xnnn6t8885/ZfyIAqSbIs+7oPAAB8H7JP5BeWV42eOMnXHRFnaqrtz6ZyM2zEKD/FkO/cnOygwCC3sOR134SEpAFRLnNcS4uLmpubE5MG+we4P2vdYjYXFhaEhIS6BfiykmKdXh8RMeD06Xx/g/+ghES3/zdcX1dbWVGh0+kGxSf0kZn/hzMzB8dFD09P9nVHXLQZjd9t2DFi3LiQsLCzb+3B/isePXa81zRSVlLc1NSUPnSY51ed/Wbbe9XaWlR42uDvP2hQvE6vd35us9kqykobG+qjBsYqH67e2a+7i38GnTUlhDAZjUWFBfEJSf4BAaXFRQZ//8ioaK8nbl/2DwhIShri+a9XCNHU2FhSUhQZGRUVHVNVWWExm5VVs6rKivq6uqQhyfb/KHW98bkrKy6uKC5eNn9GN/btVdv2HJT8/JMzMs6+6fei8HRBXe0Z+7JWo42KiYmKjrHP8Fcym0wlxUVWmzV2UHxQYJDyq4aG+uqqyiHJqRqNJuf4scGDk+3/DE7kHA8ODvb662tuaS4tKoobFO/12QH1dbXlpaWh4eGxcYPs/5lya6qosKD2zJm0ocOcbz/xrd2bN08ZNzI+LsbXHYE6kf8BABeLU6eLs0+enjB9uq87gh6zf+fO4WmDUwd3J9H1HqvV9uWazRkjR0VEdfpsRfQvRfkFjbXVC2dN8XVH3PW1/I8LR/5Hr2L+PwDgYhESFGg2mcxms687gp5hNpvNJlNIUJ+4Zaek1WoCAvxbPR65j/6rtaUpNCjo7NsBQN9G/gcAXCwiwkIlSWqsrTv7pugPGmrrJEmKCAv1dUe8iIoIc3shH/ovWZab6hsGhPfFf2kAcF7I/wCAi4Ver4uMCDtTXeXrjqBn1FZXDogI0+v74hPdYmMiG+vqzSaTrzuCHtBQV2c2m2NjmM0BoN8j/wMALiKDE+Jqq6vP+lpp9H0mo7G2umZIQpyvO+JdXEy0TqerLCvzdUd6l9HYVlxU7Pb6SfWpKC2JjAgL7nszTQDgfJH/AQAXkYS4GP8A/6K8PF93BBeqKC/PP8A/oa8+Ikur1aQOSSgrLlL3EIDKyuovV3yl7mdqNNTV1VbXZKQO9nVHAKAHkP8BABcRjUYzZlhadWVlI3Oz+7Omhvrqysoxw9KcL/rug9KTk/z0eopN/Zosy4UnT8VEDYiNZvA/ADXou/+rCQBAb4gbGBUTNSD/xEmr1eLrvqA7rFZLXu6JmKgBcQOjfN2Xrmi1mjHD0qoqKupqanzdF3RTaWFha2vL2BHpvu4IAPQM8j8A4KIzccwwYbWcOHZMlmVf9wXnR5blU9nZssU8YfQwX/fl7AbFRicnxZ/Mzm7hXYD90Jmq6uKCgjHD05j5D0A1yP8AgIuOv8EwbcLopvqGghO5lAD6EVmWC07kNtTVT584JsDf4OvunJMxI9IHhIfmHskytrb6ui84Dw11dadystOGJCYnxfu6LwDQY8j/AICLUXhYyJRxI2oqK09kZVmtVl93B2dntVpPZGXVVFZOGTciPCzE1905VxpJmjp+VIC/X9aBA4319b7uDs5JVXl5zpEjg2KiRg1L9XVfAKAnkf8BABep2Jio2VPGtzY3ZR84yPDsPq6luSn7wMHW5qbZU8bHxvTpaf+e9HrdnKnjYwaEHz98uKKklCEnfZnNai08dSovJyc9OXHyuJGSJPm6RwDQk3S+7gAAAD4TER46d/rEvQePZe3bHx0Xl5g8RKfT+7pTcGGxmIvyC6rKyiLCQidPnhgY4O/rHnWHVqudMn7k8ZMFuadOVpWXDU5LDQkL93Wn4K66srI4L89ms04aOyJx0EBfdwcAeh75HwBwUQsM8J87fUJhSfnRnFMHKysiYwZGRkeHhIVx38+3ZFlurK+vqaqqqazQa7UTRg9Lio/1dacuiCRJw9OTEwcNPJx94tjBQ6Hh4dGxseEDBuj0lJx8zNjWdqa6urqsvLW1ZXBC3IiMFIMfvxQA6kT+BwBAJMXHDhoYXVBcWlBUll1aqtFqAwMD9Xq9pNX6umsXHdlqNZvNLS3NNqstJDhoRHrykIRBOp1KfhHBQYEzJo2trKnNO12cn5trs9n8AwIM/gZt/xx4UnOmVghx6niOXt8P/y+lLFsslraWFpPJpNfp4uNiUgaPCAsJ9nW3AKAX9cP/sgYAoBfodNq0IYlpQxKbW1qrz9Q1NDWbTGar1ebrfl10tH5+fmFBocHxUQPCgwIDfN2dXhETGRETGWGxWqtrausbm1ta28xmi6871R0GjSSECNBKem3/Gy8jSZI+MCgoNjIiLHRARJiGIT8ALgLkfwAAXAQFBqg1dqJP0Wm1sTFR/e5xhkonC4p27js0Ycyw/vI6RgC4yPH8fwAAAAAA1I/8DwAAAACA+pH/AQAAAABQP/I/AAAAAADqR/4HAAAAAED9yP8AAAAAAKgf+R8AAAAAAPUj/wMAAAAAoH7kfwAAAAAA1I/8DwAAAACA+pH/AQAAAABQP/I/AAAAAADqR/4HAAAAAED9yP8AAAAAAKgf+R8AAAAAAPUj/wMAAAAAoH7kfwAAAAAA1I/8DwAAAACA+pH/AQAAAABQP/I/AAAAAADqR/4HAAAAAED9yP8AAAAAAKgf+R8AAAAAAPUj/wMAAAAAoH7kfwAAAAAA1I/8DwAAAACA+pH/AQAAAABQP/I/AAAAAADqR/4HAAAAAED9yP8AAAAAAKgf+R8AAAAAAPUj/wMAAAAAoH7kfwAAAAAA1I/8DwAAAACA+pH/AQAAAABQP/I/AAAAAADqR/4HAAAAAED9yP8AAAAAAKgf+R8AAAAAAPUj/wMAAAAAoH7kfwAAAAAA1I/8DwAAAACA+pH/AQAAAABQP/I/AAAAAADqR/4HAAAAAED9yP8AAAAAAKgf+R8AAAAAAPUj/wMAAAAAoH7kfwAAAAAA1I/8DwAAAACA+pH/AQAAAABQP/I/AAAAAADqR/4HAAAAAED9yP8AAAAAAKgf+R8AAAAAAPUj/wMAAAAAoH7kfwAAAAAA1I/8DwAAAACA+pH/AQAAAABQP/I/AAAAAADqR/4HAAAAAED9yP8AAAAAAKgf+R8AAAAAAPUj/wMAAAAAoH7kfwAAAAAA1I/8DwAAAACA+pH/AQAAAABQP/I/AAAAAADqR/4HAAAAAED9dL7uAAAAAADfsNpsTabW/DMVB0vy2j+SOv6SlJtKXfzVxW5nb9G+6NpSZ0f21rRHV5xrkseH7p+c9Suvn3dyKRYPGaPTaAJ1Bu+HAPoA8j8AAABwMTpWUfjxoa17i04I4Rp0JUnxtyKYS8KZqb3/4VyW3OK85Lns2bpbzldme/evvOym7EVHnzzOzPueLqtumb/TK+N+ct8WHArSGxYmjZodP3SAf7AA+h7yPwAAAHBxOVZe+NmR7TsLj3ckW1nIkty+Ksv2UCvLQpJkZ5JuX5UlIQlZePvD+ZWjBSFcVl2+8mhdljo2UvwoO+T4WNG8Y7f2rztOxNG065kptlYsu6wqd+jqynicnCw1m40rT+3bUnJ81qCMuQnDqQKgryH/AwAAABeLFrPx88M7Pjm8zWy1CHGOQZcSwHmUAIQkatuav847cKDi9A1Dp46OSuyJ3xvQM3j+HwAAAHBRMFnMv131v/f2bzRZzO0fyUIWcscWylVZVvzdsU37qiwcn3r84VyWFXspG1R+5dG6ciPFj/v+bs27HarjRJzHcTkz73u6rJ7rlfE4OcdhS5rPvHRg1aaibJcDAD5F/gcAAADUr8Vs/PWqd4+Wn7avnn/QpQRw3iUAmyy/m711U9ExAfQN5H8AAABA/f626fPDpfnecy8lgF4rAQgh3ju+/VBVoQD6API/AAAAoHJrcw/ssT/nv7PcSwmg10oAsix/lrvnTFuTAHyN/A8AAACoWVFd1T+2rOiY808J4HsvAZQ0n3n76GaX1gFfIP8DAAAAqmWT5XczN1is1k7DLSWA76UEcLSmJLumRAA+Rf4HAAAAVKvVYtp88oh9mRKA6NjXByWALSXZAvAp8j8AAACgWhtzD3UWdEVnudct6IrOgi4lgPMrARyrKW00tQrAd8j/AAAAgGrtKcwRnQdd0VnuddnB8YFjI8XflADOowTQZG7Lq68SgO+Q/wEAAADVOlSSZ1+40BIAEwF6ogSQfYZHAMCXyP8AAACAOh0qzTdZLWcNuqKz3MuzAHq6BJBVVSwA3yH/AwAAAOpUXFdlsVmFOHvQFZ3lXkoAPVoCKG0+IwDfIf8DAAAAanaOQVd0lnspAfTwKADAZ8j/AAAAgEopg6o4e9AVneVeSgCUAKAK5H8AAABAvdzeQUcJwNclAMCHyP8AAACAqlECoAQACCHI/wAAAIBauQVxQQnA28m5nMj3UQIAfIb8DwAAAKhWR+bswyUAqUdKAM4NO76mBAC40Pm6AwAAAAB6jyzLkiS1LwpJEkLIQpaEJGQhJNG+Kkvtyx1bu692LCt38Ni//RCykCTHAZyrHYdt/8NPp5uRmDo/ZXh2VdnXuYeaTEbJ0YIQQhZC6uhzx7KydY0kDQ6PvGbYBJvN9kXOgaLGWlm2b2w/uMv+yjbcTs7en/YTOduV6fQqncOVAXyI/A8AAACoWx8tAaRHDrxn0iWzBqfpNNol6aOXpo96PXPLnpI8q812jiWAMP/A64aNv2HkpDBDgBBiUcqID47u+TL3UKPJSAkA8ET+BwAAAFSvb5UAggyGm0dPvXHUlIiAQPtXkhDDowc9t+i6TQU5y/dvLayr6boEoJGkOYMz7powOyUi2tnRiIDA+ybOXZA87PX9W3aXFPTREgDgO+R/AAAAQLW8B13flQAkIU1PTH1o2sL0yBjJ42a4Qae/NG3U1ITU94/s+vDIbqPV6mjYpQQwODTigcnzZySm6rVatxY0kjQ0MvbZ+deuy89evn9bZUtjnysBAL5D/gcAAADUqv2hd32kBDAoNPzhaQsXpo7QKJo909q86sSR6YmpQ8Kj7G2G+wc8MHne0rTRL+9ev6skz2KzCUcJINQ/4JYx024cOTlAp3e2YLJaNp8+4a/TTUtI0Wu0QgiDVndZ2ugZCan/Prh91cmsNouZEgAgyP8AAACAarU/976ToPs9lgCC9IarRoy/Y8LsAQFBztZMVsum/JzXMzcV1tW84ef/ozHTrh050blBckTU85fesDH/+Jv7thTU1fhpdbMHp987ce7g8EhnCzZZPl5dtvzAtt3F+ZIkzRsy9I5xM5PDI+0di/APfGLaooXJw97YvzWrssQm5L5QAji/3yDQo8j/AAAAgHp1HXR7vwQgCTEtMfWuyXPHxiZopI63j5+oqXhtz8adhafMslUI0Wxqe2Pf5vX52XdOmD0veahOoxVCaCXNwpQRE+IGrzx+MDkiamZSmv32vl1ta/O7h3d9nXu40dQmhBBCWpeffaC88PoRE28cMSlQ72ffbNzAxBcWXv/dyaz3juyuam30eQkA8CHyPwAAAKBqvisBRAWG3D91/rKhY/wVw/WbTMb3Du36+MieurYWyV4ikNonKpysqfzdhhWrElN/Om2h8z7/gICgO8bPVJ6QVbatO5X97wNbC+vPSEIo3whQ09r85v6tmwpyHph0yeRBQ6T20Qd+1w+fMCMh5e1DO1blHbXJPi0BAL5D/gcAAABUy/Hwu++7BOCv0182bOy9U+ZFB4U497LYbDuLTr60Y21+bbXccWSXlwKardYtBbmZpQU/GDXl5jFTw/0DXU5HlnNrKl7es2FfaYHNeYKuLwW0yXJuTcWTaz9dkDL8rvGzB4WE2fcdFBL+i5lLL00d+XLmxlO1VTb5HK5MN0oAQlEDoQSAPob8DwAAAKjYud3r7rkSgJDE2LjEh6cvmjBosNsT/v+wYeW3uYdtstx+27/jyC4lACGkFpPprQPb1ucdu2fS3EvTRtm3rDe2vnNwxyfHMo0WS/v+ri8FVDQnzDbrqpNZu4rz7hw/c1naaPt0AI0kTYwb/MqSm7/IOfDRscwzrS09XwIQLjmfEgD6FM3ZNwEAAADQT7W/AaBjWbEuhJA7lju2kh0bO1Zlz63dV+3LMcGhj85c/NpVt02MH+L5er+dhSdtsrMDyn3dDtv+R2H9md9uWOE8yqb84/87tNMe/r2dmezanBBC1LW1/H3XuifWfrqv7LTNsUGg3u+WUVNfWnzTgiHtDxo4y5Vx9Occr0ynV0m5A+AL3P8HAAAA1EmRNXt9FIBWo1maMeaeqfOSwgco73I3GttCDP5eOuJ4KaDiY/dRAEIWNsVJWGXZveuKVa+jACQhZFk+WF748/UVS1JH3j52RlRgsH3fIeGRv5592faiU8sPbjtdV/O9PQsA8CHyPwAAAKBajlQreq8EIIRIHhD91JxlUxNTtZqO8cVVzY2v7FqfFDbgzklzXPt0fiUAl5Nxy/nnVgIQQrSYjJ8fP7C18MQDk+bNTx5qf4+AXqO9ZHDGhNikj45lfnIss9Vi/j5KAIDvMP4fAAAAUCu546d3JgLotdo7J8157wf3zRic7gz/rWbTx0f23PzhayuO7TNaLYreuAzRd/x9tokAytNxfuo2Ov9sEwHsq1UtTX/c+vXP1nxyrKrMOR0g1OB/9/hZry370aiYQd/TRADAR8j/AAAAgIopMnAvlAAyomLvmzo/yM9g/9AmywfLCh/+8t1nN31d1dzoLb/7uARgk+V9ZacfXfPRq5mbzrQ2O79JjYh6ePL8s18ZSgDozxj/DwAAAKiUrBjt7xxn36MTAfx1eoOuPVNUNTe+lbll5bH9TSajEML7cHfX/c9lIoDbCUnKHp3/RAD7KTabjB9k7dlZfOqOcTPnDs6wTwcI1hscUyV68VkAgA9x/x8AAABQNdntR/TgKAClF7evee/gTnv4d23IvT/nNQrAy9mczygAyZ7jXVu3LxfU1fxx6zdHK0uVzZ/TlbmwUQCAr3D/HwAAAFAt9xva9h/hfq/8QkYBOLVZzPagq7z17doZRVA+91EAHudzjqMAQv0DLk0dNSspPVDv12hq212S993Jo43GVuUpWqxWi83qds3O6cowCgD9EPkfAAAAUC9n7uyliQBeb9Ers25nd74dQXlIRFSQn0EIyWi1nKyp8FIC8NjxXEoAaZEDfzv3iozIgc79piekLEsb/X8bvihtrPPopUvjlACgVuR/AAAAQNW8lgDOK+h2XgJwe7qd5zFde+Jowbkqyb+ce0ZJs3MAACAASURBVPnkhGQhRH5t1XXvv+I5CkCxt3BN/52WAAL9DL+ec5ky/NtlRA78zZzLH139kdFidvZSeQrnfWXOvwTg7TcEfE/I/wAAAIDa9VoJoPP7+52XACTXEoBHC24lANe93dK/9xLA3MEZw6LinEeobW0J9w/USJIQYlT0oPsnzS2qP+NoUooJCnU/RG+WAAAfIv8DAAAA6iQLZU7vpAQgLvRZAC5HdA26sixbbNY2+812xVP7vDw8wLGD12cBdJzPuZUApsQnO/f4w6av1+UfW5o2+qmZS3QajVajuXHEpC6v2fkXRygBoJ8g/wMAAABqdpYSgGO1myUAz8O5Bt0vjmZuLcixL9e3tjj71P0SgJf0714CGBAQZN/caDHvKDpptloPVRQ1m4xh/gHncLEoAUC1yP8AAACAennMp+/5xwF2HEt4bC2qm5uqm5uUubd9+TxKAC7fKQYfdFoCKKw/MzUhRQjhr9PfM3HO6pNZl2WMDTX4n9sV690SwDn1Aegd5H8AAABA1c6lBNDdZwG4xn+5I/R6TATw8hh8Wciu8b7j6YCKEoDLmThfCthlCWBzQc51IybaJ/xfN2Li5Rlj/XQ6++GNVsszm78+WVvpaFP61exlo2LiHR3w9rrEHi0BAD5E/gcAAADUrtdKAG7P/+tiuHtnJQD3nnqUABQUgwK6LAEcKCtce+ro4rRR9v0Nuo7UsyE/e31+tqxovNXxeIKeuTKUANCHaXzdAQAAAAC9QzncXJaFMm47v5LdfhybKj/2spv7rfmOLRRP9Jc9b997W1bu7La/x9eKU5GdH7n/YbZan9u2amX2gVazyblzi9m08vjBP2/9zmY/dmdD8S/8yjgfc6jok3A9M8AnuP8PAAAAqJfrbfdzGgUgzuNxgMF+HZPqQwz+kiPCn+MoAINOb9B6RBLX/Ts5rbOMAmgytv1527crjh+YOGhwqMG/wdi2r+x0TnW57HJmLkMMtBpNgE7fajH36iiAs//KgF5D/gcAAABU7XxLAEKxqeg06AYbDNeOnvzjibOcx3loxqLooNAPDu2sa205lxLAyIHx902dP8Ix9961z50Nl1f2/SwlAJtNHKsqPVZVKgmhzPmSWwnAEcljg0OfX3T92we3HygvsvVaCQDwIfI/AAAAoHbdGAXQedDVajRzkoc9MntJWtRAjSJXRwWF3D99wRUjxr+8Y+2a3CMWm62zEkBUYPBPJs+9euTEQL2f88Mmo7Fj8r/wUgJIDBsQoPNrtZjOvQSgfCmgUOZyxZk1m432z7WSZmLc4FEx8ZsKcl7ft6W8qZ4SAFSG/A8AAAColzOY9sREAK2kGRWX+PCsxdMHpyuTv8Vm1Wm0QgiNJCWFRz6/7KZbxs14cfvq/SWnrTabsgQQ5h9wzciJP5k8N8w/0Lm7TZbzzlQ+v+Vb98wvC42m4yhTElI+u/mhl3et25CX3WaxuJzKBZQA3ti3JTIweER0nFbSCCEMWt2lqSNnJaV9fDTzs+z9Z9paergEAPgO+R8AAABQtW6XAIRLUE4Mi7xz6tyrR07y1+udbZuslu0FuR8f2n3VyImXpA7317V/NXZQ0r+uvWN17pH/7N1ysrpCSMKg089JHvrA9AVpkQOVvStrrHvv4M7PszJb7M/qcy0BWG22nOryYdFx9tWBwaG/X3DNVcPHv5m5+UBZodUmiwsuAeTVVj30zXuL00b+eOz0xNAB9m+D9IY7xs1clDLi3cO71uZnGy3mHisBAL5D/gcAAABUyy2odu9ZAGH+AT8YN/3mCTNiQ8KULWeVFb2xe8PW/Fyz1bKj4MT0wWl3T503Pn6IfWiAn1Z3xfDxs4dkfHx4z8HSwpvHT5+WlKbTdLyArMlkXHE08/2Du0oaau2fOF8KqIzKT3z34T2TL7k0fZRBpxdCaCRpUnzyiJj4daeOvpm5pbShTlxwCcBotXyVc2hX0anrRky8etj4cMfYhITQiF/MXLIsfdRbB3fuKyuwyfKFlwB65vcKdAv5HwAAAFCzCywBzE0Z9tS8K1IiY5QD/qubG9/YteGLrMxmk33yvGSxWbfm52QW5y8eOvrhGYvjQsPtW4YHBN095RKLzabXap2722R5W0HuP3esPVFdYZNtkmdiVpQASupr/7hh5VfHDz44bcG4uCT7loF6vyuHjZ+RlP7B4V0fHdnbajZd+ESAqpamN/ZtWXUy6/ZxMxenjrSfryRJYwcmPrcwbsvpEy/uXlfb1nKBJQDAh7RPP/20r/sAAACA/udMXcPBozlzpk3Q67il5BuFJeWSVhcRGdnZBjnlRTvyjtmX20OoM8MrH8dnD7qKValjH+mz2x+NCw13ftbQ1vrBgZ1Pff3BrsJTJqtVct3NYrPmVJZ9cXSfVbalRsYE6P3sX2gdt/1tsu1YZclv13y+fO+m6uZG58P3JcnL8YUk7CUAmyyXNtR9dfxgWWNdRlRssJ/Bvk2g3m9KQsqClOFVLU2VTQ2TBg25eey0m0dPm5yQHORnKG2sM1utzpOXHC06zkxxRMeqLER9W+uW07mZpacTwyKiA0PsVQCdRpMaES0kaW9pgXMHxY+iOclL88rl64dPE50rOX06PjYmNCSoi22AbuO/rAEAAAB1ck6OFxcwCiDE4G//2Ggxbz6V/c9ta09WlwvRHnK93utubGt9aduaFVn77p02/9KM0QGOh/wX1595O3PrymP72yxm4RqLXbvjZRSAEMJms63M3r+tIPdH42dcPWKCfZS+JMSQiKi/LLkxr7YqOTzK2cgVQ8cerSz5w6Yv885Un+8bAYQsH6ooevi7DxYkD791zLSUiGj7ZkF6P+VjEbo7CgDwGc3ZNwEAAADQP7WXAJzLilUhyx1hVJaFMpvKbvsIIcTa3KzHVv7vRHWZ4itl864tynJhXc2vV3/6WdZe59cPrvjvh4d2tZnNnsf36I6zk0JWdkIWNa1N/9yx9t4v3l578qjVZnN+kxIRrSwoCCFGxsT/fv7V7fULWfGHc1l5ROF6oWTZbLWuOpn1wLfvKY/iemWUP+77d3plAN8h/wMAAADqJV9wCcChsa3VkYTPLejKsizL9a2tzu/qWluEa6LvXgnAJuQTNRW/WvPZY99+cLyqzO2MTVaLc3lYVNyS9FGu6V+cewlACFHf1uqe3CkBoN8i/wMAAACq1kMlANmZah3NhfoHPDZ76U9nLdZIUmclAK8j3j1LABEBQa9fc8clKcOVLwjoogQgC9lis24ryL3r8/98mX3A+c37h3ctfvuvv1r7uXPfGUlpHunfeVHOqQTgBSUA9E/M/wcAAABUTO6Y9t6tZwF4a0746/QLM0Y9MntJYnhks8m4NvdIdmVZJzPeXXd2NK2c2i/L8k8mz50+OG1KUsqmU8f/tXvDiepy2a0h12cBOFdbzCbHOwhEm8W8KvdIo7Ftc0FOWVP9oJBwIYT9T7lbbwRoXxYuBYKuXpcon/1ZAOfxqwN6Gvf/AQAAgP6hpKzy/S++yzp+0myxnH3rDoob3t0YBeDalEaSxsUP/uc1tz9/+c2J4ZFCiCA/w2NzlzkqCYpWPJpQ3HN3rMpCCDE0Ova6UZOEEFpJsyBtxH+uv+vB6QujgkLcG/I2CkAIUdXcaP/AX6e/fuSkIeGRlw8dMzA41P5hcf0Zz3v/rhflbKMA3M/C4xTPbxQA4DPc/wcAAAD6B4vVeiw3Lzs3T6fXjcxI0Wn1UbEDu96l43b7hYwCcIgOCr1/xsIrR010vhRACGG2Ws+0NGmFxiKsns+9dwvQinvujlVZ0krakobajKhY+zYhBv+7Js9dmD7yzT2bVucesdhsXY8C2Fuc32o22d8ycMWwcXOSh4YY/LVS+53OradPuB72vEcBuJ5AV+9KOOdRAIBvkP8BAACA/kQWwmy2HMk+abPZNEdzUk8XDxs+ND4xwXu0bI+3otslAKdJiSlf3PFYtOO+un3zoxUlf9n09d6ifJv90YCer77rrEeKEsCxipIff/T6D8ZMvXPy3DD/ACGEJEnJEdF/WHTdNSMnvbDl29yq8i5KAMeqSladOHLNiIn2He3vBbTLripblXuk/VS6XwJwvbQXVgIAfIj8DwAAAPQ/9kfxW62WkydO5ubkBgQGpKenpaalxg2Kc9/0wkoAzmYyomOVrZbW1/5r5/ovjuw1W61CEuKc7nU7B8W7lwCajcb/ZG5ZlXv4vqkLlgwdbb+Zr9NoJickv3vjvV8czXxr39aKxnrhrQRgs8nPb/lWr9EuShtl0LUHHKtsO1B6+nfrV7SYTcKZ2R2HDdTr0yMHjh6YIElSYV3NofKiBmNbpyUAxbMKOxa6WwI4y+8V6E3kfwAAAKAfs994b21pPZp19PChI2HhYRkZ6RlD08PCwx1z26ULKgF4aDS2rsza/8bO9RVNDaJ9X/eH5tnXY0JCh8cMcu44PCZ+W36OYysvEwFKG+qeXvf518cPPDh94bhBgzWSJIQw6HQ3jZ02O3noz7/7+Eh5kddRAG1m89PrV3yZfXDm4LTYkLBGkzGzOH/r6RNtFpPyUYb2EkDqgOgnZy+dENfevhAiv7b6n7vWbSs86bUE4CS7XqXulgAAnyH/AwAAoPv+9OJyX3cB7axWmxCivq5+757MvXsyY+NirQNDPAa5i/MuASjYZHlr3vFXtq89Ulpok2X7bX/FTe2O5gL89NeMmnzbpNlJEZHO3f92xS3/27/9v5lb642topMSgE3Ie4ryssr/u2zYmLsmXxIfFmHfNz40YtnQMUfKizqbCGCVbXtL8jJL8tsP5ui+29sM4kJCn118fUpEtPK8kiOi/rDgmidXf7yv9LRnCUDJ5avulQAA3yH/AwAAoDtioyNvuupSX/fi4lJVU7t+254uNtBoNTarLSI8fOiIYekZaetPHXF78t2FlAAqmxqeW//l2pwjbRaz6DLoXpI6/OHZlw6LjtNqXF43FuRnuGfqvDkpw57d8OX+kgK5kxKAkESL2fjpkb3bCnJvnTDzxxNm2XfXa7X2Be8lAPdTdJyXa0j/0bgZbuHfLtjPcN/kSx746l2zzda7JQDAd8j/AAAA6I7goMBRw9J83YuLy+niMq/5X6PR2Gy2oMDA1PTUocOHRkc78237DIALKQE4j7IuN+vLo/u7CLo6STM0Ju6R2UtmpwzTKHZsNZvaLObwgCBJCEmShscMeuvGez49suelbWvq2lo6KwEIIcob6/+y5btbx8/0HIvQaQlAKFfdSwAaSbosY4y9BaPF8uLOtdWtTY9MWxQfGi6ESI8cmBY5MLuq1OvjAF2OfgElgM5/vUCvI/8DAAAA/ZJGI8k2We/nl5aRNnRoRuygOG/h0v0J9+dbAlC0JHdsINyD7uCI6J9MnXvlyIn2R/fZWWzWvUV5r2xfV1J/5qFZiy8bPs5fpxdCaDWaH4ydNjUp7e9bvtucf9xstXZWApBdH0Dg+miCrl4K6LUEEOYf6Hxz4ZbTOZ8czZSFnBAa8dNpC4UQgXq/yMBgL28EcO2BYi5/d0oAZ/utAr2I/A8AAAD0JxpJY5Nter1+YFTEoPj4CdOmajofV96RTLtdAvDeXPuqLEmRgcE/GDftlokzXV4NKERuZdnru9ZvOHHUaLUIIf1u9WfrT2Q9MfeylMgY+zZDIqKev+ymr7MP/mvXhtKG2s5KAB5d6H4JoMlktNps9lkJw6LiogKDWszmkdEdTygcH5d0pKK4rq1Feb1cju7+oMNulAAAnyH/AwAAAP2GTqsbljZ47MiM9JTBu/Ydkfz8uwj/dr1dAlg8dMxP5yxRdqO6ufGNXRu+PLqvrrXV8RQ+2WqzbTyZnVVefPfUeT8YN81PqxNCGHT660ZPnj447e9bV6/KOdT+rr1eKwGYLZajlSVjYhOFEIlhA9657m6rzRYTHOJs+ZYx02Ympb19YPuak1k2ueMauRz9AksAgO9ozr4JAAAAgD4gNibqlz+986arlwxPT9E5HoZ3Lhwj94WQHX91LLuuOoa7y4o9XT5xaU4IIb7LPlBYW21fbjYZ383cdtV//vbO3q11LS2uzclCiKqmxuc2fnX3J8tzKsucY/sHhUb8eemND85YqOxde486CczKeQEdy247KFcdff7Pvm1mm9X+WXRQSGxImEbqyEQaSUqJiH563lX/vvrOyfHJOo3HAICOs5E9l92uTEfPZMUP4DvkfwAAAKB/MPjpDX767u3b/RKAshEvzYm61paXt61ps5i/OXbwpnf/+cy6L6qbG72EY8ceVpu8tyjv5vdfeXP3xiZTm/1LrUazOGO0W+9cOuj6LALR3RLA9tMn/rV7Y5PJqGzKYrOeOlNlslrsqxpJGhkz6MVlP3x20fXDo+MU7zd0vRTdKgEAPsT4fwAAAEDFlAPSuzMRwLUxl5H3zuHu3x47WNFYn1mUb5NtQnjOdncZLm8fMt9qNr24bfWW/Jznlt0UHxYhhEvmVz4LoLPje3TnnCYCWIXtvwe2Hy4vumrEhNQB0UJIlc0Nq09kbS7ImZaQetv4GSMHxmsljRBCp9HOHTJ0SnyyTvkWQ8WciO5OBAB8hvwPAAAAqJTsGUXPuwTg0aaXEoDFZt19+qQQQnjMeA/WG5rNRq8lACHk/cX5xfU17flfKLeSJSEZtLplw8e5dePCSwA2IfaVnt5XejrQz08IYbRY7WWLzQXHM0sLFqaOuH38zMSwAfZdla8zkN1yfvdKAIDvMP4fAAAAUDOPAemO1XOeCGC3aOioK0dN1Go0biPv3Vp3DncPMRgenrV4xZ2PxwSFdmwqFJPhvYZhWRZCSJI0Lj7pjevufHrRNZ5FCM+XAnpZPttEACFEi8nUaja1j1kQQpZFs6ltZfaBH3+2/LW9G+vbWr31z73r5z0RAPAd7v8DAAAAKnchowCcL8yLCQ7769U/+uGEGS9tWZVZlGe22TwnAthX/fR+izNGPTJnaVJEpBDioVmXPr36U5ssu90rd4wCcCEJMSg0/IEZiy4fPt5l4L29Y47DXPgoAOdLAT2vTKOx7dOszGA//x+NmaY8is1mc1yb7o8COPffGtDjyP8AAACAWsnO+f/dLgG8tXvTjybP9tfphRCSkCYnpS6/6Z7vsg+9uXN9TlW5W3MaSRoTl/TArEVzU4c73wh42YhxX2TtPVBc4BmU3UoAIYaA60ZPvn3S7Ojg0E7ORxnhe6UE4KfVzR6ScdfEOemRA5WHLm+qX3PqqMvTCbpVAji3XxzQK8j/AAAAgHopnsTXvRLA8+u/2pp3/MFZiyclpdojvUGnv3r0pDmpwz7cv/OdzK01zY325gaGhN01ff61oyeH+gc4j2+xWVcfP1TeUNfp4wAdn0YFhSy/4a4RA+M1ilRfXH8mwTEV33FCvVUCkCRpbGzS7RNmTktM1Ws6Xq/YZjGvyN7//uE9ZU11wu16daMEAPgO+R8AAABQp45Z6RdQArBYrVtPHc8szFsyfOwT8y+PC21/Vt+AwOD7Zy68YtSEf+1Y//mhPdeNnfLAzEVxYRHKlHusouTP67/MLMqzyjbXtwIogrLjjniof8Co2ATnvm0W8/v7d7y9b+vm+34luQ6b740SQGRA8EPTFyxKGxWgc3nD4rbCE6/t2XiypsJm76frNaIEgP6F/A8AAAColjKnXsgogFazacXhvWtzjtwzY8EPJ8yIDAoRQkiSlBge+adlN/5ywZXBBn/lcSsa61/fuf6Tg7uNVkv7kZzxvz1Iy7KQIgKC3HYUQpit1u0Fuf/YuupEdbnbyXTM/++5EkCg3u+mMVNvGz8zRNETmyznVpe/tmfjzqJTNiGL9sM6L0/3SwCAD5H/AQAAADXrqRKALIlmY9vfN3278kjmvTMXLhs+LtDPYG9BmeFbTMYvjmS+sXNDWUNte/seLwWUhDBo9QsyRv501qVDBkR3dFWWc6vL39i1YXXOEVtnD8vr6RLAfVMuuWXcDOWhShpq3zu068vjB1vNJkkSQkhuwf9CSgDn8ZsDehr5HwAAAFAvj5x6gSUASZbzair/7+sPPzu4+8HZi6cnZ2il9qf0W222PYWnXtm2Zs/pU3L77fL21pUlAEmSRscmPjhz0ayUYcon/Ne0NP1v3/aPD+2qbW127Oc28N+ld6KHSgDpkbHO3RqNbSuy939weHdFU4PLlZF7rgQA+A75HwAAAFC1XigB2KP+4Y+X3zxx1q8WXW1v4bXt617fub7NbHJs7v7qO0mIyMDg+2cuumrUxFBDxzMCbbK86vihl7auLqyraZ8coNjN42x6uATgfAJBdUvjw1+9d6KmwjH0wPXK9FQJAPAd8j8AAACgWl6yfA+VAIQktZnNWWWFzmPlVpW2moxCkbmVrftptVeMnPjY3KUxinf72WQ5u6LkhU1f7ynMk+33xiXhkaMVZ+NxUuLCSwAOTUZjTlWZ15cCUgKAOpD/AQAAAJWS7X/0YgnA20FdMreQJK1GOykx+aezL52UmKIM52UNdf/evenTQ7vbLGZ77Hd5TIDX5jvitHsJQCM0A4NDRwyMHxAYZLRassqLi+rOWGXbeZUAXA7RSyUAwHfI/wAAAIB6dZble6oE4OX2vEsJICk88t4ZC64YOSFA7+fcsMVkWpmV+ebuDSX1daK9E+5B+bxKABpJumX89NsnzRnoGFzQYGxdeXT/G3s21re19qkSAOBD5H8AAABA1XqzBOBxrI4H3dlz9mNzl14+coLie3l34amXtq4+WFJgtdnaR/s7Dyy8lACU5+GxVXvvbh4//Yk5y7SKpwmGGgJ+NH7GgMDg36z5zGKzdlECcL1UHRMJeqkEAPiQ5uybAAAAAOiHOu7Oy4pV92XHpHrFssuql908V4Vwbci+IAvxn92bLTar/YPyxvqnvvrgrg/fyCw8ZbHZlB1w74jrR3ZaSeOn1Rt0eoNOb9DqDDqdQaf30+kGR0TdO22+M/zbHA1IkrRs6JhZQzIU3RHuy2535GXlKXZ5ZZQXxe2Pjkur2Mt1FfAJ7v8DAAAAqqW8191LowBcDqdoyN5EVnnR/zK3XzNm8icHd72xc0Nta7PXlwJ2/AjPiQDtrh8z5foxU7o+371FeR8e2jVryNCrR02UhJAkaenQMZvyst2vhseTApXnoHycYM+PAgB8h/wPAAAAqFkvlwA8DudaArDZbK9sW/PZ4d05FWWycG/dSwlACJfcfD552WS1vLxj7b6Sgh2nT8wckm5/0UDKgGjvV8NHJQDAhxj/DwAAAKic23D3np8IoNjUrSEhRG1LU3ZFqWNv99bdRvt7ae6c6TTa9KhYSZKGRESH+gfYP2wwtsquLXmfCOCm1yYCAD7E/X8AAABA/XppFIDnYTpG7itWPV8KeJZRAIr9nW0fryzbUZCruGHfvhQdHLJk6FidRqORpCfnLrt+9OSE8AH+Or3928zifLfje652fC4UbwTotVEAgK+Q/wEAAACVkjsZ7t5zJQDXo7mP3L/QEoBwmf9/qPT0C5u+EUKZoyVJEjqNNjIwePrgdCGEQacfFjPI+XVR3ZmPD+12P31vqx1XTKIEANVi/D8AAACgZl08975HJgK4HsxluLvbRAC3rmgkafjA+JGxCS5feZkI4HoAl9H0siwLi836y28/2lecb3P9Iqeq7Ilv3q9qbhTeju+5qjgF2fsqEwHQz3H/HwAAAFC53hwF0OH6cVNPVVfkVpaeyyiA2NDw+2YsvGrUxMqmhlvfe7WqqaGrUQAdZ+L4WPFMPVmWqpob7/v8rVlDMqYOTosOCmkwtu0rzt+Sd/xMa7Nwv4vfcSn0Wu2lGaPTIgd6XK9eHAUA+BD5HwAAAFC/XioB2GSbs7VL0kaMix/89u7Nr+9Yb7SYOysB+Gm1N46ffve0efFhA4QQQQb/WybOfHHLKlmWvZYAOk7B+Ze3EkCLybgm98ia3CPOT9sTe/uJupcAkiOiH5+9ZOaQdJ1G6+Uq9VoJAPAhxv8DAAAAatXpcPeemghworp8V8EJ58D78ICgRy5Z9tU9T85JHa7VaN0mAmglacrgtI9ue+R3i6+1h38hhCTELRNmDggMdu+Zl0kAHnMEvJ2QYiuXGQrOgfyh/gEPTFvwwc0PzE0Z5gz/bRbzZ1mZblemlyYCAL7C/X8AAABAtbp46F2PjAKobW6+8/1/3Tp59r0zF0YGhQghJCHSomLfvOmeb48d+OeW1fk1FUKSJCGGREbfO2PhdWOnahT9sdps+4vzX9qyuqa5Udm66ygA1xMSrgMEXEcBtC93bNVxUkIInUYzN2X4QzMXKsf8W2Xb0fKSf2xfva+kwPPK9PwoAMB3yP8AAACAmvV2CaDVZHpjx/qNuUcfnrtkyfBxfjqdEEKv1V41etLM5KGvbV+75vihK0dPum3K3JjgUGXHiutqXt+54cusfS0moxCi0zcCdHRdcWRx3iWAlMiYe6fNX5wxSq8Y8F/V3PBW5tYvju5rNhmF/XUCHlemZ0sAgA+R/wEAAACV6+0SgH0iwBMr/vfN0QM/m395RkycfYOo4JBfLb7mvpkLI4NClLf9jRbzhwd2vrlzQ3lDnTJzey8BuJyJ67MEzq0E4K/X3zJ+xq0TZkYFhThbssnyN8cPvr57Y2FdzVmvTA+WAAAfIv8DAAAA6tQ+Od3jufeid0oAJqtlzfFD2/Ny7pu16M5plwT6GYQQGkmKVtz2t9psuwtPPrd2ZXZFqa19UrxLV5St6yTN4mFjnMl+ZGxCUkRUUW2NLMnnWALQCDEhIfn/5l+ZHhWrUXx96kzlX7d8t/P0SatsE4rb/l1cGZcSgHNYgTj/EgDgO+R/AAAAQLU6e/Wd6J0SgCyJZlPbXzd8/VXWvicXXDE3bbhe65I4Np089sTK/zW0tTqe0e/RM1kWkiRJ0pi4pEfnLp0xJN3Z49FxiV/c8di/d2/66MDOmtamrksAQpYSwwfcPXXe1aMnaaWOp57Xtja/d2DHO/u2tZhNaU1yVAAAIABJREFUkji/K6O4lEKI7o4CAHyH/A8AAACo2fdfApCEnFtZ9uAn/1kyYtwjc5emRMY4jzgvfeQ/r7vjxc3fHSwpsL/wz7MEEBMU8pNp824cNy3Y4O92LkF+hodnX7ps+NhXt69bdyLLZLV4LQEE6P2uGTXprqnzYkPCnPuabdZNp7Jf2bHuZHVFZy8FPOuV6YmJAIDPkP8BAAAAlVK8ye77LwGYLJYvD2fuzM+9b+bCmybMcE4HmJUydGx80ueH9vxz6+q6lmZlCUCn010xYsL9sxYlD4hW9vB4ZVlMcGhkULBwvF/guct/uC0/52+bvz1RXe5WAhgTN/jJS5aNjx+ifOJA3pnKV3esX3cyy2y1Kt8I8P2XAAAfIv8DAAAA6nUBQffCSwBCSFWNDX9as2LFkcxfL75mclKqvfEQQ8CPp8ydlz7ybxu/+Tb7oM1mE5I0Ijb+5wuumjo4Vad4Pn9da8vfN3+74khmdHDIT+csvWzEOPtgfr1WOy9txMSE5PcP7Fi+e2OT0SgJEe4f9NCsRVePmhTkZ3C2YLRY3t2/7e29W2pbm72+FPB7LgEAPiTJMkUoAAAAoP/Ztueg5OefnJHR2QafZW7501fvCtEx69w54124PvTObbVjWXLs5WVZOYVfua/33bSSdO3YqY/NWxYbGuHcWpblzaeyX922ZsmwcbdOnq3XdiT/ZpPxq6x9L25dXd3c6Nx++pCMp+ZfMXzgIOW9/aK6mr9t/s6g0z8+d6nyFYMWm3V34annNn59srqiY3PHkrJ33bsyLmnedf8ursyXt/1adG735s1Txo2Mj4vpYhug27j/DwAAAKjWhd/r7pFRAEIWViF/enDXjvyc+2ctvnrMZPstekmSLkkbMSd1uDLP22R59+mTL21Zta84X3ZtfWdB7q3vv3rTuGm3T5kTE9w+tz8xPPKvV96icQ3tBbVVy3dt+jr7gMlqEUJ4vhTQZ6MAAN8h/wMAAABq1ndKALIkSutrn/7uk2+OHnhiweUTEpLt2yuje1lD7avb1q48ktliMXs0J4QQTW2ty3dv2nDy2N3T5l05coL9/QLKFowW8yeH9vx7z6byxnrRcTNe7vUSwLm9FBDwIfI/AAAAoFay468+VAKw2my7CnJve/fVG8ZPe2Tu0rCAQPsuJqvl4wO73tixrqyhzt5vt5cCKlvPq6n8zXeffHV0/88uuWx0XKKz/wdLTr+w6ZuDJQU2WbZPUlC+FLB3SwDn9lJAwIfI/wAAAIB69VzQ7cESgCREs6nt7d2b1xw//Pi8y+aljzhVXfn/1q04XFrYfovc46WAnq1bbLadBSd+9N4rN4ydeuuk2bIsv7Vn84qsTKPVIry9FND95Hw3EQDwFfI/AAAAoGp9tQQghFxaX/vEiv+F+Ps3G9vkjifzdfS56xKALEltZvO7mdve279dCMkmy44mOs6ZEgDgpPF1BwAAAAD0Cll2TDh3zDuX2wepi45V57Lr3HTlasey7N6IYtlxCMWyy6qX3dpXG9vabC6ddOmzW1fcWrcv22yyTbYp9nVrTrnu2mLPXRlZ0S+3/b32Hfj+kf8BAAAANesXJYD21QsoAXTkfI9T72MlAMBnyP8AAACAiily70VVApD76CgAwIfI/wAAAIC6XawlAOWmyq8oAeBiRf4HAAAAVO9iLQG47U8JABc38j8AAACgWsp82rFKCcCHJQDAd8j/AAAAgDppHG+ec6AE4PrV914CUL5KEPj+kf8BAAAAdbp20pxAPz9BCcD+496cD0oAV42cKgDfIf8DAAAAqhUTMsAz6HasXlQlANdT90kJIDIwRAC+Q/4HAAAAVGvJmCleg27H6sVWAnA95++5BDAneZQAfIf8DwAAAKjWtZPmuIyCpwTgtv/3WAKYkpQRwf1/+BT5HwAAAFCtiKCQUQkplAD6QglgUkK6huf/wafI/wAAAIBq+en0d85ZJtzyLyUAWXg017slgISwqDkpIwXgU+R/AAAAQM1mZYxeOnaqoATgdgmUmyq/6oUSgJ9W9+OJ80MMgQLwKfI/AAAAoGb+er/fX31nSnScoATgfglc9++1EsAPxs2Zxc1/9AHkfwAAAEDl/P38nr3xnrCAIEEJwP0SCI/mergEMCkh7cZxswXQB5D/AQAAAPUbPmjI8p88RQnASwnA7Ur0aAlg2uChv118i1YidqFP4B8iAAAAcFEYGpf0ym2PjYwfIigBuF0C5abKry6gBOCv0y8ZNvGp+TfotVoB9A3kfwAAAOBiMSYx9T93/eLOOcsC/AyUANwnArie84WUAFIj456Yd/2jc64O1BsE0GfofN0BAAAAAN+fAD/Do5fecOfcZf9av/KjPRstFouQZCEkWRaOl9MrVh2fykKWhCRkISTRvipL7cuyLClea69c7ViWhZBcGlEstzcqy0JyLLusetnNtcWOTnY05NkVt9bbv3J0wL0jyq8UV6ajRW9XRhIiMTz61knzpw0eZtDre/YXB1w48j8AAABw0Qn1D3rqspvvvuSK1Uf2nKgo3nXqmP1zR9CVFD+iPdo6/+r4TLmqqAG4rUmd7dLRruJIimX3o3uuKr7o+Nqtp8q+KBc7OV2PgyvWPU+qo4vXjpkZERg0J3W0APoq8j8AAABwkYoICrlp2gJf9wLA94T5/wAAAAAAqB/5HwAAAAAA9SP/AwAAAACgfuR/AAAAAADUj/wPAAAAQLWOHjn01CMPtLW2+rojgO/x/H8AAAAAZ2dsa1vz3TcncrJraqojwiOGpKXPnD03blB8Lx2uqrLihT/9ftHSyxYtuczz28bGhj/99ldzFyxcevlVXbfTUN9w+OABm83aO90E+hPu/wMAAAA4i/Ky0jtuueHTD9/T+/mlpw/V6fXrV3+38rOPe++IRmPb4YMH/vOvV41tbZ7ffvrBewf3Z5aXlvZeBwD14f4/AAAAgLN4+W8vREVG//Xlf+n9/JwfyrLc28etrT3z1YrPrr/pFuWH9XW1Kz//pLcPDagP+R8AAADAWeRkH5u/+FJl+BdCSJJkX2hpbtq4ds3x7GN1tWeiBw687KprUtMynJvJsrx21beH92fKkjRh4mRDQMCpE7m3/eQe5wbr167av3eP2WQaP2nyksuudDYrhJg7f+HH7//vsiuvDQgMcH740fvvDh02vL6u3vlJ1x1Q+nrFZ7u2b3v8F78aEBnVxdGPHjn01YrPHn7sye++/vLokUOz5y2Yv/DSbl89oI9g/D8AAACAs4hPStq6eWPh6QKv3769/PWvVnzu529IGpJ87MiRh+++I+f4Mee3f/j1z1976a9+BkNQUNC7by1/5je/LMg76fz2uT/+7t+vvRIZGRUVE/Pmyy+98MzvlS1fcfV1Op1u5WcfOT85U1P99YrPf3znPcrNuu6A0+YN61576e9Lr7zaGf47O3pDfcOmdWt/+fgj3361IjAgKCgw+LwuF9A3cf8fAAAAwFk8/PiTv/35E/fdfsvosePmXLLgkoWLgoJDnN/edd9DfgaDffnOe+6//85bV37y8VO/eVoIsXnDut07tr/0+n/SMoYKIW67+77rli602Wz2jXfv2L5188bl734YGzdICDFtxuynHnng6ht/kDF0uH0Dg7//D2+9/b//fv3Ka68PDAoWQnz03jujx4wdOWassntddMDp8MEDf3n2j/f/9LGZs+ee49HHTpj4k/se7KlrCPgc9/8BAAAAnEVqWsY7H3/x89/83maTX/7HX265/qp//u35MzXV9m+d2VsIodXpRo0dV1JabF/dvmXTxMlT7eFfCBEUGDR1xkytVmtf3bh+9YRJk+3xWwgxZtz4iIgBJ7KzlYdeevmVgYFBn3/8oRCiuqry269Wut3877oDdnknT/7+l09ed+MPL7/6OueHZz36TT/68flcJKCv4/4/AAAAgLPTarVz5y+cO39hVWXF+rWr33/739lZWa/+5x37t6XFxXt37zx1IqeluXnblk3O6fclxcWjx47trM2SoqITOccffeBu5yfNLc1NzU3KbXR6/c233fnmyy9edf2N77/z1viJk4aOGOnZVGcdsHvlxb82tzRfd9PN53V05ZMIABUg/wMAAAA4D9ExA2+65ccGP8PrL/+jtLhoUELiulXfvvLiXxZeumz8pClh4RFGo7G6usq+sX+Af4PiQX1u/AyGQQmJd95zv/LD+IREt80WLVn28fvvvvz3F7Zv2fz3V97wbKeLDtg9/PiTv37isWef/vUzL/xDo9Gc19EB1SD/AwAAADhvoaGhQgjHnPx3r7zmhjscQfqrLz7JP9X+hL8hySnbt2xqa231D2h/gH9TU1NYWJh9OTkl7XT+mpTU9OCQEPcDKGi12lvvuOu5P/5uyvQZ6UOHeW7QRQec3fj5b//w+1899earL9370KPndXRANZj/DwAAAOAs/vH8//tm5Rd5p040NNSfOVOzdeOG5a+9PGP2nPCICCGEf4D/wQP7Thfk2Wy240ezdm7b6ud4U+C1N9zU2NDw7B9+U1Febmxr27huzdHDh2RZtn97ww9/ZLFY/vS7X1WUlwshmpsaD+3f57UDc+cvfPwXv37gkZ95/baLDjhNnTHz9rvv++KTj9Z89835Hh1QB+7/AwAAAOiKsa0tICjo/XfeqnEMqvfz81ty+ZV33P2AffXeBx955nf/d+9tt2g0muiYmPETJzfUt4/5j09M+u0zf/7rs8/c9oNrNBpNWvrQ1PShznn1A2Nj/99f/vHiC8/d9oNrQkJCm5oaYwYOfPXf7yhfLmCn0WgWL72ssx520QGlG2++Nf/UyZf++lxiUtLwkaPP/eiAOkjO2hsAAACAfmTnvsMWSZc6zMt4+N4gy3Jt7ZmqyorAwMCBsYPcbrCbTKai0/n+/gFx8QltxraSwkLlQH2bzVZUWBAWFhEeEfHkTx8YkpLy4KNPKHc/c6amqrw8NDw8Nm6QvTpgMhqPZx9NzxgeEBjgtT+5OdmhoWHOp/d31oGGhvqCvFOjxoyzT/s3mUzHj2WFhoYNSUnt4uhue30/bFbb3m1bp08cHRsT9b0dFBcV8j8AAADQL+07nN3YasoYPdrXHTkPZpPpluuvuv2ue5ddebWv+9LnmIzGA7t2zZ02YUBEmK/7AnVi/j8AAADQL4UEB7a2tPi6F2e3b8/ustISWZabmxpfffFvBoNhweIlvu5UX9TS3CKECA4O9HVHoFrM/wcAAAD6pQHhYUdz8oytrYYA7yPk+4g13329ZeN6rU5nMZvTMoY+85e/G/z9fd2pvqihtjYoKNBPr/d1R6BajP8HAAAA+iWbLH+7fltsYtKgxL7+yvq62trK8tKo6IEDopjZ7p0sy4f37k2MjRo1LM3XfYFqcf8fAAAA6Jc0kpQUH1tcWhqXkOB8on7fFB4RYX9TIDpTX1vb1tqalBDn645AzZj/DwAAAPRXaUMSLSZTRUmJrzuCCyLLclFeXmxMVGhwkK/7AjUj/wMAAAD9VWCAf3pKUvHp0yaTydd9QfdVlJa2tbaOHpZ69k2BC0D+BwAAAPqxjJQkP5224EQuD/bqp1pbW0pOF6QNSQwO4sn/6F3kfwAAAKAf02q1k8eNrD9TW5yf7+u+4LxZLOYTWVkhgQHD0gb7ui9QP/I/AAAA0L9FRoRNGD2stKiooqTU133BebBaLblZR4UsT580RqvV+ro7UD+e/w8AAAD0e4mDBra2tR3NOWFsa0tMSe7jrwOAEMLY1pablWWzmGdOGWfw8/N1d3BRkJgmBAAAAKhDUen/b+/O46uo7v6BD7sgYZNFllYWwdqWfQmLyBYIBFAWt4JVtLbiSt1atfWptkjdqNU+Sn+Cda3WpSpVloSwSK1UFvHR2sdaFhWwAoUEFCQBbp4/bnt/MQk3l4QSevp+v/zDnJk5851zZu6LT+7MZOvad95r0LhRu06datWuU9XlcEj5O3dueO8vdevW7t+zS93jzBRHifwPAADh2Jm/a+Vbfy4s3N/qpC+3bN2mWnUP/B5b9u39/KMN6/J27GzTskX3zqfUdNs/R5H8DwAAQTkYi63buOkv6z+sUaNms5YnNmnatF79+lVd1H+62MGDu/Lzd2z9JO/vO46vX6/bVzs1bdKoqoviP478DwAAAfp8X8GGj7Z8uPmTgoKCmrVq1q13fM2aNd0OcPTFDhwoLCzct3dvURQ1adSg3Zdbt2nZ3AsaqBLyPwAAhCx/16d5u3bv/mzv/v37YzH/+D/aatasUadO7YZp9Zs1aVSnjvf8UZXkfwAAAAif+38AAAAgfPI/AAAAhE/+BwAAgPDJ/wAAABA++R8AAADCJ/8DAABA+OR/AAAACJ/8DwAAAOGT/wEAACB88j8AAACET/4HAACA8Mn/AAAAED75HwAAAMIn/wMAAED45H8AAAAIn/wPAAAA4ZP/AQAAIHzyPwAAAIRP/gcgJTt27uzSO33W7DlVXUiwjtQIb/zgg4KCgiNS0r/IrbfP6N63/xHv9p0/vduld/rL8+Yf8Z6PmlTOgWN/fgE4Zsn/AFVm//79v33ppSnfuTQja0zvAQNHnTn+qmuve+nlV2KxWFWXdgw5fXhml97p8f+6pfcbM2HiVdde//CjjxUUFlZJPbdOv71L7/QhmaOOzWn6w4oVZ5597ndv+H5VF1JZycf59OGZ35p6WYnGNWvXRlHUs0ePxDp9Bw3Oz88/1C4WL1vWpXf6T+++J3m3lanziAtmfgGoEvI/QNUoKCi48NuX/uSnd6bVr3/m2DGXXDRl4ID+efn5j//6qerVfTh/wZfatLlu2tXXTbv6iku/07VLl4//9vF9Dzw44dxvrFrzZuqd3H7n3VOvurqSlRQUFOTkLm7cuPGOnTvfWLW6kr1VXumDat6sebNmTTue3KGqSjoiKjbOa9aubd2qVauWJyZa9u79/JEnnixz5aKiolkPza6SOiuj9PwekRO7uCPeIQDHjppVXQDAf6jZjzz6p3ff/eX99/Xv17d4+8GDB6uqpGPWiS2aX3j+5OItL89fcOfMmdOuu37u8882a9o0lU42b9myfsPGSlayeOmyz/bseXDG9CuvuW5Bdna/9D6V7LCSSh9Ux5M7LJ4/r6rqOVIqMM6xWOzNt/5n2OBBJdqffva5CydPbtKkcYn23CVL/7pu/dGvs5JKz+8RObH/pR0CcOzwFRNA1Vi1es0JTZqUCP9RFNWoUaNK6vn3MjZr1I9uvvmzPXvuuGfm0dzv7+bNa9e27Wn9+/fs3i136bLCKnoGIXgVGOf316379NNPe/fsWbyxe9eusVjskSeeKLFyUVHRrNlzhg8bevTrBIAqJP8DVI26dY/bmZe3ecuW5KstXrbskssuHzA0I2vchFtvn5GXl5dYFH9V2Ot/fOOFub+b8p1L+w8e+vivn8pdsrRL7/Rf/+aZ4p2sW7++S+/0Z55/vsLdVqzCKIreevvtadffMHz02F4DBg7LGn3t927M37Wr3EWpGD5saNfOnRcvXRZ/EcD27X9/6OFfTZpy8enDM/sPHjrpwoteWbAgvmYsFuvSO/0PK1Zs3bYt/h6B+x54MPkmZdq+/e9/XLlq9MjMKIoyMzI+++yz115fUXyF+NCtXLX6F7N+Ofmii/sOGjzhvEnPvfBiUVFRoofU95iTu7hL7/Snn32ueOP6DRvijYc6qDJfIPfu//7vtOtvGDHmjH6Dhpx3wYXP/vaFeHsqU5C85nIPOW7pq8u/ffmVA4ZmDM4cecttP9m9e3dlxrlMa978wsP/cS1aNJ847szfPPf833fsKN6enZu7YePGy759SbndVqbO5JfSoSYliqL9hYWzZs/55sWXlB7P4vN7qHMgLvmFWWYBh+pw9ZtvdumdvnDRouKbj5kwMfGuhORHWm4lABw18j9A1cjKzCwqKrrw29954aW5h8q9s2bPufZ7NzZv1vzKqZeOHJ6Ru2TJNy68aM/evcXXmX7HnXf/7N6WLU7MGpn59a9+ddDA0xo1bJi9KLf4OvOzc2rXrj1yxIgKd3uoo0je1Vtvv/2tqZdv3rIla2TmNVddOXjgwL2f722QlpZ8Uep6dO8Wi8U+/PCjKIpWrlk995V5X+nUcfK555w9ccLez/fe/F+3vvDS3CiKqlWrdteM6fFN7pox/a4Z00eNGJF8kzK9PH9+LBbLGpkZRdGwoUOqV6++IDun9GqXXH7FH1euTO/V65IpU2rWqPGTn96R+HXMYe1x8OkD09LSFi1eUrwxJ3dxjRo1Rg7PONRBlfbKggXfvPiSrdu2jRs75tJLvtXupLbx3zqlOAWp1JzkkKMoevjRx6Zdf8O+ffumnD951IgRb771Vu6SpUmec0lxnEso/fD/P2q7aEpUVPTwo48lWmKx2C9nzxkxbFiH9u3L7TaJFOss81I61KTEzXn0sWXLl/fs0b3M8UxIcg6Ue42XWUDqJ1WZyjzSVD5tADh6igCoIs+98OLIM8Z17tWnW3q/qVdNW/rq8oMHDyaWrlu/vlt6v1899nii5f2/ruuW3u//zXk4/uPfd+zo3KtP5159/vbJJ8W7veOemV16pxdvHHXm+OtuvKmS3cbbH3xoduoV3jp9Rs/+p+3bt6/0sSdZVMLAjBEXXzq1zEW/fWlu5159FuTkFBUVxWKx4ov2FRSMHj9x4jcmJVqmXjUtI2tM8XXK3aSEM88+Z/JFFyd+/NbUy3oNGLhnz95ES3yIho7MSrQUFhaOHj8hsd/keyw9wrfdPqNrn747duxMtIw7+9wrr7kuyUGV6CQvL2/A0GHXfv/G4qdWXIpTkErNSQ5585YtPfufduMP/ytRwGd79sRPsEPtsdxxLirrrDh9eOYtt/24xDo33PyDoqKiu352b6/+p23btj3ePm/Bwq59+q7bsKGoqKhzrz4z7ro7SbdJpHg+lL6UkkxKfJOuffomFpUYz9InSelzoNwLM0kBZXa4as2axIWWMHr8hMRYHepIy60EgKPM9/8AVeas8ePmvfjbn99914B+ff+4cuXV110/evzEnNzF8aU5i5ccPHjw7AnjE+t3PLnDye3bv/Pun4t3cuaYMSe2aPGFlrFjioqKErcA/Onddzdv2TJu7JhKdltauV3VqVO7sLBwfnZO6T+NlmTR4apZo2YURdWqVftC/7Vrd+vaJX5rwKEc1iZ/evfdDRs/GD1yZKJlREZGQUHB0uWvlljzrGIDUqtWrQH9+m3dti3+hefhFjl2dFYsFlvy6j92sX7DhvUbN47NGpXkoEqYtzB79+5Pr5x6aek/KpHiFKRSc5JDXpCzqLCwcNqVlycKOL5evQnjzjzUey5SH+fiNmz8IC8vr8TD/wkXX3hBterV5zz6aBRFsVhs1uw5mcMzOrRrl6TDcqVeZ+lLKcmkxF16ybcSi0qMZyrKvTDLLaBiSh9pip82ABw13v8PUJWqV68+dPCgoYMH5efnz1uYff+Ds77/w1tat271tVNP3bBhYxRF/YcMK7HJCSc0Kf5jq1YtS6zwlU6dvtKpU/ai3Pg78xfkLGrWtGn/vv940WCFuy2t3K6mfPP8N1at/tFPpt/z8/sG9O077oyx/dL7xPNkkkWp+2jTpiiKWv7zlu8tH388f2H2ijdWfrJ166effrpr9+5yX6aY+iZzX5kfRdH27dsTd2Lv2LEjiqL5C7OLh8DS0tLSoijav39/BYrs3rVrm9atc5csOWv8uCiKcnIX169ff9DpA5MfVHEbNm6sVavWSV/+culFqU/B4Q5s8UP+4MMP09LSyv1dUkLFxnnN2rVRFPXq2aPMpSc0afKNc87+9W+eufjCC1auWr1p8+b7Z96dYj2Vr7P0pZRkUspU4hQqV7kX5uEWkKIyjjS1TxsAjhr5H+CY0KhRo8nnnduoUcObbvnR8t+/9rVTTz3++HpRFM1+8L/T6n/hkey0tPrl9jbujLF33DNz85YtrVq2zF6UO3Z01v//9rUS3ZZQblcntmjx4jNPv7n2rZfnL1j+h9cWLlrUoX37ObMeOKFJkySLUi/grbffbtigwamnnBL//yu+e+2X27QZf8bYTp06NkhrcP+DD776+9eSb57iJvv371+YkxNF0Zxij5HHrXhjZf6uXY0aNkyx4MMtcmzWqId+9ciu3bsbNmiQk7t4RMawOrVrp7KvuLz8/KIvvoovIcUpqEDNxRUWFu7fv7+oqCiVX+5UeJzXrF3bpnXrlieWfPg/4aJvnv/M88/Pmj1n9Zo1WZmZ7dq2TbH+I1tnXJJJOSLKvTD/1QWkXgkAR5n8D3AM+UqnTlEU7T9wIIqitm3bRlH0+ef70nv3Ptx+skZmzrzv/pzcxV06f33b9u1njB6dWFSZbktIsase3bv16N4tiqIX5v7u1um3P/XMs1ddNrXcReVatvz3b6596wffvyH+q42nnnm2Vq2aTz7ycOKr6dq1ayd5ydxhbfLq71/btXv3jB/fOmbUF+69f+6FF3/y0zsWLV5S/A7nI7LHhDFZo2bNnrNs+fKvf/Wr6zdu/OFN309lRwlfatPmwIEDGz/88FC3u5c7BRWoubh2J520cN+ides3dDy5Q7krV3ic17y5tn/f9CQ9N2rUaNK558555NEoih74+b0pFn/E64wrd1IqqdwL83ALqFWrVhRFn32254hXAsBR5vl/gKrx/l/XlXigt6io6Klnno2iKL13ryiKRg7PqFu37n0PPLgr6R9LK1Ojhg0Hnz5w4aLcBdk5nb/+tfbt2iYWVbjbalG1KIoKCgpS76rEd4yjRgyvVq3a3r17ky9KRe7SpT+afnuXzl8/e8KEeEteXn4URQf+mUuLiooW5nzhz5XVq1d3x86d+fn5iZZyN0mY+8q84447buigwSXaM4YMTvHt9KnssfQIR1H0pTZtunftmrtkaU7u4lYtT+zRrVvygyohnrt++dCc0t/3pjgFqY9SmYYMOr169eoz77uvsLAw3nLrD7OPAAAJi0lEQVTgwIEXXppb5m8QKjbOm7ds2bptW69DPPyfMOX880/p2HHyeedW/r73Sp4PSSalAkqfA+VemMkLKN1hfMSK3/Tx2Z49H23aXG5tlfkQA+Bfwff/AFUgFotdNm1afv6u7t26nvSlLzVt2nT37t0r3nhjw8YPJp17Tvxf5ye2aHHdtKtn3HX32ZPOnzjuzLZtT9q5M+8PK1Zcc/VVqXxrN27s2Cu+e817f/nLLTfdWLy9wt02btwoLS0te1Fup5NP7tqlc+tWrcrt6rbbZ2z84MOePbqf2KLFrl27lr66vEaNGiNHDE++qLSt27bFn7Lef+DApk2b3nv//Xf+9O6IjGE333BD4rmGIYNOf2PVqvPOv2DY0CF1atdevGxZiU769umzaPGS62/+wRlZWfWOr5cxZEi5m8Tt3Jn32uuvDx82tF69uqXGpHHvnj1Xrl69bfv25s2aJRm9VIosPcLx9rGjs+64Z+Z7f3n/jDGjS9xFX/qgSuyxf9/0jCFDsnNz8/LzRgwbVrdu3T+/917d4467+orLU5yCFEfpUL5yyinnnjXx6WefO++CKcOHDS2KxZb9/rUoikq/ea7C4/yPh/97dE9eSYMGac899WS5Bf/tk62/euzx4i3Va9SYcv7kyteZkGRSyi2vtNLnQLkXZvICSnfYqGHDsVmjXp6/4IrvXtMvPX3Lxx8vWZbsdYwJlfwQA+CIk/8BqkD16tWfeHjO/Oyc11f88bXXV+zcubNZs2bt27X93jXX9O/XN7HaORMnnHrKKQ/96pEXf/fyjp07mzdr1rtXz+Pq1EllFwP+2c/I4RklFlWs22rVqt12yw/uvOdnd91773evvDKeTpN3NWTQ6Xv2LMxelLtt+/Z69eqd0rHjL39xf9fOnZMvKu2jTZvvnPmzKIrq1KnToX27jh1O/s7FFw8aeFrxdb5xztn79u377UtzH3vy121atx41Yvikc8750fTbEyucNX7ctu3bX/rdy3fde2/fPn0yhgwpd5O4+dnZBw8ePNTL5zKHZ7yxatXCnEUXTJ6UfADLLbLMEY6iKDNj2PQ77ty6bVvpN/+XPqjSO73njhmPP/X0wpycmff/om7d4zq0a3fOWROjlKcgxVFK4qYbru/Qvv1LL7/y6BNPNm7U6IzRWReeP+mHt/64xGoVHuc1b5bz8P9h2bxly8//+4HiLXVq1y6e/4/I+XCoSamAMs+Bcq/xJAWU2eEtN93YpEmTRYsX/88773zt1FOvunzqW2+/s3HjxnLLq8yHGABHXLWj8wIYAKDCzpo0uVbNWk8//mhVF3IsGj1+Yq8e3W+75YdVXQgAHOs8/w8Ax7SPNm16/6/rRmWOqOpCjkXbtm/ftHlzuQ//AwCR+/8B4Bg395V51apVyyz1HAdRFDVp3Hhp9oKGDRpUdSEA8G9A/geAY1csFnt53vzu3bq2aN68qms5FtWsWfOEJk2qugoA+Pfg/n8AOHatXL36k61bRw4v+y8jAACkzvv/AAAAIHy+/wcAAIDwyf8AAAAQPvkfAAAAwif/AwAAQPjkfwAAAAif/A8AAADhk/8BAAAgfPI/AAAAhE/+BwAAgPDJ/wAAABA++R8AAADCJ/8DAABA+OR/AAAACJ/8DwAAAOGT/wEAACB88j8AAACET/4HAACA8Mn/AAAAED75HwAAAMIn/wMAAED45H8AAAAIn/wPAAAA4ZP/AQAAIHzyPwAAAIRP/gcAAIDwyf8AAAAQPvkfAAAAwif/AwAAQPjkfwAAAAif/A8AAADhk/8BAAAgfPI/AAAAhE/+BwAAgPDJ/wAAABA++R8AAADCJ/8DAABA+OR/AAAACJ/8DwAAAOGT/wEAACB88j8AAACET/4HAACA8Mn/AAAAED75HwAAAMIn/wMAAED45H8AAAAIn/wPAAAA4ZP/AQAAIHzyPwAAAIRP/gcAAIDwyf8AAAAQPvkfAAAAwif/AwAAQPjkfwAAAAif/A8AAADhk/8BAAAgfPI/AAAAhE/+BwAAgPDJ/wAAABA++R8AAADCJ/8DAABA+OR/AAAACJ/8DwAAAOGT/wEAACB88j8AAACET/4HAACA8Mn/AAAAED75HwAAAMIn/wMAAED45H8AAAAIn/wPAAAA4ZP/AQAAIHzyPwAAAIRP/gcAAIDwyf8AAAAQPvkfAAAAwif/AwAAQPjkfwAAAAif/A8AAADhk/8BAAAgfPI/AAAAhE/+BwAAgPDJ/wAAABA++R8AAADCJ/8DAABA+OR/AAAACJ/8DwAAAOGT/wEAACB88j8AAACET/4HAACA8Mn/AAAAED75HwAAAMIn/wMAAED45H8AAAAIn/wPAAAA4ZP/AQAAIHzyPwAAAIRP/gcAAIDwyf8AAAAQPvkfAAAAwif/AwAAQPjkfwAAAAif/A8AAADhk/8BAAAgfPI/AAAAhE/+BwAAgPDJ/wAAABA++R8AAADCJ/8DAABA+OR/AAAACJ/8DwAAAOGT/wEAACB88j8AAACET/4HAACA8Mn/AAAAED75HwAAAMIn/wMAAED45H8AAAAIn/wPAAAA4ZP/AQAAIHzyPwAAAIRP/gcAAIDwyf8AAAAQPvkfAAAAwif/AwAAQPjkfwAAAAif/A8AAADhk/8BAAAgfPI/AAAAhE/+BwAAgPDJ/wAAABA++R8AAADCJ/8DAABA+OR/AAAACJ/8DwAAAOGT/wEAACB88j8AAACET/4HAACA8Mn/AAAAED75HwAAAMIn/wMAAED45H8AAAAIn/wPAAAA4ZP/AQAAIHzyPwAAAIRP/gcAAIDwyf8AAAAQPvkfAAAAwif/AwAAQPjkfwAAAAif/A8AAADhk/8BAAAgfPI/AAAAhE/+BwAAgPDJ/wAAABA++R8AAADCJ/8DAABA+OR/AAAACJ/8DwAAAOGT/wEAACB88j8AAACET/4HAACA8Mn/AAAAED75HwAAAMIn/wMAAED45H8AAAAIn/wPAAAA4ZP/AQAAIHzyPwAAAIRP/gcAAIDwyf8AAAAQPvkfAAAAwif/AwAAQPjkfwAAAAif/A8AAADhk/8BAAAgfPI/AAAAhE/+BwAAgPDJ/wAAABA++R8AAADCJ/8DAABA+OR/AAAACJ/8DwAAAOGT/wEAACB88j8AAACET/4HAACA8Mn/AAAAED75HwAAAMIn/wMAAED45H8AAAAIn/wPAAAA4ZP/AQAAIHzyPwAAAIRP/gcAAIDwyf8AAAAQPvkfAAAAwif/AwAAQPjkfwAAAAjf/wFUzzZZPmHyBwAAAABJRU5ErkJggg==" vertex="1" parent="1">
          <mxGeometry x="40" y="40" width="600" height="400" as="geometry" />
        </mxCell>
      </root>
    </mxGraphModel>
  </diagram>
</mxfile>